{"glyphs":{"0":{"ha":867,"x_min":0,"x_max":0,"o":"m 429 -14 b 74 461 190 -14 74 142 b 440 936 74 775 199 936 b 796 461 676 936 796 778 b 429 -14 796 147 671 -14 m 429 28 b 746 460 642 28 746 169 l 746 463 b 440 894 746 756 647 894 b 124 463 228 894 124 754 l 124 460 b 429 28 124 164 222 28 "},"1":{"ha":542,"x_min":0,"x_max":0,"o":"m 335 0 l 335 789 b 50 569 279 692 157 610 l 50 618 b 349 926 174 667 315 765 l 383 926 l 383 0 "},"2":{"ha":703,"x_min":0,"x_max":0,"o":"m 47 6 b 618 683 47 436 618 393 b 376 894 618 818 524 894 b 86 658 224 894 133 807 l 44 676 b 376 936 103 847 206 936 b 667 686 550 936 667 842 b 93 43 667 361 122 404 l 669 43 l 669 0 l 47 0 "},"3":{"ha":775,"x_min":0,"x_max":0,"o":"m 393 -14 b 65 242 193 -14 79 85 l 111 242 b 394 28 125 111 219 28 b 657 254 565 28 657 107 l 657 257 b 397 463 657 399 578 463 b 321 461 372 463 321 461 l 321 503 b 397 501 321 503 376 501 b 636 689 542 501 636 571 l 636 692 b 390 894 636 822 553 894 b 129 665 231 894 143 810 l 86 665 b 392 936 100 829 208 936 b 686 690 579 936 686 842 b 500 486 686 594 628 517 b 707 256 639 458 707 374 b 393 -14 707 86 590 -14 "},"4":{"ha":765,"x_min":0,"x_max":0,"o":"m 589 922 l 94 292 l 539 292 l 539 535 l 586 572 l 586 292 l 749 292 l 749 251 l 586 251 l 586 0 l 538 0 l 538 251 l 33 251 l 33 275 l 529 922 "},"5":{"ha":746,"x_min":0,"x_max":0,"o":"m 363 -14 b 61 229 185 -14 61 85 l 106 229 b 360 26 113 104 208 26 b 647 308 543 26 647 125 l 647 311 b 371 574 647 486 542 574 b 103 413 211 574 135 486 l 67 424 l 154 922 l 646 922 l 646 879 l 185 879 l 119 506 b 371 614 186 579 272 614 b 696 310 571 614 696 510 b 363 -14 696 100 574 -14 "},"6":{"ha":793,"x_min":0,"x_max":0,"o":"m 419 -14 b 71 451 192 -14 71 146 b 436 936 71 779 194 936 b 724 665 613 936 724 831 l 678 665 b 436 894 676 843 550 894 b 117 450 221 894 117 757 b 125 303 117 408 118 363 l 126 303 b 428 550 143 456 260 550 b 735 267 618 550 735 442 b 419 -14 735 96 611 -14 m 419 26 b 688 265 588 26 688 117 l 688 268 b 428 510 688 418 589 510 b 158 267 271 510 158 408 l 158 264 b 419 26 158 124 265 26 "},"7":{"ha":686,"x_min":0,"x_max":0,"o":"m 31 922 l 658 922 l 658 879 l 196 0 l 142 0 l 614 879 l 31 879 "},"8":{"ha":772,"x_min":0,"x_max":0,"o":"m 386 -14 b 49 244 179 -14 49 83 b 267 486 49 368 113 454 b 88 699 135 517 88 590 b 386 936 88 847 200 936 b 685 699 572 936 685 847 b 504 486 685 590 636 517 b 724 244 658 454 724 368 b 386 -14 724 83 593 -14 m 386 29 b 671 246 563 29 671 108 b 386 463 671 388 576 463 b 101 246 196 463 101 388 b 386 29 101 108 210 29 m 386 504 b 635 696 554 504 635 567 b 386 893 635 824 547 893 b 138 696 225 893 138 824 b 386 504 138 567 218 504 "},"9":{"ha":793,"x_min":0,"x_max":0,"o":"m 371 -14 b 83 257 194 -14 83 92 l 129 257 b 371 28 131 79 257 28 b 690 472 590 28 690 165 b 683 617 690 508 689 550 b 379 344 669 456 560 344 b 72 642 189 344 72 467 b 388 936 72 813 196 936 b 736 471 628 936 736 768 b 371 -14 736 143 617 -14 m 379 385 b 649 642 544 385 649 500 l 649 644 b 388 896 649 800 550 896 b 119 643 219 896 119 792 l 119 640 b 379 385 119 490 218 385 "},"A":{"ha":808,"x_min":0,"x_max":0,"o":"m 371 925 l 439 925 l 774 0 l 719 0 l 600 336 l 206 336 l 86 0 l 35 0 m 221 379 l 585 379 l 401 882 "},"Æ":{"ha":1215,"x_min":0,"x_max":0,"o":"m 949 433 l 658 433 l 658 40 l 1188 43 l 1188 0 l 607 0 l 607 383 l 318 383 l 96 0 l 40 0 l 582 922 l 1146 922 l 1146 879 l 658 879 l 658 475 l 949 475 m 607 424 l 607 882 l 342 424 "},"Ǽ":{"ha":1215,"x_min":0,"x_max":0,"o":"m 949 433 l 658 433 l 658 40 l 1188 43 l 1188 0 l 607 0 l 607 383 l 318 383 l 96 0 l 40 0 l 582 922 l 1146 922 l 1146 879 l 658 879 l 658 475 l 949 475 m 607 424 l 607 882 l 342 424 m 1000 1210 l 807 1018 l 757 1018 l 942 1211 l 1000 1211 "},"Á":{"ha":808,"x_min":0,"x_max":0,"o":"m 371 925 l 439 925 l 774 0 l 719 0 l 600 336 l 206 336 l 86 0 l 35 0 m 221 379 l 585 379 l 401 882 m 621 1210 l 428 1018 l 378 1018 l 563 1211 l 621 1211 "},"Ă":{"ha":808,"x_min":0,"x_max":0,"o":"m 371 925 l 439 925 l 774 0 l 719 0 l 600 336 l 206 336 l 86 0 l 35 0 m 221 379 l 585 379 l 401 882 m 400 1018 b 236 1178 301 1018 236 1076 l 278 1178 b 400 1056 278 1099 328 1056 b 524 1178 471 1056 524 1099 l 565 1178 b 400 1018 565 1076 499 1018 "},"Â":{"ha":808,"x_min":0,"x_max":0,"o":"m 371 925 l 439 925 l 774 0 l 719 0 l 600 336 l 206 336 l 86 0 l 35 0 m 221 379 l 585 379 l 401 882 m 550 1018 l 504 1018 l 400 1157 l 296 1018 l 250 1018 l 389 1206 l 411 1206 "},"Ä":{"ha":808,"x_min":0,"x_max":0,"o":"m 371 925 l 439 925 l 774 0 l 719 0 l 600 336 l 206 336 l 86 0 l 35 0 m 221 379 l 585 379 l 401 882 m 329 1026 l 265 1026 l 265 1094 l 329 1094 m 535 1026 l 471 1026 l 471 1094 l 535 1094 "},"À":{"ha":808,"x_min":0,"x_max":0,"o":"m 371 925 l 439 925 l 774 0 l 719 0 l 600 336 l 206 336 l 86 0 l 35 0 m 221 379 l 585 379 l 401 882 m 236 1211 l 421 1018 l 372 1018 l 179 1210 l 179 1211 "},"Ā":{"ha":808,"x_min":0,"x_max":0,"o":"m 371 925 l 439 925 l 774 0 l 719 0 l 600 336 l 206 336 l 86 0 l 35 0 m 221 379 l 585 379 l 401 882 m 583 1026 l 217 1026 l 217 1069 l 583 1069 "},"Ą":{"ha":808,"x_min":0,"x_max":0,"o":"m 718 -256 b 601 -151 650 -256 601 -214 b 717 7 601 -94 636 -44 l 600 336 l 206 336 l 86 0 l 35 0 l 371 925 l 439 925 l 774 0 b 647 -149 701 -39 647 -87 b 721 -215 647 -192 676 -215 b 785 -200 747 -215 774 -204 l 788 -239 b 718 -256 772 -247 744 -256 m 221 379 l 585 379 l 401 882 "},"Å":{"ha":808,"x_min":0,"x_max":0,"o":"m 371 925 l 439 925 l 774 0 l 719 0 l 600 336 l 206 336 l 86 0 l 35 0 m 221 379 l 585 379 l 401 882 m 401 1050 b 474 1122 444 1050 474 1083 b 401 1196 474 1161 444 1196 b 331 1122 358 1196 331 1161 b 401 1050 331 1083 358 1050 m 401 1017 b 294 1122 335 1017 294 1064 b 401 1228 294 1181 335 1228 b 510 1122 467 1228 510 1181 b 401 1017 510 1064 467 1017 "},"Ǻ":{"ha":808,"x_min":0,"x_max":0,"o":"m 369 922 b 294 1024 322 935 294 975 b 389 1128 294 1078 329 1122 l 475 1257 l 532 1257 l 532 1256 l 428 1126 b 510 1024 478 1115 510 1074 b 439 924 510 978 482 939 l 774 0 l 719 0 l 600 336 l 206 336 l 86 0 l 35 0 m 221 379 l 585 379 l 401 882 m 401 951 b 474 1024 444 951 474 985 b 401 1097 474 1063 444 1097 b 331 1024 358 1097 331 1063 b 401 951 331 985 358 951 "},"Ã":{"ha":808,"x_min":0,"x_max":0,"o":"m 371 925 l 439 925 l 774 0 l 719 0 l 600 336 l 206 336 l 86 0 l 35 0 m 221 379 l 585 379 l 401 882 m 224 1028 l 228 1056 b 314 1144 236 1114 265 1144 b 489 1056 394 1144 428 1056 b 533 1104 511 1056 528 1076 l 539 1135 l 576 1135 l 572 1107 b 486 1018 564 1049 535 1018 b 311 1107 406 1018 372 1107 b 267 1058 289 1107 272 1086 l 261 1028 "},"B":{"ha":782,"x_min":0,"x_max":0,"o":"m 389 922 b 688 699 594 922 688 853 b 514 499 688 588 633 524 b 740 258 668 471 740 390 b 415 0 740 88 629 0 l 96 0 l 96 922 m 411 43 b 685 260 596 43 685 115 b 385 471 685 404 596 471 l 147 471 l 147 43 m 147 513 l 349 513 b 635 696 544 513 635 574 b 389 879 635 828 567 879 l 147 879 "},"C":{"ha":904,"x_min":0,"x_max":0,"o":"m 467 -14 b 47 458 238 -14 47 164 b 467 936 47 760 238 936 b 857 568 650 936 821 847 l 804 565 b 469 894 772 831 624 894 b 101 465 267 894 101 738 l 101 458 b 469 29 101 183 267 29 b 804 357 614 29 772 92 l 857 354 b 467 -14 821 75 647 -14 "},"\r":{"ha":236,"x_min":0,"x_max":0,"o":""},"Ć":{"ha":904,"x_min":0,"x_max":0,"o":"m 467 -14 b 47 458 238 -14 47 164 b 467 936 47 760 238 936 b 857 568 650 936 821 847 l 804 565 b 469 894 772 831 624 894 b 101 465 267 894 101 738 l 101 458 b 469 29 101 183 267 29 b 804 357 614 29 772 92 l 857 354 b 467 -14 821 75 647 -14 m 672 1210 l 479 1018 l 429 1018 l 614 1211 l 672 1211 "},"Č":{"ha":904,"x_min":0,"x_max":0,"o":"m 467 -14 b 47 458 238 -14 47 164 b 467 936 47 760 238 936 b 857 568 650 936 821 847 l 804 565 b 469 894 772 831 624 894 b 101 465 267 894 101 738 l 101 458 b 469 29 101 183 267 29 b 804 357 614 29 772 92 l 857 354 b 467 -14 821 75 647 -14 m 301 1206 l 347 1206 l 451 1067 l 556 1206 l 601 1206 l 463 1018 l 440 1018 "},"Ç":{"ha":904,"x_min":0,"x_max":0,"o":"m 456 -256 b 378 -239 419 -256 393 -247 l 381 -200 b 456 -217 392 -206 417 -217 b 525 -144 492 -217 525 -190 b 419 -11 525 -93 492 -54 b 47 458 211 11 47 185 b 467 936 47 760 238 936 b 857 568 650 936 821 847 l 804 565 b 469 894 772 831 624 894 b 101 465 264 894 101 738 l 101 458 b 469 29 101 183 264 29 b 804 357 614 29 772 92 l 857 354 b 485 -14 822 85 658 -7 b 571 -147 551 -60 571 -104 b 456 -256 571 -212 519 -256 "},"Ĉ":{"ha":904,"x_min":0,"x_max":0,"o":"m 467 -14 b 47 458 238 -14 47 164 b 467 936 47 760 238 936 b 857 568 650 936 821 847 l 804 565 b 469 894 772 831 624 894 b 101 465 267 894 101 738 l 101 458 b 469 29 101 183 267 29 b 804 357 614 29 772 92 l 857 354 b 467 -14 821 75 647 -14 m 601 1018 l 556 1018 l 451 1157 l 347 1018 l 301 1018 l 440 1206 l 463 1206 "},"Ċ":{"ha":904,"x_min":0,"x_max":0,"o":"m 467 -14 b 47 458 238 -14 47 164 b 467 936 47 760 238 936 b 857 568 650 936 821 847 l 804 565 b 469 894 772 831 624 894 b 101 465 267 894 101 738 l 101 458 b 469 29 101 183 267 29 b 804 357 614 29 772 92 l 857 354 b 467 -14 821 75 647 -14 m 483 1026 l 419 1026 l 419 1094 l 483 1094 "},"D":{"ha":899,"x_min":0,"x_max":0,"o":"m 96 922 l 371 922 b 851 458 696 922 851 782 b 357 0 851 140 689 0 l 96 0 m 147 43 l 357 43 b 797 453 651 43 797 169 l 797 467 b 371 879 797 757 661 879 l 147 879 "},"Ď":{"ha":899,"x_min":0,"x_max":0,"o":"m 96 922 l 371 922 b 851 458 696 922 851 782 b 357 0 851 140 689 0 l 96 0 m 147 43 l 357 43 b 797 453 651 43 797 169 l 797 467 b 371 879 797 757 661 879 l 147 879 m 324 1206 l 369 1206 l 474 1067 l 578 1206 l 624 1206 l 485 1018 l 463 1018 "},"Đ":{"ha":871,"x_min":0,"x_max":0,"o":"m 322 922 b 824 458 668 922 824 782 b 308 0 824 140 661 0 l 96 0 l 96 449 l -24 449 l -24 489 l 96 489 l 96 922 m 308 43 b 771 453 624 43 771 169 l 771 467 b 322 879 771 757 633 879 l 147 879 l 147 489 l 396 489 l 396 449 l 147 449 l 147 43 "},"E":{"ha":742,"x_min":0,"x_max":0,"o":"m 489 475 l 147 475 l 147 43 l 714 43 l 714 0 l 96 0 l 96 922 l 672 922 l 672 879 l 147 879 l 147 517 l 489 517 "},"É":{"ha":742,"x_min":0,"x_max":0,"o":"m 489 475 l 147 475 l 147 43 l 714 43 l 714 0 l 96 0 l 96 922 l 672 922 l 672 879 l 147 879 l 147 517 l 489 517 m 625 1210 l 432 1018 l 382 1018 l 567 1211 l 625 1211 "},"Ĕ":{"ha":742,"x_min":0,"x_max":0,"o":"m 489 475 l 147 475 l 147 43 l 714 43 l 714 0 l 96 0 l 96 922 l 672 922 l 672 879 l 147 879 l 147 517 l 489 517 m 404 1018 b 240 1178 306 1018 240 1076 l 282 1178 b 404 1056 282 1099 332 1056 b 528 1178 475 1056 528 1099 l 569 1178 b 404 1018 569 1076 503 1018 "},"Ě":{"ha":742,"x_min":0,"x_max":0,"o":"m 489 475 l 147 475 l 147 43 l 714 43 l 714 0 l 96 0 l 96 922 l 672 922 l 672 879 l 147 879 l 147 517 l 489 517 m 254 1206 l 300 1206 l 404 1067 l 508 1206 l 554 1206 l 415 1018 l 393 1018 "},"Ê":{"ha":742,"x_min":0,"x_max":0,"o":"m 489 475 l 147 475 l 147 43 l 714 43 l 714 0 l 96 0 l 96 922 l 672 922 l 672 879 l 147 879 l 147 517 l 489 517 m 554 1018 l 508 1018 l 404 1157 l 300 1018 l 254 1018 l 393 1206 l 415 1206 "},"Ë":{"ha":742,"x_min":0,"x_max":0,"o":"m 489 475 l 147 475 l 147 43 l 714 43 l 714 0 l 96 0 l 96 922 l 672 922 l 672 879 l 147 879 l 147 517 l 489 517 m 333 1026 l 269 1026 l 269 1094 l 333 1094 m 539 1026 l 475 1026 l 475 1094 l 539 1094 "},"Ė":{"ha":742,"x_min":0,"x_max":0,"o":"m 489 475 l 147 475 l 147 43 l 714 43 l 714 0 l 96 0 l 96 922 l 672 922 l 672 879 l 147 879 l 147 517 l 489 517 m 436 1026 l 372 1026 l 372 1094 l 436 1094 "},"È":{"ha":742,"x_min":0,"x_max":0,"o":"m 489 475 l 147 475 l 147 43 l 714 43 l 714 0 l 96 0 l 96 922 l 672 922 l 672 879 l 147 879 l 147 517 l 489 517 m 240 1211 l 425 1018 l 376 1018 l 183 1210 l 183 1211 "},"Ē":{"ha":742,"x_min":0,"x_max":0,"o":"m 489 475 l 147 475 l 147 43 l 714 43 l 714 0 l 96 0 l 96 922 l 672 922 l 672 879 l 147 879 l 147 517 l 489 517 m 588 1026 l 221 1026 l 221 1069 l 588 1069 "},"Ŋ":{"ha":918,"x_min":0,"x_max":0,"o":"m 582 -211 l 629 -211 b 774 -54 742 -211 769 -187 l 774 -18 l 144 871 l 144 0 l 96 0 l 96 922 l 164 922 l 774 58 l 774 922 l 822 922 l 822 -18 b 629 -253 821 -210 781 -253 l 582 -253 "},"Ę":{"ha":742,"x_min":0,"x_max":0,"o":"m 658 -256 b 542 -151 590 -256 542 -214 b 646 0 542 -96 574 -50 l 96 0 l 96 922 l 672 922 l 672 879 l 147 879 l 147 517 l 489 517 l 489 475 l 147 475 l 147 43 l 714 43 l 714 0 b 588 -149 642 -39 588 -87 b 661 -215 588 -192 617 -215 b 725 -200 688 -215 714 -204 l 728 -239 b 658 -256 713 -247 685 -256 "},"Ð":{"ha":871,"x_min":0,"x_max":0,"o":"m 322 922 b 824 458 668 922 824 782 b 308 0 824 140 661 0 l 96 0 l 96 449 l -24 449 l -24 489 l 96 489 l 96 922 m 308 43 b 771 453 624 43 771 169 l 771 467 b 322 879 771 757 633 879 l 147 879 l 147 489 l 396 489 l 396 449 l 147 449 l 147 43 "},"€":{"ha":869,"x_min":0,"x_max":0,"o":"m 506 333 l 189 333 b 506 28 218 132 322 28 b 782 268 651 28 765 107 l 822 256 b 506 -14 803 85 676 -14 b 138 333 296 -14 169 110 l 42 333 l 42 374 l 132 374 b 129 456 131 400 129 426 l 129 501 l 42 501 l 42 542 l 133 542 b 506 936 157 793 286 936 b 822 667 676 936 803 838 l 782 654 b 506 894 765 815 651 894 b 185 542 314 894 204 769 l 631 542 l 631 501 l 182 501 l 182 463 l 182 456 b 185 374 182 426 183 399 l 506 374 "},"F":{"ha":693,"x_min":0,"x_max":0,"o":"m 536 475 l 147 475 l 147 0 l 96 0 l 96 922 l 665 922 l 665 879 l 147 879 l 147 517 l 536 517 "},"G":{"ha":914,"x_min":0,"x_max":0,"o":"m 779 186 b 464 -14 738 67 631 -14 b 49 458 211 -14 49 167 b 467 936 49 753 211 936 b 828 629 669 936 790 835 l 778 626 b 463 894 744 817 635 894 b 101 467 240 894 101 733 l 101 460 b 465 29 101 192 244 29 b 779 340 663 29 779 176 l 779 368 l 494 368 l 494 408 l 825 408 l 825 0 l 779 0 "},"Ğ":{"ha":914,"x_min":0,"x_max":0,"o":"m 779 186 b 464 -14 738 67 631 -14 b 49 458 211 -14 49 167 b 467 936 49 753 211 936 b 828 629 669 936 790 835 l 778 626 b 463 894 744 817 635 894 b 101 467 240 894 101 733 l 101 460 b 465 29 101 192 244 29 b 779 340 663 29 779 176 l 779 368 l 494 368 l 494 408 l 825 408 l 825 0 l 779 0 m 438 1018 b 274 1178 339 1018 274 1076 l 315 1178 b 438 1056 315 1099 365 1056 b 561 1178 508 1056 561 1099 l 603 1178 b 438 1018 603 1076 536 1018 "},"Ĝ":{"ha":914,"x_min":0,"x_max":0,"o":"m 779 186 b 464 -14 738 67 631 -14 b 49 458 211 -14 49 167 b 467 936 49 753 211 936 b 828 629 669 936 790 835 l 778 626 b 463 894 744 817 635 894 b 101 467 240 894 101 733 l 101 460 b 465 29 101 192 244 29 b 779 340 663 29 779 176 l 779 368 l 494 368 l 494 408 l 825 408 l 825 0 l 779 0 m 588 1018 l 542 1018 l 438 1157 l 333 1018 l 288 1018 l 426 1206 l 449 1206 "},"Ģ":{"ha":914,"x_min":0,"x_max":0,"o":"m 779 186 b 464 -14 738 67 631 -14 b 49 458 211 -14 49 167 b 467 936 49 753 211 936 b 828 629 669 936 790 835 l 778 626 b 463 894 744 817 635 894 b 101 467 240 894 101 733 l 101 460 b 465 29 101 192 244 29 b 779 340 663 29 779 176 l 779 368 l 494 368 l 494 408 l 825 408 l 825 0 l 779 0 m 381 -319 b 440 -231 429 -296 439 -279 l 406 -231 l 406 -121 l 474 -121 l 474 -224 b 388 -337 474 -287 443 -322 "},"Ġ":{"ha":914,"x_min":0,"x_max":0,"o":"m 779 186 b 464 -14 738 67 631 -14 b 49 458 211 -14 49 167 b 467 936 49 753 211 936 b 828 629 669 936 790 835 l 778 626 b 463 894 744 817 635 894 b 101 467 240 894 101 733 l 101 460 b 465 29 101 192 244 29 b 779 340 663 29 779 176 l 779 368 l 494 368 l 494 408 l 825 408 l 825 0 l 779 0 m 469 1026 l 406 1026 l 406 1094 l 469 1094 "},"H":{"ha":886,"x_min":0,"x_max":0,"o":"m 790 0 l 739 0 l 739 449 l 147 449 l 147 0 l 96 0 l 96 922 l 147 922 l 147 492 l 739 492 l 739 922 l 790 922 "},"Ħ":{"ha":914,"x_min":0,"x_max":0,"o":"m 804 715 l 900 715 l 900 675 l 804 675 l 804 0 l 753 0 l 753 393 l 161 393 l 161 0 l 110 0 l 110 675 l 14 675 l 14 715 l 110 715 l 110 922 l 161 922 l 161 715 l 753 715 l 753 922 l 804 922 m 161 436 l 753 436 l 753 675 l 161 675 "},"Ĥ":{"ha":886,"x_min":0,"x_max":0,"o":"m 790 0 l 739 0 l 739 449 l 147 449 l 147 0 l 96 0 l 96 922 l 147 922 l 147 492 l 739 492 l 739 922 l 790 922 m 593 1018 l 547 1018 l 443 1157 l 339 1018 l 293 1018 l 432 1206 l 454 1206 "},"I":{"ha":243,"x_min":0,"x_max":0,"o":"m 147 0 l 96 0 l 96 922 l 147 922 "},"Ĳ":{"ha":858,"x_min":0,"x_max":0,"o":"m 147 0 l 96 0 l 96 922 l 147 922 m 535 -14 b 301 238 382 -14 301 72 l 351 242 b 536 28 351 93 406 28 b 721 238 661 28 721 93 l 721 922 l 772 922 l 772 238 b 535 -14 772 67 694 -14 "},"Í":{"ha":243,"x_min":0,"x_max":0,"o":"m 147 0 l 96 0 l 96 922 l 147 922 m 328 1210 l 149 1018 l 99 1018 l 269 1211 l 328 1211 "},"Ĭ":{"ha":243,"x_min":0,"x_max":0,"o":"m 147 0 l 96 0 l 96 922 l 147 922 m 121 1018 b -43 1178 22 1018 -43 1076 l -1 1178 b 121 1056 -1 1099 49 1056 b 244 1178 192 1056 244 1099 l 286 1178 b 121 1018 286 1076 219 1018 "},"Î":{"ha":243,"x_min":0,"x_max":0,"o":"m 147 0 l 96 0 l 96 922 l 147 922 m 271 1018 l 225 1018 l 121 1157 l 17 1018 l -29 1018 l 110 1206 l 132 1206 "},"Ï":{"ha":243,"x_min":0,"x_max":0,"o":"m 147 0 l 96 0 l 96 922 l 147 922 m 60 1026 l -10 1026 l -10 1094 l 60 1094 m 251 1026 l 182 1026 l 182 1094 l 251 1094 "},"İ":{"ha":243,"x_min":0,"x_max":0,"o":"m 147 0 l 96 0 l 96 922 l 147 922 m 153 1026 l 89 1026 l 89 1094 l 153 1094 "},"Ì":{"ha":243,"x_min":0,"x_max":0,"o":"m 147 0 l 96 0 l 96 922 l 147 922 m -100 1210 l -100 1211 l -43 1211 l 142 1018 l 93 1018 "},"Ī":{"ha":243,"x_min":0,"x_max":0,"o":"m 147 0 l 96 0 l 96 922 l 147 922 m 304 1026 l -62 1026 l -62 1069 l 304 1069 "},"Į":{"ha":243,"x_min":0,"x_max":0,"o":"m 147 0 b 47 -144 97 -37 47 -83 b 118 -215 47 -192 76 -215 b 181 -200 142 -215 158 -210 l 183 -239 b 114 -256 168 -247 142 -256 b 3 -149 51 -256 3 -215 b 96 3 3 -96 33 -46 l 96 922 l 147 922 "},"Ĩ":{"ha":243,"x_min":0,"x_max":0,"o":"m 147 0 l 96 0 l 96 922 l 147 922 m -56 1028 l -51 1056 b 35 1144 -43 1114 -14 1144 b 210 1056 115 1144 149 1056 b 254 1104 232 1056 249 1076 l 260 1135 l 297 1135 l 293 1107 b 207 1018 285 1049 256 1018 b 32 1107 126 1018 93 1107 b -12 1058 10 1107 -7 1086 l -18 1028 "},"J":{"ha":601,"x_min":0,"x_max":0,"o":"m 278 -14 b 44 238 125 -14 44 72 l 94 242 b 279 28 94 93 149 28 b 464 238 404 28 464 93 l 464 922 l 515 922 l 515 238 b 278 -14 515 67 438 -14 "},"Ĵ":{"ha":601,"x_min":0,"x_max":0,"o":"m 278 -14 b 44 238 125 -14 44 72 l 94 242 b 279 28 94 93 149 28 b 464 238 404 28 464 93 l 464 922 l 515 922 l 515 238 b 278 -14 515 67 438 -14 m 639 1018 l 593 1018 l 489 1157 l 385 1018 l 339 1018 l 478 1206 l 500 1206 "},"K":{"ha":789,"x_min":0,"x_max":0,"o":"m 147 363 l 654 922 l 717 922 l 388 561 l 767 0 l 706 0 l 353 525 l 147 300 l 147 0 l 96 0 l 96 922 l 147 922 "},"Ķ":{"ha":788,"x_min":0,"x_max":0,"o":"m 147 363 l 654 922 l 717 922 l 388 561 l 767 0 l 706 0 l 353 525 l 147 300 l 147 0 l 96 0 l 96 922 l 147 922 m 374 -319 b 433 -231 422 -296 432 -279 l 399 -231 l 399 -121 l 467 -121 l 467 -224 b 381 -337 467 -287 436 -322 "},"L":{"ha":658,"x_min":0,"x_max":0,"o":"m 147 46 l 624 46 l 624 0 l 96 0 l 96 922 l 147 922 "},"Ĺ":{"ha":658,"x_min":0,"x_max":0,"o":"m 147 46 l 624 46 l 624 0 l 96 0 l 96 922 l 147 922 m 339 1210 l 146 1018 l 96 1018 l 281 1211 l 339 1211 "},"Ľ":{"ha":658,"x_min":0,"x_max":0,"o":"m 147 46 l 624 46 l 624 0 l 96 0 l 96 922 l 147 922 m 414 922 l 463 922 l 463 914 l 428 704 l 389 704 "},"Ļ":{"ha":658,"x_min":0,"x_max":0,"o":"m 147 46 l 624 46 l 624 0 l 96 0 l 96 922 l 147 922 m 303 -319 b 363 -231 351 -296 361 -279 l 328 -231 l 328 -121 l 396 -121 l 396 -224 b 310 -337 396 -287 365 -322 "},"Ŀ":{"ha":658,"x_min":0,"x_max":0,"o":"m 147 46 l 624 46 l 624 0 l 96 0 l 96 922 l 147 922 m 515 447 l 422 447 l 422 546 l 515 546 "},"Ł":{"ha":664,"x_min":0,"x_max":0,"o":"m 153 472 l 418 657 l 418 604 l 153 421 l 153 47 l 629 47 l 629 0 l 100 0 l 100 385 l 19 329 l 19 381 l 100 436 l 100 922 l 153 922 "},"M":{"ha":1065,"x_min":0,"x_max":0,"o":"m 528 68 l 885 922 l 969 922 l 969 0 l 921 0 l 921 886 l 546 0 l 506 0 l 144 882 l 144 0 l 96 0 l 96 922 l 181 922 "},"N":{"ha":918,"x_min":0,"x_max":0,"o":"m 774 58 l 774 922 l 822 922 l 822 -4 l 764 -4 l 144 871 l 144 0 l 96 0 l 96 922 l 164 922 "},"\u0000":{"ha":0,"x_min":0,"x_max":0,"o":""},"Ń":{"ha":918,"x_min":0,"x_max":0,"o":"m 774 58 l 774 922 l 822 922 l 822 -4 l 764 -4 l 144 871 l 144 0 l 96 0 l 96 922 l 164 922 m 679 1210 l 486 1018 l 436 1018 l 621 1211 l 679 1211 "},"Ň":{"ha":918,"x_min":0,"x_max":0,"o":"m 774 58 l 774 922 l 822 922 l 822 -4 l 764 -4 l 144 871 l 144 0 l 96 0 l 96 922 l 164 922 m 308 1206 l 354 1206 l 458 1067 l 563 1206 l 608 1206 l 469 1018 l 447 1018 "},"Ņ":{"ha":918,"x_min":0,"x_max":0,"o":"m 774 58 l 774 922 l 822 922 l 822 -4 l 764 -4 l 144 871 l 144 0 l 96 0 l 96 922 l 164 922 m 401 -319 b 461 -231 450 -296 460 -279 l 426 -231 l 426 -121 l 494 -121 l 494 -224 b 408 -337 494 -287 464 -322 "},"Ñ":{"ha":918,"x_min":0,"x_max":0,"o":"m 774 58 l 774 922 l 822 922 l 822 -4 l 764 -4 l 144 871 l 144 0 l 96 0 l 96 922 l 164 922 m 282 1028 l 286 1056 b 372 1144 294 1114 324 1144 b 547 1056 453 1144 486 1056 b 592 1104 569 1056 586 1076 l 597 1135 l 635 1135 l 631 1107 b 544 1018 622 1049 593 1018 b 369 1107 464 1018 431 1107 b 325 1058 347 1107 331 1086 l 319 1028 "},"O":{"ha":975,"x_min":0,"x_max":0,"o":"m 485 31 b 875 451 726 31 875 193 l 875 468 b 490 892 875 726 726 892 b 100 471 249 892 100 729 l 100 454 b 485 31 100 196 247 31 m 485 -14 b 47 463 218 -14 47 172 b 490 936 47 753 219 936 b 928 460 756 936 928 750 b 485 -14 928 169 756 -14 "},"Œ":{"ha":1468,"x_min":0,"x_max":0,"o":"m 458 -14 b 47 460 194 -14 47 165 b 464 936 47 754 199 936 b 822 711 640 936 761 854 l 822 922 l 1399 922 l 1399 879 l 874 879 l 874 558 l 1299 558 l 1299 517 l 874 517 l 874 43 l 1440 43 l 1440 0 l 822 0 l 822 208 b 458 -14 761 65 639 -14 m 458 24 b 822 451 694 24 822 185 l 822 488 b 464 899 815 743 689 899 b 99 468 231 899 99 733 l 99 451 b 458 24 99 186 226 24 "},"Ó":{"ha":975,"x_min":0,"x_max":0,"o":"m 485 31 b 875 451 726 31 875 193 l 875 468 b 490 892 875 726 726 892 b 100 471 249 892 100 729 l 100 454 b 485 31 100 196 247 31 m 485 -14 b 47 463 218 -14 47 172 b 490 936 47 753 219 936 b 928 460 756 936 928 750 b 485 -14 928 169 756 -14 m 708 1210 l 515 1018 l 465 1018 l 650 1211 l 708 1211 "},"Ŏ":{"ha":975,"x_min":0,"x_max":0,"o":"m 485 31 b 875 451 726 31 875 193 l 875 468 b 490 892 875 726 726 892 b 100 471 249 892 100 729 l 100 454 b 485 31 100 196 247 31 m 485 -14 b 47 463 218 -14 47 172 b 490 936 47 753 219 936 b 928 460 756 936 928 750 b 485 -14 928 169 756 -14 m 488 1018 b 324 1178 389 1018 324 1076 l 365 1178 b 488 1056 365 1099 415 1056 b 611 1178 558 1056 611 1099 l 653 1178 b 488 1018 653 1076 586 1018 "},"Ô":{"ha":975,"x_min":0,"x_max":0,"o":"m 485 31 b 875 451 726 31 875 193 l 875 468 b 490 892 875 726 726 892 b 100 471 249 892 100 729 l 100 454 b 485 31 100 196 247 31 m 485 -14 b 47 463 218 -14 47 172 b 490 936 47 753 219 936 b 928 460 756 936 928 750 b 485 -14 928 169 756 -14 m 638 1018 l 592 1018 l 488 1157 l 383 1018 l 338 1018 l 476 1206 l 499 1206 "},"Ö":{"ha":975,"x_min":0,"x_max":0,"o":"m 485 31 b 875 451 726 31 875 193 l 875 468 b 490 892 875 726 726 892 b 100 471 249 892 100 729 l 100 454 b 485 31 100 196 247 31 m 485 -14 b 47 463 218 -14 47 172 b 490 936 47 753 219 936 b 928 460 756 936 928 750 b 485 -14 928 169 756 -14 m 417 1026 l 353 1026 l 353 1094 l 417 1094 m 622 1026 l 558 1026 l 558 1094 l 622 1094 "},"Ò":{"ha":975,"x_min":0,"x_max":0,"o":"m 485 31 b 875 451 726 31 875 193 l 875 468 b 490 892 875 726 726 892 b 100 471 249 892 100 729 l 100 454 b 485 31 100 196 247 31 m 485 -14 b 47 463 218 -14 47 172 b 490 936 47 753 219 936 b 928 460 756 936 928 750 b 485 -14 928 169 756 -14 m 324 1211 l 508 1018 l 460 1018 l 267 1210 l 267 1211 "},"Ơ":{"ha":1033,"x_min":0,"x_max":0,"o":"m 485 -14 b 47 463 218 -14 47 172 b 490 936 47 753 219 936 b 846 757 647 936 771 871 b 974 924 892 774 974 822 b 901 1047 974 982 946 1021 l 919 1082 b 1019 925 992 1047 1019 986 b 865 726 1019 814 928 749 b 928 460 906 653 928 563 b 485 -14 928 169 756 -14 m 485 31 b 875 451 726 31 875 193 l 875 468 b 490 892 875 726 726 892 b 100 471 249 892 100 729 l 100 454 b 485 31 100 196 247 31 "},"Ő":{"ha":975,"x_min":0,"x_max":0,"o":"m 485 31 b 875 451 726 31 875 193 l 875 468 b 490 892 875 726 726 892 b 100 471 249 892 100 729 l 100 454 b 485 31 100 196 247 31 m 485 -14 b 47 463 218 -14 47 172 b 490 936 47 753 219 936 b 928 460 756 936 928 750 b 485 -14 928 169 756 -14 m 578 1210 l 413 1018 l 369 1018 l 526 1211 l 578 1211 m 775 1210 l 593 1018 l 550 1018 l 721 1211 l 775 1211 "},"Ō":{"ha":975,"x_min":0,"x_max":0,"o":"m 485 31 b 875 451 726 31 875 193 l 875 468 b 490 892 875 726 726 892 b 100 471 249 892 100 729 l 100 454 b 485 31 100 196 247 31 m 485 -14 b 47 463 218 -14 47 172 b 490 936 47 753 219 936 b 928 460 756 936 928 750 b 485 -14 928 169 756 -14 m 671 1026 l 304 1026 l 304 1069 l 671 1069 "},"Ø":{"ha":975,"x_min":0,"x_max":0,"o":"m 485 -14 b 185 96 363 -14 260 25 l 99 0 l 49 0 l 158 124 b 47 463 88 206 47 322 b 490 936 47 753 219 936 b 792 824 614 936 717 896 l 881 922 l 931 922 l 817 796 b 928 460 888 714 928 599 b 485 -14 928 169 756 -14 m 100 454 b 192 158 100 332 132 232 l 760 789 b 490 892 693 854 601 892 b 100 471 249 892 100 729 l 100 454 m 485 31 b 875 451 726 31 875 193 l 875 468 b 785 760 875 588 843 688 l 217 131 b 485 31 282 67 374 31 "},"Ǿ":{"ha":975,"x_min":0,"x_max":0,"o":"m 485 -14 b 185 96 363 -14 260 25 l 99 0 l 49 0 l 158 124 b 47 463 88 206 47 322 b 490 936 47 753 219 936 b 792 824 614 936 717 896 l 881 922 l 931 922 l 817 796 b 928 460 888 714 928 599 b 485 -14 928 169 756 -14 m 100 454 b 192 158 100 332 132 232 l 760 789 b 490 892 693 854 601 892 b 100 471 249 892 100 729 l 100 454 m 485 31 b 875 451 726 31 875 193 l 875 468 b 785 760 875 588 843 688 l 217 131 b 485 31 282 67 374 31 m 696 1210 l 503 1018 l 453 1018 l 638 1211 l 696 1211 "},"Õ":{"ha":975,"x_min":0,"x_max":0,"o":"m 485 31 b 875 451 726 31 875 193 l 875 468 b 490 892 875 726 726 892 b 100 471 249 892 100 729 l 100 454 b 485 31 100 196 247 31 m 485 -14 b 47 463 218 -14 47 172 b 490 936 47 753 219 936 b 928 460 756 936 928 750 b 485 -14 928 169 756 -14 m 311 1028 l 315 1056 b 401 1144 324 1114 353 1144 b 576 1056 482 1144 515 1056 b 621 1104 599 1056 615 1076 l 626 1135 l 664 1135 l 660 1107 b 574 1018 651 1049 622 1018 b 399 1107 493 1018 460 1107 b 354 1058 376 1107 360 1086 l 349 1028 "},"P":{"ha":767,"x_min":0,"x_max":0,"o":"m 363 922 b 721 658 607 922 721 843 b 356 388 721 463 610 388 l 147 388 l 147 0 l 96 0 l 96 922 m 147 431 l 356 431 b 668 658 575 431 668 492 b 363 879 668 819 581 879 l 147 879 "},"Q":{"ha":975,"x_min":0,"x_max":0,"o":"m 729 -172 b 544 -12 674 -47 621 -12 b 422 -82 475 -12 433 -50 l 381 -82 b 436 -11 390 -54 411 -29 b 47 463 200 10 47 190 b 490 936 47 753 219 936 b 928 460 756 936 928 750 b 624 4 928 224 811 58 b 786 -167 685 -18 735 -72 b 729 -172 779 -167 731 -171 m 485 28 b 875 451 726 28 875 193 l 875 468 b 490 893 875 726 726 893 b 100 471 249 893 100 729 l 100 454 b 485 28 100 196 247 28 "},"R":{"ha":781,"x_min":0,"x_max":0,"o":"m 385 922 b 706 700 597 922 706 856 b 463 449 706 574 643 472 b 736 35 647 404 713 233 l 740 0 l 692 0 l 689 21 b 346 429 658 247 582 429 l 147 429 l 147 0 l 96 0 l 96 922 m 147 472 l 346 472 b 657 699 564 472 657 557 b 394 879 657 832 569 879 l 147 879 "},"Ŕ":{"ha":813,"x_min":0,"x_max":0,"o":"m 385 922 b 706 700 597 922 706 856 b 463 449 706 574 643 472 b 736 35 647 404 713 233 l 740 0 l 692 0 l 689 21 b 346 429 658 247 582 429 l 147 429 l 147 0 l 96 0 l 96 922 m 147 472 l 346 472 b 657 699 564 472 657 557 b 394 879 657 832 569 879 l 147 879 m 635 1210 l 442 1018 l 392 1018 l 576 1211 l 635 1211 "},"Ř":{"ha":813,"x_min":0,"x_max":0,"o":"m 385 922 b 706 700 597 922 706 856 b 463 449 706 574 643 472 b 736 35 647 404 713 233 l 740 0 l 692 0 l 689 21 b 346 429 658 247 582 429 l 147 429 l 147 0 l 96 0 l 96 922 m 147 472 l 346 472 b 657 699 564 472 657 557 b 394 879 657 832 569 879 l 147 879 m 264 1206 l 310 1206 l 414 1067 l 518 1206 l 564 1206 l 425 1018 l 403 1018 "},"Ŗ":{"ha":813,"x_min":0,"x_max":0,"o":"m 385 922 b 706 700 597 922 706 856 b 463 449 706 574 643 472 b 736 35 647 404 713 233 l 740 0 l 692 0 l 689 21 b 346 429 658 247 582 429 l 147 429 l 147 0 l 96 0 l 96 922 m 147 472 l 346 472 b 657 699 564 472 657 557 b 394 879 657 832 569 879 l 147 879 m 364 -319 b 424 -231 413 -296 422 -279 l 389 -231 l 389 -121 l 457 -121 l 457 -224 b 371 -337 457 -287 426 -322 "},"S":{"ha":769,"x_min":0,"x_max":0,"o":"m 406 -14 b 39 285 193 -14 85 76 l 90 285 b 408 28 131 94 240 28 b 664 246 571 28 664 118 b 389 446 664 374 535 418 b 82 688 233 475 82 529 b 369 936 82 822 192 936 b 703 638 549 936 658 860 l 651 638 b 368 894 613 842 503 894 b 132 689 222 894 132 808 b 410 489 132 560 264 515 b 714 247 564 461 714 407 b 406 -14 714 101 604 -14 "},"Ś":{"ha":769,"x_min":0,"x_max":0,"o":"m 406 -14 b 39 285 193 -14 85 76 l 90 285 b 408 28 131 94 240 28 b 664 246 571 28 664 118 b 389 446 664 374 535 418 b 82 688 233 475 82 529 b 369 936 82 822 192 936 b 703 638 549 936 658 860 l 651 638 b 368 894 613 842 503 894 b 132 689 222 894 132 808 b 410 489 132 560 264 515 b 714 247 564 461 714 407 b 406 -14 714 101 604 -14 m 597 1210 l 404 1018 l 354 1018 l 539 1211 l 597 1211 "},"Š":{"ha":769,"x_min":0,"x_max":0,"o":"m 406 -14 b 39 285 193 -14 85 76 l 90 285 b 408 28 131 94 240 28 b 664 246 571 28 664 118 b 389 446 664 374 535 418 b 82 688 233 475 82 529 b 369 936 82 822 192 936 b 703 638 549 936 658 860 l 651 638 b 368 894 613 842 503 894 b 132 689 222 894 132 808 b 410 489 132 560 264 515 b 714 247 564 461 714 407 b 406 -14 714 101 604 -14 m 226 1206 l 272 1206 l 376 1067 l 481 1206 l 526 1206 l 388 1018 l 365 1018 "},"Ş":{"ha":769,"x_min":0,"x_max":0,"o":"m 371 -256 b 293 -239 335 -256 308 -247 l 296 -200 b 371 -217 307 -206 332 -217 b 440 -144 407 -217 440 -190 b 332 -10 440 -92 407 -54 b 39 285 167 10 79 101 l 93 285 b 408 28 133 94 240 28 b 664 246 571 28 664 118 b 389 444 664 374 535 417 b 82 688 233 474 82 522 b 369 936 82 822 192 936 b 703 638 549 936 658 860 l 649 638 b 368 894 610 842 503 894 b 132 689 222 894 132 808 b 410 490 132 560 264 517 b 714 247 564 463 714 414 b 406 -14 714 101 604 -14 l 401 -14 b 486 -147 468 -60 486 -104 b 371 -256 486 -212 435 -256 "},"Ŝ":{"ha":769,"x_min":0,"x_max":0,"o":"m 406 -14 b 39 285 193 -14 85 76 l 90 285 b 408 28 131 94 240 28 b 664 246 571 28 664 118 b 389 446 664 374 535 418 b 82 688 233 475 82 529 b 369 936 82 822 192 936 b 703 638 549 936 658 860 l 651 638 b 368 894 613 842 503 894 b 132 689 222 894 132 808 b 410 489 132 560 264 515 b 714 247 564 461 714 407 b 406 -14 714 101 604 -14 m 526 1018 l 481 1018 l 376 1157 l 272 1018 l 226 1018 l 365 1206 l 388 1206 "},"Ș":{"ha":769,"x_min":0,"x_max":0,"o":"m 406 -14 b 39 285 193 -14 85 76 l 90 285 b 408 28 131 94 240 28 b 664 246 571 28 664 118 b 389 446 664 374 535 418 b 82 688 233 475 82 529 b 369 936 82 822 192 936 b 703 638 549 936 658 860 l 651 638 b 368 894 613 842 503 894 b 132 689 222 894 132 808 b 410 489 132 560 264 515 b 714 247 564 461 714 407 b 406 -14 714 101 604 -14 m 319 -319 b 379 -231 368 -296 378 -279 l 344 -231 l 344 -121 l 413 -121 l 413 -224 b 326 -337 413 -287 382 -322 "},"T":{"ha":746,"x_min":0,"x_max":0,"o":"m 725 879 l 399 879 l 399 0 l 347 0 l 347 879 l 21 879 l 21 922 l 725 922 "},"Ŧ":{"ha":746,"x_min":0,"x_max":0,"o":"m 725 879 l 399 879 l 399 486 l 657 486 l 657 446 l 399 446 l 399 0 l 347 0 l 347 446 l 89 446 l 89 486 l 347 486 l 347 879 l 21 879 l 21 922 l 725 922 "},"Ť":{"ha":746,"x_min":0,"x_max":0,"o":"m 725 879 l 399 879 l 399 0 l 347 0 l 347 879 l 21 879 l 21 922 l 725 922 m 222 1206 l 268 1206 l 372 1067 l 476 1206 l 522 1206 l 383 1018 l 361 1018 "},"Þ":{"ha":767,"x_min":0,"x_max":0,"o":"m 147 728 l 371 728 b 721 464 615 728 721 649 b 369 193 721 268 624 193 l 147 193 l 147 0 l 96 0 l 96 922 l 147 922 m 147 236 l 369 236 b 669 464 589 236 669 297 b 371 685 669 625 589 685 l 147 685 "},"U":{"ha":857,"x_min":0,"x_max":0,"o":"m 433 -14 b 86 326 190 -14 86 93 l 86 922 l 138 922 l 138 333 b 435 28 138 121 221 28 b 722 328 643 28 722 119 l 722 922 l 771 922 l 771 328 b 433 -14 771 93 671 -14 "},"Ú":{"ha":857,"x_min":0,"x_max":0,"o":"m 433 -14 b 86 326 190 -14 86 93 l 86 922 l 138 922 l 138 333 b 435 28 138 121 221 28 b 722 328 643 28 722 119 l 722 922 l 771 922 l 771 328 b 433 -14 771 93 671 -14 m 649 1210 l 456 1018 l 406 1018 l 590 1211 l 649 1211 "},"Ŭ":{"ha":857,"x_min":0,"x_max":0,"o":"m 433 -14 b 86 326 190 -14 86 93 l 86 922 l 138 922 l 138 333 b 435 28 138 121 221 28 b 722 328 643 28 722 119 l 722 922 l 771 922 l 771 328 b 433 -14 771 93 671 -14 m 428 1018 b 264 1178 329 1018 264 1076 l 306 1178 b 428 1056 306 1099 356 1056 b 551 1178 499 1056 551 1099 l 593 1178 b 428 1018 593 1076 526 1018 "},"Û":{"ha":857,"x_min":0,"x_max":0,"o":"m 433 -14 b 86 326 190 -14 86 93 l 86 922 l 138 922 l 138 333 b 435 28 138 121 221 28 b 722 328 643 28 722 119 l 722 922 l 771 922 l 771 328 b 433 -14 771 93 671 -14 m 578 1018 l 532 1018 l 428 1157 l 324 1018 l 278 1018 l 417 1206 l 439 1206 "},"Ü":{"ha":857,"x_min":0,"x_max":0,"o":"m 433 -14 b 86 326 190 -14 86 93 l 86 922 l 138 922 l 138 333 b 435 28 138 121 221 28 b 722 328 643 28 722 119 l 722 922 l 771 922 l 771 328 b 433 -14 771 93 671 -14 m 357 1026 l 293 1026 l 293 1094 l 357 1094 m 563 1026 l 499 1026 l 499 1094 l 563 1094 "},"Ù":{"ha":857,"x_min":0,"x_max":0,"o":"m 433 -14 b 86 326 190 -14 86 93 l 86 922 l 138 922 l 138 333 b 435 28 138 121 221 28 b 722 328 643 28 722 119 l 722 922 l 771 922 l 771 328 b 433 -14 771 93 671 -14 m 264 1211 l 449 1018 l 400 1018 l 207 1210 l 207 1211 "},"Ư":{"ha":999,"x_min":0,"x_max":0,"o":"m 433 -14 b 86 326 190 -14 86 93 l 86 922 l 138 922 l 138 333 b 435 28 138 121 221 28 b 722 328 643 28 722 119 l 722 922 l 771 922 l 771 751 b 939 924 815 756 939 793 b 867 1047 939 982 911 1021 l 885 1082 b 985 925 957 1047 985 986 b 771 718 985 778 836 714 l 771 328 b 433 -14 771 93 671 -14 "},"Ű":{"ha":857,"x_min":0,"x_max":0,"o":"m 433 -14 b 86 326 190 -14 86 93 l 86 922 l 138 922 l 138 333 b 435 28 138 121 221 28 b 722 328 643 28 722 119 l 722 922 l 771 922 l 771 328 b 433 -14 771 93 671 -14 m 518 1210 l 353 1018 l 310 1018 l 467 1211 l 518 1211 m 715 1210 l 533 1018 l 490 1018 l 661 1211 l 715 1211 "},"Ū":{"ha":857,"x_min":0,"x_max":0,"o":"m 433 -14 b 86 326 190 -14 86 93 l 86 922 l 138 922 l 138 333 b 435 28 138 121 221 28 b 722 328 643 28 722 119 l 722 922 l 771 922 l 771 328 b 433 -14 771 93 671 -14 m 611 1026 l 244 1026 l 244 1069 l 611 1069 "},"Ų":{"ha":857,"x_min":0,"x_max":0,"o":"m 526 -256 b 414 -151 463 -256 414 -217 b 499 -10 414 -110 435 -58 b 433 -14 478 -12 456 -14 b 86 326 190 -14 86 93 l 86 922 l 138 922 l 138 333 b 435 28 138 121 221 28 b 722 328 643 28 722 119 l 722 922 l 771 922 l 771 328 b 583 6 771 150 714 46 b 460 -150 510 -33 460 -92 b 531 -215 460 -193 489 -215 b 597 -200 560 -215 586 -204 l 600 -239 b 526 -256 585 -247 556 -256 "},"Ů":{"ha":857,"x_min":0,"x_max":0,"o":"m 433 -14 b 86 326 190 -14 86 93 l 86 922 l 138 922 l 138 333 b 435 28 138 121 221 28 b 722 328 643 28 722 119 l 722 922 l 771 922 l 771 328 b 433 -14 771 93 671 -14 m 429 1050 b 501 1122 472 1050 501 1083 b 429 1196 501 1161 472 1196 b 358 1122 386 1196 358 1161 b 429 1050 358 1083 386 1050 m 429 1017 b 322 1122 363 1017 322 1064 b 429 1228 322 1181 363 1228 b 538 1122 494 1228 538 1181 b 429 1017 538 1064 494 1017 "},"Ũ":{"ha":857,"x_min":0,"x_max":0,"o":"m 433 -14 b 86 326 190 -14 86 93 l 86 922 l 138 922 l 138 333 b 435 28 138 121 221 28 b 722 328 643 28 722 119 l 722 922 l 771 922 l 771 328 b 433 -14 771 93 671 -14 m 251 1028 l 256 1056 b 342 1144 264 1114 293 1144 b 517 1056 422 1144 456 1056 b 561 1104 539 1056 556 1076 l 567 1135 l 604 1135 l 600 1107 b 514 1018 592 1049 563 1018 b 339 1107 433 1018 400 1107 b 294 1058 317 1107 300 1086 l 289 1028 "},"V":{"ha":840,"x_min":0,"x_max":0,"o":"m 94 922 l 422 60 l 749 922 l 800 922 l 440 0 l 394 0 l 40 922 "},"W":{"ha":1264,"x_min":0,"x_max":0,"o":"m 50 922 l 103 922 l 325 83 l 604 922 l 644 922 l 922 81 l 1163 922 l 1214 922 l 942 0 l 899 0 l 624 840 l 340 0 l 297 0 "},"Ẃ":{"ha":1264,"x_min":0,"x_max":0,"o":"m 50 922 l 103 922 l 325 83 l 604 922 l 644 922 l 922 81 l 1163 922 l 1214 922 l 942 0 l 899 0 l 624 840 l 340 0 l 297 0 m 853 1210 l 660 1018 l 610 1018 l 794 1211 l 853 1211 "},"Ŵ":{"ha":1264,"x_min":0,"x_max":0,"o":"m 50 922 l 103 922 l 325 83 l 604 922 l 644 922 l 922 81 l 1163 922 l 1214 922 l 942 0 l 899 0 l 624 840 l 340 0 l 297 0 m 782 1018 l 736 1018 l 632 1157 l 528 1018 l 482 1018 l 621 1206 l 643 1206 "},"Ẅ":{"ha":1264,"x_min":0,"x_max":0,"o":"m 50 922 l 103 922 l 325 83 l 604 922 l 644 922 l 922 81 l 1163 922 l 1214 922 l 942 0 l 899 0 l 624 840 l 340 0 l 297 0 m 561 1026 l 497 1026 l 497 1094 l 561 1094 m 767 1026 l 703 1026 l 703 1094 l 767 1094 "},"Ẁ":{"ha":1264,"x_min":0,"x_max":0,"o":"m 50 922 l 103 922 l 325 83 l 604 922 l 644 922 l 922 81 l 1163 922 l 1214 922 l 942 0 l 899 0 l 624 840 l 340 0 l 297 0 m 468 1211 l 653 1018 l 604 1018 l 411 1210 l 411 1211 "},"X":{"ha":728,"x_min":0,"x_max":0,"o":"m 679 922 l 394 475 l 693 0 l 636 0 l 367 439 l 89 0 l 35 0 l 340 474 l 60 922 l 117 922 l 368 511 l 625 922 m 365 482 l 364 479 l 367 475 l 369 478 "},"Y":{"ha":757,"x_min":0,"x_max":0,"o":"m 721 922 l 399 439 l 399 0 l 347 0 l 347 442 l 36 922 l 90 922 l 374 483 l 667 922 "},"Ý":{"ha":757,"x_min":0,"x_max":0,"o":"m 721 922 l 399 439 l 399 0 l 347 0 l 347 442 l 36 922 l 90 922 l 374 483 l 667 922 m 599 1210 l 406 1018 l 356 1018 l 540 1211 l 599 1211 "},"Ŷ":{"ha":757,"x_min":0,"x_max":0,"o":"m 721 922 l 399 439 l 399 0 l 347 0 l 347 442 l 36 922 l 90 922 l 374 483 l 667 922 m 528 1018 l 482 1018 l 378 1157 l 274 1018 l 228 1018 l 367 1206 l 389 1206 "},"Ÿ":{"ha":757,"x_min":0,"x_max":0,"o":"m 721 922 l 399 439 l 399 0 l 347 0 l 347 442 l 36 922 l 90 922 l 374 483 l 667 922 m 307 1026 l 243 1026 l 243 1094 l 307 1094 m 513 1026 l 449 1026 l 449 1094 l 513 1094 "},"Ỳ":{"ha":757,"x_min":0,"x_max":0,"o":"m 721 922 l 399 439 l 399 0 l 347 0 l 347 442 l 36 922 l 90 922 l 374 483 l 667 922 m 214 1211 l 399 1018 l 350 1018 l 157 1210 l 157 1211 "},"Z":{"ha":781,"x_min":0,"x_max":0,"o":"m 79 878 l 79 922 l 714 922 l 714 883 l 111 44 l 724 44 l 724 0 l 50 0 l 50 39 l 653 878 "},"Ź":{"ha":781,"x_min":0,"x_max":0,"o":"m 79 878 l 79 922 l 714 922 l 714 883 l 111 44 l 724 44 l 724 0 l 50 0 l 50 39 l 653 878 m 607 1210 l 414 1018 l 364 1018 l 549 1211 l 607 1211 "},"Ž":{"ha":781,"x_min":0,"x_max":0,"o":"m 79 878 l 79 922 l 714 922 l 714 883 l 111 44 l 724 44 l 724 0 l 50 0 l 50 39 l 653 878 m 236 1206 l 282 1206 l 386 1067 l 490 1206 l 536 1206 l 397 1018 l 375 1018 "},"Ż":{"ha":781,"x_min":0,"x_max":0,"o":"m 79 878 l 79 922 l 714 922 l 714 883 l 111 44 l 724 44 l 724 0 l 50 0 l 50 39 l 653 878 m 418 1026 l 354 1026 l 354 1094 l 418 1094 "},"a":{"ha":640,"x_min":0,"x_max":0,"o":"m 263 -14 b 46 169 125 -14 46 63 b 286 371 46 306 165 343 b 510 458 381 393 476 407 l 510 464 b 324 631 510 576 453 631 b 115 467 208 631 117 592 l 115 463 l 65 463 b 324 669 65 608 178 669 b 558 457 482 669 558 597 l 558 49 l 561 0 l 508 0 l 508 138 b 263 -14 450 17 349 -14 m 263 28 b 510 214 393 28 471 96 l 510 413 b 292 333 474 367 381 353 b 97 171 192 311 97 279 b 263 28 97 86 154 28 "},"á":{"ha":640,"x_min":0,"x_max":0,"o":"m 263 -14 b 46 169 125 -14 46 63 b 286 371 46 306 165 343 b 510 458 381 393 476 407 l 510 464 b 324 631 510 576 453 631 b 115 467 208 631 117 592 l 115 463 l 65 463 b 324 669 65 608 178 669 b 558 457 482 669 558 597 l 558 49 l 561 0 l 508 0 l 508 138 b 263 -14 450 17 349 -14 m 263 28 b 510 214 393 28 471 96 l 510 413 b 292 333 474 367 381 353 b 97 171 192 311 97 279 b 263 28 97 86 154 28 m 543 972 l 350 781 l 301 781 l 486 974 l 543 974 "},"ă":{"ha":640,"x_min":0,"x_max":0,"o":"m 263 -14 b 46 169 125 -14 46 63 b 286 371 46 306 165 343 b 510 458 381 393 476 407 l 510 464 b 324 631 510 576 453 631 b 115 467 208 631 117 592 l 115 463 l 65 463 b 324 669 65 608 178 669 b 558 457 482 669 558 597 l 558 49 l 561 0 l 508 0 l 508 138 b 263 -14 450 17 349 -14 m 263 28 b 510 214 393 28 471 96 l 510 413 b 292 333 474 367 381 353 b 97 171 192 311 97 279 b 263 28 97 86 154 28 m 322 781 b 161 947 219 781 161 840 l 201 947 b 322 818 201 864 244 818 b 443 947 400 818 443 864 l 483 947 b 322 781 483 840 425 781 "},"â":{"ha":640,"x_min":0,"x_max":0,"o":"m 263 -14 b 46 169 125 -14 46 63 b 286 371 46 306 165 343 b 510 458 381 393 476 407 l 510 464 b 324 631 510 576 453 631 b 115 467 208 631 117 592 l 115 463 l 65 463 b 324 669 65 608 178 669 b 558 457 482 669 558 597 l 558 49 l 561 0 l 508 0 l 508 138 b 263 -14 450 17 349 -14 m 263 28 b 510 214 393 28 471 96 l 510 413 b 292 333 474 367 381 353 b 97 171 192 311 97 279 b 263 28 97 86 154 28 m 468 781 l 422 781 l 322 914 l 222 781 l 176 781 l 313 968 l 332 968 "},"´":{"ha":381,"x_min":0,"x_max":0,"o":"m 311 972 l 118 781 l 69 781 l 254 974 l 311 974 "},"ä":{"ha":640,"x_min":0,"x_max":0,"o":"m 263 -14 b 46 169 125 -14 46 63 b 286 371 46 306 165 343 b 510 458 381 393 476 407 l 510 464 b 324 631 510 576 453 631 b 115 467 208 631 117 592 l 115 463 l 65 463 b 324 669 65 608 178 669 b 558 457 482 669 558 597 l 558 49 l 561 0 l 508 0 l 508 138 b 263 -14 450 17 349 -14 m 263 28 b 510 214 393 28 471 96 l 510 413 b 292 333 474 367 381 353 b 97 171 192 311 97 279 b 263 28 97 86 154 28 m 264 785 l 200 785 l 200 853 l 264 853 m 444 785 l 381 785 l 381 853 l 444 853 "},"æ":{"ha":1136,"x_min":0,"x_max":0,"o":"m 792 -14 b 515 154 665 -14 565 47 b 258 -14 449 18 338 -14 b 46 169 121 -14 46 63 b 282 374 46 306 161 346 b 503 461 378 396 471 410 b 319 632 501 578 447 632 b 113 467 199 632 114 593 l 113 463 l 65 463 b 319 669 65 608 174 669 b 533 521 456 669 518 615 b 790 669 585 613 672 669 b 1078 333 968 669 1078 543 l 1078 317 l 526 317 b 792 26 529 150 624 26 b 1046 193 943 26 1013 104 l 1086 179 b 792 -14 1051 78 965 -14 m 790 631 b 526 356 638 631 536 519 l 1026 356 b 790 631 1025 526 936 631 m 258 26 b 499 203 385 26 458 92 b 489 404 482 261 478 329 b 96 171 396 322 96 357 b 258 26 96 86 149 26 m 513 492 b 514 504 514 496 514 500 "},"ǽ":{"ha":1136,"x_min":0,"x_max":0,"o":"m 792 -14 b 515 154 665 -14 565 47 b 258 -14 449 18 338 -14 b 46 169 121 -14 46 63 b 282 374 46 306 161 346 b 503 461 378 396 471 410 b 319 632 501 578 447 632 b 113 467 199 632 114 593 l 113 463 l 65 463 b 319 669 65 608 174 669 b 533 521 456 669 518 615 b 790 669 585 613 672 669 b 1078 333 968 669 1078 543 l 1078 317 l 526 317 b 792 26 529 150 624 26 b 1046 193 943 26 1013 104 l 1086 179 b 792 -14 1051 78 965 -14 m 790 631 b 526 356 638 631 536 519 l 1026 356 b 790 631 1025 526 936 631 m 258 26 b 499 203 385 26 458 92 b 489 404 482 261 478 329 b 96 171 396 322 96 357 b 258 26 96 86 149 26 m 513 492 b 514 504 514 496 514 500 m 774 972 l 581 781 l 532 781 l 717 974 l 774 974 "},"à":{"ha":640,"x_min":0,"x_max":0,"o":"m 263 -14 b 46 169 125 -14 46 63 b 286 371 46 306 165 343 b 510 458 381 393 476 407 l 510 464 b 324 631 510 576 453 631 b 115 467 208 631 117 592 l 115 463 l 65 463 b 324 669 65 608 178 669 b 558 457 482 669 558 597 l 558 49 l 561 0 l 508 0 l 508 138 b 263 -14 450 17 349 -14 m 263 28 b 510 214 393 28 471 96 l 510 413 b 292 333 474 367 381 353 b 97 171 192 311 97 279 b 263 28 97 86 154 28 m 171 974 l 356 781 l 307 781 l 114 972 l 114 974 "},"ā":{"ha":640,"x_min":0,"x_max":0,"o":"m 263 -14 b 46 169 125 -14 46 63 b 286 371 46 306 165 343 b 510 458 381 393 476 407 l 510 464 b 324 631 510 576 453 631 b 115 467 208 631 117 592 l 115 463 l 65 463 b 324 669 65 608 178 669 b 558 457 482 669 558 597 l 558 49 l 561 0 l 508 0 l 508 138 b 263 -14 450 17 349 -14 m 263 28 b 510 214 393 28 471 96 l 510 413 b 292 333 474 367 381 353 b 97 171 192 311 97 279 b 263 28 97 86 154 28 m 506 789 l 139 789 l 139 829 l 506 829 "},"&":{"ha":994,"x_min":0,"x_max":0,"o":"m 347 -14 b 58 250 179 -14 58 96 b 371 556 58 438 221 521 b 307 742 329 617 307 671 b 504 936 307 851 393 936 b 692 760 614 936 692 864 b 442 535 692 636 613 576 b 531 431 467 504 496 471 l 700 228 b 903 604 778 326 843 456 l 944 604 b 728 194 886 447 815 304 l 892 0 l 835 0 l 700 161 b 347 -14 604 53 488 -14 m 497 401 b 396 522 457 447 424 488 b 108 251 258 488 108 422 b 347 28 108 124 211 28 b 672 193 475 28 582 89 l 667 201 l 497 401 m 353 742 b 418 567 353 674 375 624 b 644 760 572 606 644 649 b 504 896 644 838 582 896 b 353 742 418 896 353 828 "},"ą":{"ha":640,"x_min":0,"x_max":0,"o":"m 504 -256 b 388 -151 436 -256 388 -214 b 508 10 388 -93 424 -43 l 508 138 b 263 -14 450 17 349 -14 b 46 169 125 -14 46 63 b 286 371 46 306 165 343 b 510 458 381 393 476 407 l 510 464 b 324 631 510 576 453 631 b 115 467 208 631 117 592 l 115 463 l 65 463 b 324 669 65 608 178 669 b 558 457 482 669 558 597 l 558 49 l 561 0 l 560 0 b 433 -149 488 -39 433 -87 b 507 -215 433 -192 463 -215 b 571 -200 533 -215 560 -204 l 574 -239 b 504 -256 558 -247 531 -256 m 263 28 b 510 214 393 28 471 96 l 510 413 b 292 333 474 367 381 353 b 97 171 192 311 97 279 b 263 28 97 86 154 28 "},"å":{"ha":640,"x_min":0,"x_max":0,"o":"m 263 -14 b 46 169 125 -14 46 63 b 286 371 46 306 165 343 b 510 458 381 393 476 407 l 510 464 b 324 631 510 576 453 631 b 115 467 208 631 117 592 l 115 463 l 65 463 b 324 669 65 608 178 669 b 558 457 482 669 558 597 l 558 49 l 561 0 l 508 0 l 508 138 b 263 -14 450 17 349 -14 m 263 28 b 510 214 393 28 471 96 l 510 413 b 292 333 474 367 381 353 b 97 171 192 311 97 279 b 263 28 97 86 154 28 m 322 813 b 394 885 365 813 394 846 b 322 958 394 924 365 958 b 251 885 279 958 251 924 b 322 813 251 846 279 813 m 322 781 b 217 885 257 781 217 826 b 322 990 217 943 257 990 b 429 885 388 990 429 943 b 322 781 429 826 388 781 "},"ǻ":{"ha":640,"x_min":0,"x_max":0,"o":"m 263 -14 b 46 169 125 -14 46 63 b 286 371 46 306 165 343 b 511 461 382 393 479 407 l 511 464 b 324 632 511 578 453 632 b 111 467 203 632 113 593 l 111 463 l 65 463 b 324 669 65 608 178 669 b 557 457 482 669 557 597 l 557 47 l 560 0 l 510 0 l 510 138 b 263 -14 451 17 349 -14 m 263 26 b 511 213 393 26 472 96 l 511 417 b 292 335 476 368 382 356 b 94 171 190 311 94 279 b 263 26 94 86 153 26 m 322 781 b 217 885 257 781 217 826 b 319 990 217 942 256 989 l 401 1138 l 457 1138 l 457 1136 l 356 985 b 429 885 401 972 429 932 b 322 781 429 826 388 781 m 322 813 b 394 885 365 813 394 846 b 322 958 394 924 365 958 b 251 885 279 958 251 924 b 322 813 251 846 279 813 m 521 490 b 522 503 522 494 522 499 "},"←":{"ha":1631,"x_min":0,"x_max":0,"o":"m 457 718 l 464 710 l 274 485 l 1110 485 l 1301 681 l 1588 681 l 1390 483 l 1513 485 l 1513 443 l 1394 446 l 1589 249 l 1301 249 l 1113 443 l 276 443 l 464 219 l 457 211 l 24 460 l 24 471 "},"→":{"ha":1631,"x_min":0,"x_max":0,"o":"m 518 443 l 329 249 l 42 249 l 236 446 l 118 443 l 118 485 l 240 483 l 43 681 l 329 681 l 521 485 l 1357 485 l 1167 710 l 1174 718 l 1607 471 l 1607 460 l 1174 211 l 1167 219 l 1354 443 "},"^":{"ha":585,"x_min":0,"x_max":0,"o":"m 282 922 l 303 922 l 490 296 l 449 296 l 292 819 l 136 296 l 94 296 "},"~":{"ha":581,"x_min":0,"x_max":0,"o":"m 72 442 b 182 553 83 517 121 553 b 404 438 286 553 326 438 b 464 504 433 438 457 468 l 471 543 l 519 543 l 514 507 b 404 396 503 432 465 396 b 182 511 300 396 260 511 b 122 444 153 511 129 481 l 115 406 l 67 406 "},"*":{"ha":406,"x_min":0,"x_max":0,"o":"m 14 631 l 174 717 l 15 800 l 36 836 l 190 740 l 183 922 l 225 922 l 219 739 l 369 836 l 390 800 l 232 717 l 392 631 l 371 594 l 219 692 l 225 510 l 183 510 l 190 692 l 33 594 "},"@":{"ha":1040,"x_min":0,"x_max":0,"o":"m 457 72 b 282 254 353 72 282 147 b 522 539 282 415 390 539 b 679 428 603 539 658 496 l 706 531 l 751 531 l 693 314 b 668 188 678 258 667 218 b 747 108 668 135 685 108 b 963 394 863 108 963 225 b 557 758 963 606 799 758 b 76 269 267 758 76 563 b 497 -132 76 19 238 -132 b 832 -3 624 -132 740 -92 l 858 -29 b 497 -169 761 -125 633 -169 b 38 268 217 -169 38 0 b 556 796 38 583 244 796 b 1001 394 824 796 1001 631 b 746 72 1001 206 883 72 b 626 168 665 72 631 108 b 457 72 585 111 524 72 m 461 111 b 651 361 572 111 651 232 b 524 500 651 443 603 500 b 329 254 411 500 329 393 b 461 111 329 167 383 111 "},"ã":{"ha":640,"x_min":0,"x_max":0,"o":"m 263 -14 b 46 169 125 -14 46 63 b 286 371 46 306 165 343 b 510 458 381 393 476 407 l 510 464 b 324 631 510 576 453 631 b 115 467 208 631 117 592 l 115 463 l 65 463 b 324 669 65 608 178 669 b 558 457 482 669 558 597 l 558 49 l 561 0 l 508 0 l 508 138 b 263 -14 450 17 349 -14 m 263 28 b 510 214 393 28 471 96 l 510 413 b 292 333 474 367 381 353 b 97 171 192 311 97 279 b 263 28 97 86 154 28 m 150 819 b 235 913 160 881 186 913 b 408 818 317 913 353 818 b 457 871 436 818 447 833 l 463 903 l 499 903 l 494 874 b 410 781 486 815 460 781 b 235 875 328 781 292 875 b 188 824 208 875 194 860 l 182 790 l 146 790 "},"b":{"ha":738,"x_min":0,"x_max":0,"o":"m 389 -14 b 138 149 272 -14 183 49 l 138 0 l 92 0 l 92 936 l 138 936 l 138 507 b 389 669 183 607 272 669 b 694 329 575 669 694 535 l 694 328 b 389 -14 694 122 574 -14 m 386 26 b 644 321 547 26 644 143 l 644 335 b 386 629 644 513 547 629 b 136 333 229 629 136 510 l 136 322 b 386 26 136 149 231 26 "},"\\":{"ha":492,"x_min":0,"x_max":0,"o":"m 478 0 l 428 0 l 14 922 l 64 922 "},"|":{"ha":179,"x_min":0,"x_max":0,"o":"m 114 -239 l 65 -239 l 65 922 l 114 922 "},"{":{"ha":468,"x_min":0,"x_max":0,"o":"m 363 -239 b 167 -18 213 -239 167 -187 l 167 190 b 24 321 167 289 111 321 l 11 321 l 11 363 l 24 363 b 167 479 103 363 167 369 l 167 678 b 363 921 167 842 199 915 l 432 922 l 432 878 l 363 876 b 218 678 239 872 218 814 l 218 479 b 121 340 218 394 186 356 b 218 190 185 324 218 281 l 218 -14 b 363 -194 218 -156 250 -194 l 432 -194 l 432 -239 "},"}":{"ha":468,"x_min":0,"x_max":0,"o":"m 106 -194 b 250 -14 218 -194 250 -156 l 250 190 b 346 340 250 281 283 324 b 250 479 282 356 250 394 l 250 678 b 106 876 250 814 229 874 l 36 878 l 36 922 l 106 921 b 301 678 269 918 301 842 l 301 479 b 444 363 301 369 365 363 l 457 363 l 457 321 l 444 321 b 301 190 357 321 301 289 l 301 -18 b 106 -239 301 -187 256 -239 l 36 -239 l 36 -194 "},"[":{"ha":378,"x_min":0,"x_max":0,"o":"m 354 879 l 114 879 l 114 -196 l 354 -196 l 354 -239 l 65 -239 l 65 922 l 354 922 "},"]":{"ha":378,"x_min":0,"x_max":0,"o":"m 264 879 l 24 879 l 24 922 l 313 922 l 313 -239 l 24 -239 l 24 -196 l 264 -196 "},"˘":{"ha":461,"x_min":0,"x_max":0,"o":"m 231 781 b 69 947 128 781 69 840 l 110 947 b 231 818 110 864 153 818 b 351 947 308 818 351 864 l 392 947 b 231 781 392 840 333 781 "},"¦":{"ha":179,"x_min":0,"x_max":0,"o":"m 114 -239 l 65 -239 l 65 254 l 114 254 m 114 399 l 65 399 l 65 922 l 114 922 "},"•":{"ha":397,"x_min":0,"x_max":0,"o":"m 313 268 l 85 268 l 85 482 l 313 482 "},"c":{"ha":696,"x_min":0,"x_max":0,"o":"m 364 -14 b 43 328 174 -14 43 126 b 364 669 43 533 172 669 b 660 438 526 669 631 575 l 613 429 b 364 631 588 547 503 631 b 93 331 196 631 93 514 l 93 325 b 364 26 93 146 196 26 b 613 226 503 26 588 108 l 660 218 b 364 -14 629 78 526 -14 "},"ć":{"ha":696,"x_min":0,"x_max":0,"o":"m 364 -14 b 43 328 174 -14 43 126 b 364 669 43 533 172 669 b 660 438 526 669 631 575 l 613 429 b 364 631 588 547 503 631 b 93 331 196 631 93 514 l 93 325 b 364 26 93 146 196 26 b 613 226 503 26 588 108 l 660 218 b 364 -14 629 78 526 -14 m 588 972 l 394 781 l 346 781 l 531 974 l 588 974 "},"ˇ":{"ha":431,"x_min":0,"x_max":0,"o":"m 215 833 l 315 968 l 361 968 l 225 781 l 206 781 l 69 968 l 115 968 "},"č":{"ha":696,"x_min":0,"x_max":0,"o":"m 364 -14 b 43 328 174 -14 43 126 b 364 669 43 533 172 669 b 660 438 526 669 631 575 l 613 429 b 364 631 588 547 503 631 b 93 331 196 631 93 514 l 93 325 b 364 26 93 146 196 26 b 613 226 503 26 588 108 l 660 218 b 364 -14 629 78 526 -14 m 367 833 l 467 968 l 513 968 l 376 781 l 357 781 l 221 968 l 267 968 "},"ç":{"ha":696,"x_min":0,"x_max":0,"o":"m 340 -256 b 263 -239 304 -256 278 -247 l 265 -200 b 340 -217 276 -206 301 -217 b 410 -144 376 -217 410 -190 b 299 -8 410 -92 375 -53 b 43 328 144 19 43 150 b 364 669 43 533 172 669 b 660 438 526 669 631 575 l 613 429 b 364 631 588 547 503 631 b 93 331 196 631 93 514 l 93 325 b 364 26 93 146 196 26 b 613 226 503 26 588 108 l 660 218 b 371 -14 629 79 529 -11 b 456 -147 438 -60 456 -104 b 340 -256 456 -212 404 -256 "},"ĉ":{"ha":696,"x_min":0,"x_max":0,"o":"m 364 -14 b 43 328 174 -14 43 126 b 364 669 43 533 172 669 b 660 438 526 669 631 575 l 613 429 b 364 631 588 547 503 631 b 93 331 196 631 93 514 l 93 325 b 364 26 93 146 196 26 b 613 226 503 26 588 108 l 660 218 b 364 -14 629 78 526 -14 m 513 781 l 467 781 l 367 914 l 267 781 l 221 781 l 357 968 l 376 968 "},"ċ":{"ha":696,"x_min":0,"x_max":0,"o":"m 364 -14 b 43 328 174 -14 43 126 b 364 669 43 533 172 669 b 660 438 526 669 631 575 l 613 429 b 364 631 588 547 503 631 b 93 331 196 631 93 514 l 93 325 b 364 26 93 146 196 26 b 613 226 503 26 588 108 l 660 218 b 364 -14 629 78 526 -14 m 399 785 l 335 785 l 335 853 l 399 853 "},"¸":{"ha":332,"x_min":0,"x_max":0,"o":"m 147 -256 b 69 -239 111 -256 85 -247 l 72 -200 b 147 -217 83 -206 108 -217 b 217 -144 183 -217 217 -190 b 99 -4 217 -90 181 -51 l 119 21 b 263 -147 235 -39 263 -94 b 147 -256 263 -212 211 -256 "},"¢":{"ha":703,"x_min":0,"x_max":0,"o":"m 488 700 b 660 490 579 665 639 589 l 615 482 b 472 663 597 565 549 631 l 267 94 b 364 79 296 85 328 79 b 615 279 503 79 590 161 l 660 271 b 364 39 629 131 526 39 b 253 56 324 39 286 44 l 203 -81 l 163 -81 l 217 71 b 43 381 110 124 43 236 b 364 722 43 586 172 722 b 451 711 394 722 424 718 l 497 842 l 538 842 m 90 378 b 231 108 90 251 142 156 l 436 674 b 364 683 414 679 390 683 b 90 383 196 683 90 567 l 90 378 "},"ˆ":{"ha":431,"x_min":0,"x_max":0,"o":"m 361 781 l 315 781 l 215 914 l 115 781 l 69 781 l 206 968 l 225 968 "},":":{"ha":263,"x_min":0,"x_max":0,"o":"m 178 0 l 85 0 l 85 99 l 178 99 m 178 392 l 85 392 l 85 490 l 178 490 "},",":{"ha":265,"x_min":0,"x_max":0,"o":"m 54 -146 b 140 3 122 -112 140 -82 l 88 3 l 88 99 l 181 99 l 181 10 b 58 -165 181 -94 138 -144 "},"©":{"ha":910,"x_min":0,"x_max":0,"o":"m 453 342 b 267 553 351 342 267 419 b 453 765 267 694 353 765 b 626 607 539 765 613 732 l 581 607 b 453 725 568 717 506 725 b 313 558 376 725 313 674 l 313 550 b 453 382 313 433 388 382 b 583 507 515 382 571 397 l 628 507 b 453 342 614 379 538 342 m 453 211 b 806 554 664 211 806 350 b 453 904 806 763 663 904 b 104 554 246 904 104 764 b 453 211 104 350 247 211 m 453 172 b 60 554 221 172 60 328 b 453 943 60 786 219 943 b 850 554 688 943 850 785 b 453 172 850 328 689 172 "},"¤":{"ha":894,"x_min":0,"x_max":0,"o":"m 449 169 b 256 232 365 169 301 192 l 132 115 l 90 147 l 228 261 b 172 449 190 310 172 374 b 225 631 172 521 190 583 l 88 746 l 129 778 l 251 661 b 450 729 297 704 364 729 b 644 663 535 729 599 706 l 765 778 l 807 746 l 672 633 b 725 449 707 586 725 522 b 668 261 725 374 706 308 l 804 147 l 763 115 l 640 232 b 449 169 594 192 531 169 m 449 210 b 679 447 607 210 679 303 l 679 451 b 450 689 679 594 608 689 b 218 451 290 689 218 594 l 218 447 b 449 210 218 303 289 210 "},"d":{"ha":738,"x_min":0,"x_max":0,"o":"m 349 -14 b 43 328 164 -14 43 121 b 349 669 43 535 163 669 b 600 507 465 669 554 607 l 600 936 l 646 936 l 646 0 l 600 0 l 600 149 b 349 -14 554 49 465 -14 m 351 26 b 601 322 507 26 601 149 l 601 333 b 351 629 601 510 508 629 b 93 335 190 629 93 513 l 93 321 b 351 26 93 143 190 26 "},"†":{"ha":606,"x_min":0,"x_max":0,"o":"m 278 356 l 278 636 l 42 622 l 40 622 l 40 679 l 42 679 l 279 665 l 278 922 l 325 922 l 324 665 l 561 679 l 563 679 l 563 622 l 561 622 l 325 636 l 325 356 l 304 -14 l 299 -14 "},"‡":{"ha":603,"x_min":0,"x_max":0,"o":"m 68 310 l 68 367 l 69 367 l 279 353 l 279 608 l 42 594 l 40 594 b 40 651 40 594 39 651 l 42 651 l 278 638 l 278 922 l 325 922 l 325 638 l 561 651 l 563 651 l 563 594 l 561 594 l 324 608 l 324 353 l 533 367 l 535 367 l 535 310 l 533 310 l 325 324 l 325 0 l 278 0 l 278 324 l 69 310 "},"ď":{"ha":788,"x_min":0,"x_max":0,"o":"m 349 -14 b 43 328 164 -14 43 121 b 349 669 43 535 163 669 b 600 507 465 669 554 607 l 600 936 l 646 936 l 646 0 l 600 0 l 600 149 b 349 -14 554 49 465 -14 m 351 26 b 601 322 507 26 601 149 l 601 333 b 351 629 601 510 508 629 b 93 335 190 629 93 513 l 93 321 b 351 26 93 143 190 26 m 751 936 l 800 936 l 800 928 l 765 718 l 726 718 "},"đ":{"ha":742,"x_min":0,"x_max":0,"o":"m 742 783 l 646 783 l 646 0 l 600 0 l 600 149 b 349 -14 554 49 465 -14 b 43 328 164 -14 43 121 b 349 669 43 535 163 669 b 600 507 465 669 554 607 l 600 783 l 442 783 l 442 824 l 600 824 l 600 936 l 646 936 l 646 824 l 742 824 m 351 26 b 601 322 507 26 601 149 l 601 333 b 351 629 601 510 508 629 b 93 335 190 629 93 513 l 93 321 b 351 26 93 143 190 26 "},"°":{"ha":451,"x_min":0,"x_max":0,"o":"m 224 567 b 381 731 319 567 381 635 l 381 736 b 229 899 381 831 321 899 b 71 736 133 899 71 829 l 71 731 b 224 567 71 636 131 567 m 224 529 b 24 733 103 529 24 615 b 229 936 24 850 106 936 b 428 733 349 936 428 850 b 224 529 428 615 344 529 "},"¨":{"ha":383,"x_min":0,"x_max":0,"o":"m 138 789 l 69 789 l 69 856 l 138 856 m 314 789 l 246 789 l 246 856 l 314 856 "},"÷":{"ha":631,"x_min":0,"x_max":0,"o":"m 357 119 l 272 119 l 272 207 l 357 207 m 357 522 l 272 522 l 272 610 l 357 610 m 568 344 l 63 344 l 63 386 l 568 386 "},"$":{"ha":800,"x_min":0,"x_max":0,"o":"m 431 882 b 697 744 525 871 618 828 l 668 714 b 431 842 596 782 518 828 l 431 486 b 714 261 569 454 714 418 b 433 38 714 124 607 38 l 431 38 l 431 -89 l 392 -89 l 392 39 b 60 190 256 49 143 106 l 88 225 b 392 79 179 139 275 89 l 392 450 b 117 674 254 481 117 521 b 382 885 117 801 221 885 l 392 885 l 392 997 l 431 997 m 671 261 b 431 442 671 375 553 413 l 431 78 l 436 78 b 671 261 576 78 671 140 m 160 674 b 392 494 160 561 271 524 l 392 846 l 381 846 b 160 674 250 846 160 786 "},"₫":{"ha":742,"x_min":0,"x_max":0,"o":"m 742 825 l 650 825 l 650 139 l 601 139 l 601 269 b 349 125 556 181 467 125 b 43 424 164 125 43 243 l 43 425 b 349 725 43 607 163 725 b 601 579 467 725 556 668 l 601 825 l 418 825 l 418 865 l 601 865 l 601 936 l 650 936 l 650 865 l 742 865 m 351 165 b 601 419 507 165 601 271 l 601 431 b 351 685 601 582 508 685 b 92 432 190 685 92 585 l 92 418 b 351 165 92 265 190 165 m 742 0 l 40 0 l 40 40 l 742 40 "},"˙":{"ha":203,"x_min":0,"x_max":0,"o":"m 133 789 l 69 789 l 69 853 l 133 853 "},"ı":{"ha":232,"x_min":0,"x_max":0,"o":"m 140 0 l 92 0 l 92 656 l 140 656 "},"e":{"ha":708,"x_min":0,"x_max":0,"o":"m 360 -14 b 43 326 161 -14 43 129 b 358 669 43 529 172 669 b 650 333 536 669 650 543 l 650 317 l 92 317 b 360 26 94 150 192 26 b 619 193 511 26 586 104 l 658 179 b 360 -14 624 78 533 -14 m 358 629 b 92 356 206 629 101 519 l 599 356 b 358 629 597 526 504 629 "},"é":{"ha":708,"x_min":0,"x_max":0,"o":"m 360 -14 b 43 326 161 -14 43 129 b 358 669 43 529 172 669 b 650 333 536 669 650 543 l 650 317 l 92 317 b 360 26 94 150 192 26 b 619 193 511 26 586 104 l 658 179 b 360 -14 624 78 533 -14 m 358 629 b 92 356 206 629 101 519 l 599 356 b 358 629 597 526 504 629 m 582 972 l 389 781 l 340 781 l 525 974 l 582 974 "},"ĕ":{"ha":708,"x_min":0,"x_max":0,"o":"m 360 -14 b 43 326 161 -14 43 129 b 358 669 43 529 172 669 b 650 333 536 669 650 543 l 650 317 l 92 317 b 360 26 94 150 192 26 b 619 193 511 26 586 104 l 658 179 b 360 -14 624 78 533 -14 m 358 629 b 92 356 206 629 101 519 l 599 356 b 358 629 597 526 504 629 m 361 781 b 200 947 258 781 200 840 l 240 947 b 361 818 240 864 283 818 b 482 947 439 818 482 864 l 522 947 b 361 781 522 840 464 781 "},"ě":{"ha":708,"x_min":0,"x_max":0,"o":"m 360 -14 b 43 326 161 -14 43 129 b 358 669 43 529 172 669 b 650 333 536 669 650 543 l 650 317 l 92 317 b 360 26 94 150 192 26 b 619 193 511 26 586 104 l 658 179 b 360 -14 624 78 533 -14 m 358 629 b 92 356 206 629 101 519 l 599 356 b 358 629 597 526 504 629 m 361 833 l 461 968 l 507 968 l 371 781 l 351 781 l 215 968 l 261 968 "},"ê":{"ha":708,"x_min":0,"x_max":0,"o":"m 360 -14 b 43 326 161 -14 43 129 b 358 669 43 529 172 669 b 650 333 536 669 650 543 l 650 317 l 92 317 b 360 26 94 150 192 26 b 619 193 511 26 586 104 l 658 179 b 360 -14 624 78 533 -14 m 358 629 b 92 356 206 629 101 519 l 599 356 b 358 629 597 526 504 629 m 507 781 l 461 781 l 361 914 l 261 781 l 215 781 l 351 968 l 371 968 "},"ë":{"ha":708,"x_min":0,"x_max":0,"o":"m 360 -14 b 43 326 161 -14 43 129 b 358 669 43 529 172 669 b 650 333 536 669 650 543 l 650 317 l 92 317 b 360 26 94 150 192 26 b 619 193 511 26 586 104 l 658 179 b 360 -14 624 78 533 -14 m 358 629 b 92 356 206 629 101 519 l 599 356 b 358 629 597 526 504 629 m 303 785 l 239 785 l 239 853 l 303 853 m 483 785 l 419 785 l 419 853 l 483 853 "},"ė":{"ha":708,"x_min":0,"x_max":0,"o":"m 360 -14 b 43 326 161 -14 43 129 b 358 669 43 529 172 669 b 650 333 536 669 650 543 l 650 317 l 92 317 b 360 26 94 150 192 26 b 619 193 511 26 586 104 l 658 179 b 360 -14 624 78 533 -14 m 358 629 b 92 356 206 629 101 519 l 599 356 b 358 629 597 526 504 629 m 393 785 l 329 785 l 329 853 l 393 853 "},"è":{"ha":708,"x_min":0,"x_max":0,"o":"m 360 -14 b 43 326 161 -14 43 129 b 358 669 43 529 172 669 b 650 333 536 669 650 543 l 650 317 l 92 317 b 360 26 94 150 192 26 b 619 193 511 26 586 104 l 658 179 b 360 -14 624 78 533 -14 m 358 629 b 92 356 206 629 101 519 l 599 356 b 358 629 597 526 504 629 m 210 974 l 394 781 l 346 781 l 153 972 l 153 974 "},"⁸":{"ha":525,"x_min":0,"x_max":0,"o":"m 261 449 b 42 608 126 449 42 510 b 168 747 42 678 83 726 b 67 871 97 768 67 811 b 263 1018 67 961 140 1018 b 458 871 385 1018 458 961 b 357 747 458 811 428 768 b 483 608 442 726 483 678 b 261 449 483 510 399 449 m 263 764 b 411 869 363 764 411 799 b 263 978 411 938 358 978 b 114 869 167 978 114 938 b 263 764 114 799 163 764 m 261 490 b 433 608 368 490 433 535 b 261 725 433 686 376 725 b 90 608 149 725 90 686 b 261 490 90 535 157 490 "},"…":{"ha":788,"x_min":0,"x_max":0,"o":"m 178 0 l 85 0 l 85 99 l 178 99 m 440 0 l 347 0 l 347 99 l 440 99 m 703 0 l 610 0 l 610 99 l 703 99 "},"ē":{"ha":708,"x_min":0,"x_max":0,"o":"m 360 -14 b 43 326 161 -14 43 129 b 358 669 43 529 172 669 b 650 333 536 669 650 543 l 650 317 l 92 317 b 360 26 94 150 192 26 b 619 193 511 26 586 104 l 658 179 b 360 -14 624 78 533 -14 m 358 629 b 92 356 206 629 101 519 l 599 356 b 358 629 597 526 504 629 m 544 789 l 178 789 l 178 829 l 544 829 "},"—":{"ha":964,"x_min":0,"x_max":0,"o":"m 936 342 l 28 342 l 28 388 l 936 388 "},"–":{"ha":615,"x_min":0,"x_max":0,"o":"m 588 342 l 28 342 l 28 388 l 588 388 "},"ŋ":{"ha":693,"x_min":0,"x_max":0,"o":"m 458 -212 b 561 -82 542 -212 561 -192 l 561 419 b 382 628 561 557 490 628 b 140 246 215 628 140 489 l 140 0 l 92 0 l 92 656 l 138 656 l 138 463 b 383 669 171 594 253 669 b 610 424 519 669 610 581 l 610 -83 b 458 -253 610 -217 574 -253 l 439 -253 l 439 -212 "},"ę":{"ha":708,"x_min":0,"x_max":0,"o":"m 411 -256 b 294 -151 343 -256 294 -214 b 381 -12 294 -101 321 -58 b 360 -14 374 -12 367 -14 b 43 326 161 -14 43 129 b 358 669 43 529 172 669 b 650 333 536 669 650 543 l 650 317 l 90 317 b 360 26 93 150 192 26 b 619 193 511 26 586 104 l 658 179 b 467 0 632 101 572 29 b 340 -149 394 -39 340 -87 b 414 -215 340 -192 369 -215 b 478 -200 440 -215 467 -204 l 481 -239 b 411 -256 465 -247 438 -256 m 358 629 b 90 356 206 629 101 519 l 600 356 b 358 629 599 526 504 629 "},"=":{"ha":631,"x_min":0,"x_max":0,"o":"m 590 232 l 40 232 l 40 275 l 590 275 m 590 456 l 40 456 l 40 499 l 590 499 "},"⁼":{"ha":483,"x_min":0,"x_max":0,"o":"m 76 811 l 407 811 l 407 772 l 76 772 m 76 664 l 407 664 l 407 626 l 76 626 "},"ð":{"ha":728,"x_min":0,"x_max":0,"o":"m 358 -14 b 43 304 165 -14 43 108 l 43 308 b 363 615 44 492 172 622 b 626 476 479 611 576 563 b 354 842 594 658 500 775 l 276 733 l 246 757 l 318 857 b 174 897 274 875 225 888 l 190 933 b 340 892 244 922 294 910 l 417 999 l 447 975 l 376 875 b 681 336 569 788 681 618 b 358 -14 681 124 556 -14 m 361 26 b 629 286 518 26 629 136 l 629 363 b 361 575 629 471 521 575 b 90 311 200 575 90 476 l 90 297 b 361 26 90 122 197 26 "},"!":{"ha":221,"x_min":0,"x_max":0,"o":"m 146 968 l 146 961 l 119 226 l 104 226 l 76 961 l 76 968 m 157 0 l 64 0 l 64 99 l 157 99 "},"¡":{"ha":218,"x_min":0,"x_max":0,"o":"m 74 -312 l 74 -306 l 100 429 l 115 429 l 143 -306 l 143 -312 m 63 656 l 156 656 l 156 557 l 63 557 "},"f":{"ha":339,"x_min":0,"x_max":0,"o":"m 125 615 l 0 615 l 0 656 l 125 656 l 125 778 b 290 936 125 901 161 936 l 332 936 l 332 894 l 288 894 b 172 781 189 894 172 878 l 172 656 l 318 656 l 318 615 l 172 615 l 172 0 l 125 0 "},"ﬀ":{"ha":732,"x_min":0,"x_max":0,"o":"m 125 615 l 0 615 l 0 656 l 125 656 l 125 778 b 290 936 125 901 161 936 l 332 936 l 332 894 l 288 894 b 172 781 189 894 172 878 l 172 656 l 318 656 l 318 615 l 172 615 l 172 0 l 125 0 m 518 615 l 393 615 l 393 656 l 518 656 l 518 778 b 683 936 518 901 554 936 l 725 936 l 725 894 l 681 894 b 565 781 582 894 565 878 l 565 656 l 711 656 l 711 615 l 565 615 l 565 0 l 518 0 "},"ﬃ":{"ha":964,"x_min":0,"x_max":0,"o":"m 125 615 l 0 615 l 0 656 l 125 656 l 125 778 b 290 936 125 901 161 936 l 332 936 l 332 894 l 288 894 b 172 781 189 894 172 878 l 172 656 l 318 656 l 318 615 l 172 615 l 172 0 l 125 0 m 518 615 l 393 615 l 393 656 l 518 656 l 518 778 b 683 936 518 901 554 936 l 725 936 l 725 894 l 681 894 b 565 781 582 894 565 878 l 565 656 l 711 656 l 711 615 l 565 615 l 565 0 l 518 0 m 872 0 l 824 0 l 824 656 l 872 656 m 879 785 l 815 785 l 815 853 l 879 853 "},"ﬄ":{"ha":963,"x_min":0,"x_max":0,"o":"m 125 615 l 0 615 l 0 656 l 125 656 l 125 778 b 290 936 125 901 161 936 l 332 936 l 332 894 l 288 894 b 172 781 189 894 172 878 l 172 656 l 318 656 l 318 615 l 172 615 l 172 0 l 125 0 m 518 615 l 393 615 l 393 656 l 518 656 l 518 778 b 683 936 518 901 554 936 l 725 936 l 725 894 l 681 894 b 565 781 582 894 565 878 l 565 656 l 711 656 l 711 615 l 565 615 l 565 0 l 518 0 m 871 0 l 824 0 l 824 936 l 871 936 "},"‒":{"ha":800,"x_min":0,"x_max":0,"o":"m 772 342 l 28 342 l 28 388 l 772 388 "},"⁵":{"ha":525,"x_min":0,"x_max":0,"o":"m 263 449 b 61 603 147 449 61 513 l 106 603 b 261 489 111 535 169 489 b 431 644 369 489 431 546 b 265 789 431 738 365 789 b 103 700 171 789 125 743 l 65 718 l 119 1010 l 444 1010 l 444 968 l 151 968 l 115 768 b 265 829 153 808 206 829 b 476 644 394 829 476 761 b 263 449 476 522 399 449 "},"ƒ":{"ha":571,"x_min":0,"x_max":0,"o":"m 54 39 b 190 161 135 39 165 53 l 274 518 l 99 518 l 99 558 l 283 558 l 333 767 b 515 922 365 899 403 922 l 567 922 l 567 883 l 515 883 b 379 761 435 883 406 869 l 332 564 l 331 558 l 531 558 l 531 518 l 321 518 l 236 156 b 54 0 206 24 167 0 l 1 0 l 1 39 "},"⁴":{"ha":525,"x_min":0,"x_max":0,"o":"m 376 601 l 376 457 l 333 457 l 333 601 l 42 601 l 42 638 l 331 1010 l 382 1010 l 93 639 l 333 639 l 333 778 l 376 806 l 376 639 l 483 639 l 483 601 "},"⁄":{"ha":217,"x_min":0,"x_max":0,"o":"m -168 0 l -222 0 l 385 922 l 439 922 "},"g":{"ha":686,"x_min":0,"x_max":0,"o":"m 326 231 b 233 243 293 231 261 235 b 89 158 121 251 89 210 b 272 67 89 99 153 67 l 367 67 b 658 -93 576 67 658 21 b 329 -282 658 -215 543 -282 b 25 -119 119 -282 25 -232 b 189 35 25 -40 90 11 b 49 156 97 49 49 90 b 172 272 49 219 89 261 b 76 456 113 311 76 375 b 331 683 76 588 186 683 b 553 564 432 683 513 638 b 676 656 569 613 600 656 l 676 604 b 568 531 626 619 589 596 b 581 453 576 507 581 481 b 326 231 581 317 481 231 m 326 268 b 535 451 457 268 535 336 l 535 453 b 331 644 535 569 454 644 b 124 456 207 644 124 569 l 124 454 b 326 268 124 338 200 268 m 318 21 b 69 -117 174 21 69 -39 b 329 -244 69 -203 151 -244 b 614 -96 518 -244 614 -193 b 360 21 614 -8 553 21 "},"ğ":{"ha":686,"x_min":0,"x_max":0,"o":"m 326 231 b 233 243 293 231 261 235 b 89 158 121 251 89 210 b 272 67 89 99 153 67 l 367 67 b 658 -93 576 67 658 21 b 329 -282 658 -215 543 -282 b 25 -119 119 -282 25 -232 b 189 35 25 -40 90 11 b 49 156 97 49 49 90 b 172 272 49 219 89 261 b 76 456 113 311 76 375 b 331 683 76 588 186 683 b 553 564 432 683 513 638 b 676 656 569 613 600 656 l 676 604 b 568 531 626 619 589 596 b 581 453 576 507 581 481 b 326 231 581 317 481 231 m 326 268 b 535 451 457 268 535 336 l 535 453 b 331 644 535 569 454 644 b 124 456 207 644 124 569 l 124 454 b 326 268 124 338 200 268 m 318 21 b 69 -117 174 21 69 -39 b 329 -244 69 -203 151 -244 b 614 -96 518 -244 614 -193 b 360 21 614 -8 553 21 m 335 781 b 174 947 232 781 174 840 l 214 947 b 335 818 214 864 257 818 b 456 947 413 818 456 864 l 496 947 b 335 781 496 840 438 781 "},"ĝ":{"ha":686,"x_min":0,"x_max":0,"o":"m 326 231 b 233 243 293 231 261 235 b 89 158 121 251 89 210 b 272 67 89 99 153 67 l 367 67 b 658 -93 576 67 658 21 b 329 -282 658 -215 543 -282 b 25 -119 119 -282 25 -232 b 189 35 25 -40 90 11 b 49 156 97 49 49 90 b 172 272 49 219 89 261 b 76 456 113 311 76 375 b 331 683 76 588 186 683 b 553 564 432 683 513 638 b 676 656 569 613 600 656 l 676 604 b 568 531 626 619 589 596 b 581 453 576 507 581 481 b 326 231 581 317 481 231 m 326 268 b 535 451 457 268 535 336 l 535 453 b 331 644 535 569 454 644 b 124 456 207 644 124 569 l 124 454 b 326 268 124 338 200 268 m 318 21 b 69 -117 174 21 69 -39 b 329 -244 69 -203 151 -244 b 614 -96 518 -244 614 -193 b 360 21 614 -8 553 21 m 481 781 l 435 781 l 335 914 l 235 781 l 189 781 l 325 968 l 344 968 "},"ģ":{"ha":686,"x_min":0,"x_max":0,"o":"m 326 231 b 233 243 293 231 261 235 b 89 158 121 251 89 210 b 272 67 89 99 153 67 l 367 67 b 658 -93 576 67 658 21 b 329 -282 658 -215 543 -282 b 25 -119 119 -282 25 -232 b 189 35 25 -40 90 11 b 49 156 97 49 49 90 b 172 272 49 219 89 261 b 76 456 113 311 76 375 b 331 683 76 588 186 683 b 553 564 432 683 513 638 b 676 656 569 613 600 656 l 676 604 b 568 531 626 619 589 596 b 581 453 576 507 581 481 b 326 231 581 317 481 231 m 326 268 b 535 451 457 268 535 336 l 535 453 b 331 644 535 569 454 644 b 124 456 207 644 124 569 l 124 454 b 326 268 124 338 200 268 m 318 21 b 69 -117 174 21 69 -39 b 329 -244 69 -203 151 -244 b 614 -96 518 -244 614 -193 b 360 21 614 -8 553 21 m 301 892 b 388 1006 301 956 332 990 l 394 988 b 335 899 346 964 335 947 l 369 899 l 369 789 l 301 789 "},"ġ":{"ha":686,"x_min":0,"x_max":0,"o":"m 326 231 b 233 243 293 231 261 235 b 89 158 121 251 89 210 b 272 67 89 99 153 67 l 367 67 b 658 -93 576 67 658 21 b 329 -282 658 -215 543 -282 b 25 -119 119 -282 25 -232 b 189 35 25 -40 90 11 b 49 156 97 49 49 90 b 172 272 49 219 89 261 b 76 456 113 311 76 375 b 331 683 76 588 186 683 b 553 564 432 683 513 638 b 676 656 569 613 600 656 l 676 604 b 568 531 626 619 589 596 b 581 453 576 507 581 481 b 326 231 581 317 481 231 m 326 268 b 535 451 457 268 535 336 l 535 453 b 331 644 535 569 454 644 b 124 456 207 644 124 569 l 124 454 b 326 268 124 338 200 268 m 318 21 b 69 -117 174 21 69 -39 b 329 -244 69 -203 151 -244 b 614 -96 518 -244 614 -193 b 360 21 614 -8 553 21 m 367 785 l 303 785 l 303 853 l 367 853 "},"ß":{"ha":671,"x_min":0,"x_max":0,"o":"m 239 46 b 357 25 269 33 304 25 b 578 267 492 25 578 104 b 307 508 578 428 475 508 l 267 508 l 267 547 l 300 547 b 503 722 439 547 503 621 b 324 892 503 829 440 892 b 139 689 206 892 139 817 l 139 0 l 92 0 l 92 686 b 325 932 92 843 178 932 b 553 724 465 932 553 849 b 413 532 553 632 500 561 b 628 268 547 503 628 414 b 357 -14 628 86 517 -14 b 239 6 297 -14 253 -1 "},"`":{"ha":381,"x_min":0,"x_max":0,"o":"m 126 974 l 311 781 l 263 781 l 69 972 l 69 974 "},">":{"ha":629,"x_min":0,"x_max":0,"o":"m 65 140 l 522 365 l 65 590 l 65 633 l 569 379 l 569 351 l 65 97 "},"≥":{"ha":629,"x_min":0,"x_max":0,"o":"m 65 140 l 522 365 l 65 590 l 65 633 l 569 379 l 569 351 l 65 97 m 60 40 l 565 40 l 565 0 l 60 0 "},"«":{"ha":465,"x_min":0,"x_max":0,"o":"m 200 501 l 200 449 l 85 361 l 200 275 l 200 222 l 22 353 l 22 371 m 421 521 l 421 468 l 279 361 l 421 256 l 421 203 l 217 353 l 217 371 "},"»":{"ha":465,"x_min":0,"x_max":0,"o":"m 186 361 l 44 468 l 44 521 l 249 371 l 249 353 l 44 203 l 44 256 m 381 361 l 265 449 l 265 501 l 443 371 l 443 353 l 265 222 l 265 275 "},"‹":{"ha":271,"x_min":0,"x_max":0,"o":"m 226 521 l 226 468 l 85 361 l 226 256 l 226 203 l 22 353 l 22 371 "},"›":{"ha":271,"x_min":0,"x_max":0,"o":"m 44 468 l 44 521 l 249 371 l 249 353 l 44 203 l 44 256 l 186 361 "},"h":{"ha":690,"x_min":0,"x_max":0,"o":"m 138 482 b 381 669 179 603 258 669 b 607 424 517 669 607 581 l 607 0 l 558 0 l 558 419 b 379 628 558 557 488 628 b 138 246 213 628 138 489 l 138 0 l 92 0 l 92 936 l 138 936 "},"ħ":{"ha":693,"x_min":0,"x_max":0,"o":"m 383 783 l 140 783 l 140 482 b 383 669 182 603 261 669 b 610 424 519 669 610 581 l 610 0 l 561 0 l 561 419 b 382 628 561 557 490 628 b 140 246 215 628 140 489 l 140 0 l 92 0 l 92 783 l 0 783 l 0 824 l 92 824 l 92 936 l 140 936 l 140 824 l 383 824 "},"ĥ":{"ha":690,"x_min":0,"x_max":0,"o":"m 138 482 b 381 669 179 603 258 669 b 607 424 517 669 607 581 l 607 0 l 558 0 l 558 419 b 379 628 558 557 488 628 b 138 246 213 628 138 489 l 138 0 l 92 0 l 92 936 l 138 936 m 264 1018 l 218 1018 l 114 1157 l 10 1018 l -36 1018 l 103 1206 l 125 1206 "},"˝":{"ha":544,"x_min":0,"x_max":0,"o":"m 278 972 l 113 781 l 69 781 l 226 974 l 278 974 m 475 972 l 293 781 l 250 781 l 421 974 l 475 974 "},"-":{"ha":339,"x_min":0,"x_max":0,"o":"m 311 342 l 28 342 l 28 388 l 311 388 "},"i":{"ha":232,"x_min":0,"x_max":0,"o":"m 140 0 l 92 0 l 92 656 l 140 656 m 147 785 l 83 785 l 83 853 l 147 853 "},"í":{"ha":232,"x_min":0,"x_max":0,"o":"m 140 0 l 92 0 l 92 656 l 140 656 m 274 972 l 136 781 l 94 781 l 224 974 l 274 974 "},"ĭ":{"ha":232,"x_min":0,"x_max":0,"o":"m 115 818 b 193 947 175 818 203 868 l 233 947 b 115 781 243 838 196 781 b -3 947 35 781 -14 838 l 38 947 b 115 818 26 868 56 818 m 140 0 l 92 0 l 92 656 l 140 656 "},"î":{"ha":232,"x_min":0,"x_max":0,"o":"m 140 0 l 92 0 l 92 656 l 140 656 m 107 968 l 124 968 l 247 781 l 203 781 l 115 910 l 28 781 l -17 781 "},"ï":{"ha":232,"x_min":0,"x_max":0,"o":"m 140 0 l 92 0 l 92 656 l 140 656 m 75 789 l 7 789 l 7 856 l 75 856 m 224 789 l 156 789 l 156 856 l 224 856 "},"ì":{"ha":232,"x_min":0,"x_max":0,"o":"m 140 0 l 92 0 l 92 656 l 140 656 m 47 974 l 149 781 l 107 781 l -3 972 l -3 974 "},"ĳ":{"ha":464,"x_min":0,"x_max":0,"o":"m 140 0 l 92 0 l 92 656 l 140 656 m 147 785 l 83 785 l 83 853 l 147 853 m 221 -212 b 324 -82 304 -212 324 -192 l 324 656 l 372 656 l 372 -83 b 221 -253 372 -217 336 -253 l 201 -253 l 201 -212 m 379 785 l 315 785 l 315 853 l 379 853 "},"ī":{"ha":232,"x_min":0,"x_max":0,"o":"m 140 0 l 92 0 l 92 656 l 140 656 m 257 789 l -26 789 l -26 829 l 257 829 "},"į":{"ha":232,"x_min":0,"x_max":0,"o":"m 114 -256 b 3 -149 51 -256 3 -215 b 92 3 3 -96 33 -46 l 92 656 l 140 656 l 140 0 b 47 -144 97 -37 47 -83 b 118 -215 47 -192 76 -215 b 181 -197 142 -215 158 -210 l 185 -235 b 114 -256 168 -247 142 -256 m 147 789 l 83 789 l 83 853 l 147 853 "},"ĩ":{"ha":232,"x_min":0,"x_max":0,"o":"m 140 0 l 92 0 l 92 656 l 140 656 m -14 819 b 53 913 -8 886 15 913 b 178 817 119 913 133 817 b 210 869 196 817 204 831 l 214 903 l 247 903 l 244 874 b 176 781 239 811 218 781 b 51 876 108 781 93 876 b 21 824 33 876 24 861 l 18 790 l -15 790 "},"j":{"ha":232,"x_min":0,"x_max":0,"o":"m -11 -212 b 92 -82 72 -212 92 -192 l 92 656 l 140 656 l 140 -83 b -11 -253 140 -217 104 -253 l -31 -253 l -31 -212 m 147 785 l 83 785 l 83 853 l 147 853 "},"ĵ":{"ha":232,"x_min":0,"x_max":0,"o":"m -11 -212 b 92 -82 72 -212 92 -192 l 92 656 l 140 656 l 140 -83 b -11 -253 140 -217 104 -253 l -31 -253 l -31 -212 m 107 968 l 124 968 l 247 781 l 203 781 l 115 910 l 28 781 l -17 781 "},"k":{"ha":606,"x_min":0,"x_max":0,"o":"m 139 301 l 506 656 l 564 656 l 315 415 l 575 0 l 521 0 l 281 386 l 139 250 l 139 0 l 92 0 l 92 936 l 139 936 "},"ķ":{"ha":606,"x_min":0,"x_max":0,"o":"m 139 301 l 506 656 l 564 656 l 315 415 l 575 0 l 521 0 l 281 386 l 139 250 l 139 0 l 92 0 l 92 936 l 139 936 m 242 -319 b 301 -231 290 -296 300 -279 l 267 -231 l 267 -121 l 335 -121 l 335 -224 b 249 -337 335 -287 304 -322 "},"ĸ":{"ha":606,"x_min":0,"x_max":0,"o":"m 139 289 l 507 656 l 564 656 l 315 403 l 575 0 l 521 0 l 281 372 l 139 236 l 139 0 l 92 0 l 92 656 l 139 656 "},"l":{"ha":231,"x_min":0,"x_max":0,"o":"m 139 0 l 92 0 l 92 936 l 139 936 "},"ĺ":{"ha":231,"x_min":0,"x_max":0,"o":"m 139 0 l 92 0 l 92 936 l 139 936 m 322 1210 l 143 1018 l 93 1018 l 264 1211 l 322 1211 "},"ľ":{"ha":281,"x_min":0,"x_max":0,"o":"m 139 0 l 92 0 l 92 936 l 139 936 m 244 936 l 293 936 l 293 928 l 258 718 l 219 718 "},"ļ":{"ha":231,"x_min":0,"x_max":0,"o":"m 139 0 l 92 0 l 92 936 l 139 936 m 58 -319 b 118 -231 107 -296 117 -279 l 83 -231 l 83 -121 l 151 -121 l 151 -224 b 65 -337 151 -287 121 -322 "},"ŀ":{"ha":301,"x_min":0,"x_max":0,"o":"m 139 0 l 92 0 l 92 936 l 139 936 m 310 400 l 217 400 l 217 499 l 310 499 "},"<":{"ha":629,"x_min":0,"x_max":0,"o":"m 60 351 l 60 379 l 564 633 l 564 590 l 107 365 l 564 140 l 564 97 "},"≤":{"ha":629,"x_min":0,"x_max":0,"o":"m 63 40 l 568 40 l 568 0 l 63 0 m 60 351 l 60 379 l 564 633 l 564 590 l 107 365 l 564 140 l 564 97 "},"¬":{"ha":631,"x_min":0,"x_max":0,"o":"m 556 111 l 511 111 l 511 344 l 63 344 l 63 386 l 556 386 "},"ł":{"ha":232,"x_min":0,"x_max":0,"o":"m 140 922 l 140 606 l 232 669 l 232 621 l 140 558 l 140 0 l 92 0 l 92 521 l 0 458 l 0 506 l 92 568 l 92 922 "},"m":{"ha":1018,"x_min":0,"x_max":0,"o":"m 138 506 b 338 669 171 606 238 669 b 525 501 449 669 510 604 b 733 669 561 608 632 669 b 935 444 860 669 935 589 l 935 0 l 886 0 l 886 440 b 732 628 886 567 835 628 b 538 325 610 628 538 510 l 538 0 l 490 0 l 490 407 b 335 628 490 567 433 628 b 140 328 207 628 140 513 l 140 0 l 92 0 l 92 656 l 138 656 "},"¯":{"ha":506,"x_min":0,"x_max":0,"o":"m 436 789 l 69 789 l 69 832 l 436 832 "},"−":{"ha":631,"x_min":0,"x_max":0,"o":"m 568 344 l 63 344 l 63 386 l 568 386 "},"⁻":{"ha":444,"x_min":0,"x_max":0,"o":"m 69 738 l 375 738 l 375 699 l 69 699 "},"×":{"ha":631,"x_min":0,"x_max":0,"o":"m 68 147 l 286 365 l 67 585 l 96 614 l 315 394 l 533 613 l 563 583 l 344 365 l 564 146 l 535 117 l 315 336 l 97 118 "},"n":{"ha":693,"x_min":0,"x_max":0,"o":"m 138 463 b 383 669 171 594 253 669 b 610 424 519 669 610 581 l 610 0 l 561 0 l 561 419 b 382 628 561 557 490 628 b 140 246 215 628 140 489 l 140 0 l 92 0 l 92 656 l 138 656 "},"ⁿ":{"ha":561,"x_min":0,"x_max":0,"o":"m 85 929 l 129 929 l 129 801 b 311 939 156 889 215 939 b 483 758 415 939 483 874 l 483 457 l 438 457 l 438 756 b 306 899 438 850 386 899 b 131 643 186 899 131 806 l 131 457 l 85 457 "},"ń":{"ha":693,"x_min":0,"x_max":0,"o":"m 138 463 b 383 669 171 594 253 669 b 610 424 519 669 610 581 l 610 0 l 561 0 l 561 419 b 382 628 561 557 490 628 b 140 246 215 628 140 489 l 140 0 l 92 0 l 92 656 l 138 656 m 563 972 l 369 781 l 321 781 l 506 974 l 563 974 "},"ň":{"ha":693,"x_min":0,"x_max":0,"o":"m 138 463 b 383 669 171 594 253 669 b 610 424 519 669 610 581 l 610 0 l 561 0 l 561 419 b 382 628 561 557 490 628 b 140 246 215 628 140 489 l 140 0 l 92 0 l 92 656 l 138 656 m 369 833 l 469 968 l 515 968 l 379 781 l 360 781 l 224 968 l 269 968 "},"ņ":{"ha":693,"x_min":0,"x_max":0,"o":"m 138 463 b 383 669 171 594 253 669 b 610 424 519 669 610 581 l 610 0 l 561 0 l 561 419 b 382 628 561 557 490 628 b 140 246 215 628 140 489 l 140 0 l 92 0 l 92 656 l 138 656 m 293 -319 b 353 -231 342 -296 351 -279 l 318 -231 l 318 -121 l 386 -121 l 386 -224 b 300 -337 386 -287 356 -322 "},"⁹":{"ha":525,"x_min":0,"x_max":0,"o":"m 246 449 b 61 608 129 449 63 514 l 106 608 b 249 489 110 517 175 489 b 431 728 374 489 431 563 b 428 799 431 743 431 772 b 249 657 417 719 347 657 b 54 836 129 657 54 729 b 254 1018 54 940 133 1018 b 476 738 399 1018 476 921 b 246 449 476 543 399 449 m 253 696 b 408 838 343 696 408 760 l 408 840 b 254 979 408 925 350 979 b 100 838 157 979 100 919 l 100 836 b 253 696 100 753 157 696 "},"≠":{"ha":631,"x_min":0,"x_max":0,"o":"m 210 232 l 40 232 l 40 275 l 236 275 l 347 456 l 40 456 l 40 499 l 374 499 l 463 643 l 514 643 l 425 499 l 590 499 l 590 456 l 399 456 l 288 275 l 590 275 l 590 232 l 261 232 l 176 94 l 125 94 "},"ñ":{"ha":693,"x_min":0,"x_max":0,"o":"m 138 463 b 383 669 171 594 253 669 b 610 424 519 669 610 581 l 610 0 l 561 0 l 561 419 b 382 628 561 557 490 628 b 140 246 215 628 140 489 l 140 0 l 92 0 l 92 656 l 138 656 m 181 819 b 265 913 190 881 217 913 b 439 818 347 913 383 818 b 488 871 467 818 478 833 l 493 903 l 529 903 l 525 874 b 440 781 517 815 490 781 b 265 875 358 781 322 875 b 218 824 239 875 225 860 l 213 790 l 176 790 "},"#":{"ha":783,"x_min":0,"x_max":0,"o":"m 647 644 l 783 644 l 783 604 l 632 604 l 521 318 l 686 318 l 686 278 l 504 278 l 397 0 l 350 0 l 457 278 l 182 278 l 75 0 l 28 0 l 135 278 l 0 278 l 0 318 l 151 318 l 263 604 l 97 604 l 97 644 l 278 644 l 386 922 l 433 922 l 325 644 l 600 644 l 708 922 l 756 922 m 199 318 l 474 318 l 585 604 l 310 604 "},"o":{"ha":724,"x_min":0,"x_max":0,"o":"m 361 26 b 632 325 528 26 632 144 l 632 331 b 364 629 632 511 529 629 b 92 331 196 629 92 511 l 92 325 b 361 26 92 144 194 26 m 361 -14 b 43 328 168 -14 43 124 b 364 669 43 532 171 669 b 681 328 556 669 681 532 b 361 -14 681 125 554 -14 "},"ó":{"ha":724,"x_min":0,"x_max":0,"o":"m 361 26 b 632 325 528 26 632 144 l 632 331 b 364 629 632 511 529 629 b 92 331 196 629 92 511 l 92 325 b 361 26 92 144 194 26 m 361 -14 b 43 328 168 -14 43 124 b 364 669 43 532 171 669 b 681 328 556 669 681 532 b 361 -14 681 125 554 -14 m 582 972 l 389 781 l 340 781 l 525 974 l 582 974 "},"ŏ":{"ha":724,"x_min":0,"x_max":0,"o":"m 361 26 b 632 325 528 26 632 144 l 632 331 b 364 629 632 511 529 629 b 92 331 196 629 92 511 l 92 325 b 361 26 92 144 194 26 m 361 -14 b 43 328 168 -14 43 124 b 364 669 43 532 171 669 b 681 328 556 669 681 532 b 361 -14 681 125 554 -14 m 361 781 b 200 947 258 781 200 840 l 240 947 b 361 818 240 864 283 818 b 482 947 439 818 482 864 l 522 947 b 361 781 522 840 464 781 "},"ô":{"ha":724,"x_min":0,"x_max":0,"o":"m 361 26 b 632 325 528 26 632 144 l 632 331 b 364 629 632 511 529 629 b 92 331 196 629 92 511 l 92 325 b 361 26 92 144 194 26 m 361 -14 b 43 328 168 -14 43 124 b 364 669 43 532 171 669 b 681 328 556 669 681 532 b 361 -14 681 125 554 -14 m 507 781 l 461 781 l 361 914 l 261 781 l 215 781 l 351 968 l 371 968 "},"ö":{"ha":724,"x_min":0,"x_max":0,"o":"m 361 26 b 632 325 528 26 632 144 l 632 331 b 364 629 632 511 529 629 b 92 331 196 629 92 511 l 92 325 b 361 26 92 144 194 26 m 361 -14 b 43 328 168 -14 43 124 b 364 669 43 532 171 669 b 681 328 556 669 681 532 b 361 -14 681 125 554 -14 m 303 785 l 239 785 l 239 853 l 303 853 m 483 785 l 419 785 l 419 853 l 483 853 "},"œ":{"ha":1267,"x_min":0,"x_max":0,"o":"m 351 -14 b 43 328 158 -14 43 124 b 354 669 43 532 161 669 b 632 464 499 669 594 590 b 921 669 674 594 776 669 b 1208 333 1099 669 1208 543 l 1208 317 l 657 317 b 922 26 660 150 754 26 b 1178 193 1074 26 1144 104 l 1217 179 b 922 -14 1182 78 1096 -14 b 632 190 781 -14 675 63 b 351 -14 593 65 497 -14 m 351 24 b 610 325 518 24 610 144 l 610 331 b 354 632 610 511 519 632 b 92 331 186 632 92 511 l 92 325 b 351 24 92 144 185 24 m 921 631 b 657 356 768 631 667 519 l 1158 356 b 921 631 1157 526 1067 631 "},"˛":{"ha":325,"x_min":0,"x_max":0,"o":"m 186 -256 b 69 -151 118 -256 69 -214 b 221 29 69 -86 115 -32 l 242 0 b 115 -149 169 -39 115 -87 b 189 -215 115 -192 144 -215 b 253 -200 215 -215 242 -204 l 256 -239 b 186 -256 240 -247 213 -256 "},"ò":{"ha":724,"x_min":0,"x_max":0,"o":"m 361 26 b 632 325 528 26 632 144 l 632 331 b 364 629 632 511 529 629 b 92 331 196 629 92 511 l 92 325 b 361 26 92 144 194 26 m 361 -14 b 43 328 168 -14 43 124 b 364 669 43 532 171 669 b 681 328 556 669 681 532 b 361 -14 681 125 554 -14 m 210 974 l 394 781 l 346 781 l 153 972 l 153 974 "},"ơ":{"ha":783,"x_min":0,"x_max":0,"o":"m 688 881 b 776 733 751 847 776 790 b 619 542 776 619 678 561 b 681 328 658 485 681 413 b 361 -14 681 125 554 -14 b 43 328 168 -14 43 124 b 364 669 43 532 171 669 b 599 569 463 669 543 633 b 733 732 636 581 733 624 b 664 849 733 786 707 824 m 361 26 b 631 325 528 26 631 144 l 631 331 b 364 629 631 511 529 629 b 93 331 196 629 93 511 l 93 325 b 361 26 93 144 194 26 "},"ő":{"ha":724,"x_min":0,"x_max":0,"o":"m 361 26 b 632 325 528 26 632 144 l 632 331 b 364 629 632 511 529 629 b 92 331 196 629 92 511 l 92 325 b 361 26 92 144 194 26 m 361 -14 b 43 328 168 -14 43 124 b 364 669 43 532 171 669 b 681 328 556 669 681 532 b 361 -14 681 125 554 -14 m 451 972 l 286 781 l 243 781 l 400 974 l 451 974 m 649 972 l 467 781 l 424 781 l 594 974 l 649 974 "},"ō":{"ha":724,"x_min":0,"x_max":0,"o":"m 361 26 b 632 325 528 26 632 144 l 632 331 b 364 629 632 511 529 629 b 92 331 196 629 92 511 l 92 325 b 361 26 92 144 194 26 m 361 -14 b 43 328 168 -14 43 124 b 364 669 43 532 171 669 b 681 328 556 669 681 532 b 361 -14 681 125 554 -14 m 544 789 l 178 789 l 178 829 l 544 829 "},"¹":{"ha":376,"x_min":0,"x_max":0,"o":"m 221 918 b 44 781 183 857 115 806 l 44 826 b 221 1010 121 856 200 913 l 267 1010 l 267 457 l 221 457 "},"½":{"ha":1204,"x_min":0,"x_max":0,"o":"m 739 10 b 1096 394 739 276 1096 226 b 956 518 1096 472 1035 518 b 782 388 876 518 815 476 l 738 407 b 956 561 778 508 858 561 b 1147 397 1060 561 1147 499 b 788 43 1147 194 808 243 l 1150 43 l 1150 0 l 739 0 m 285 0 l 231 0 l 838 922 l 892 922 m 221 831 b 44 693 183 769 115 718 l 44 739 b 221 922 121 768 200 825 l 267 922 l 267 369 l 221 369 "},"¼":{"ha":1111,"x_min":0,"x_max":0,"o":"m 836 922 l 890 922 l 283 0 l 229 0 m 221 831 b 44 693 183 769 115 718 l 44 739 b 221 922 121 768 200 825 l 267 922 l 267 369 l 221 369 m 925 144 l 646 144 l 646 181 l 921 553 l 972 553 l 696 182 l 925 182 l 925 321 l 968 349 l 968 182 l 1069 182 l 1069 144 l 968 144 l 968 0 l 925 0 "},"ª":{"ha":524,"x_min":0,"x_max":0,"o":"m 215 447 b 50 579 111 447 50 501 b 235 725 50 679 140 704 b 401 786 308 740 378 751 l 401 790 b 264 903 401 864 360 903 b 108 800 179 903 115 875 l 108 786 l 64 786 b 264 939 65 892 150 939 b 446 782 386 939 446 886 l 446 457 l 401 457 l 401 553 b 215 447 358 469 282 447 m 96 581 b 218 483 96 524 139 483 b 401 656 324 483 401 547 l 401 747 b 226 690 371 715 294 707 b 96 581 157 674 96 649 "},"º":{"ha":583,"x_min":0,"x_max":0,"o":"m 292 447 b 49 693 144 447 49 546 b 293 939 49 839 147 939 b 535 693 439 939 535 839 b 292 447 535 547 438 447 m 292 486 b 489 690 413 486 489 567 l 489 694 b 293 900 489 819 414 900 b 94 694 171 900 94 819 l 94 690 b 292 486 94 567 169 486 "},"ø":{"ha":732,"x_min":0,"x_max":0,"o":"m 361 -14 b 143 67 272 -14 197 15 l 83 0 l 33 0 l 118 93 b 43 328 69 153 43 233 b 364 669 43 532 171 669 b 581 588 453 669 526 639 l 642 656 l 692 656 l 606 561 b 681 328 654 501 681 422 b 361 -14 681 125 554 -14 m 550 556 b 364 629 504 603 442 629 b 93 331 196 629 93 511 l 93 325 b 149 126 93 244 113 178 m 361 26 b 631 325 528 26 631 144 l 631 331 b 575 528 631 410 611 476 l 174 97 b 361 26 219 51 283 26 "},"ǿ":{"ha":732,"x_min":0,"x_max":0,"o":"m 361 -14 b 143 67 272 -14 197 15 l 83 0 l 33 0 l 118 93 b 43 328 69 153 43 233 b 364 669 43 532 171 669 b 581 588 453 669 526 639 l 642 656 l 692 656 l 606 561 b 681 328 654 501 681 422 b 361 -14 681 125 554 -14 m 550 556 b 364 629 504 603 442 629 b 93 331 196 629 93 511 l 93 325 b 149 126 93 244 113 178 m 361 26 b 631 325 528 26 631 144 l 631 331 b 575 528 631 410 611 476 l 174 97 b 361 26 219 51 283 26 m 571 972 l 378 781 l 329 781 l 514 974 l 571 974 "},"õ":{"ha":724,"x_min":0,"x_max":0,"o":"m 361 26 b 632 325 528 26 632 144 l 632 331 b 364 629 632 511 529 629 b 92 331 196 629 92 511 l 92 325 b 361 26 92 144 194 26 m 361 -14 b 43 328 168 -14 43 124 b 364 669 43 532 171 669 b 681 328 556 669 681 532 b 361 -14 681 125 554 -14 m 189 819 b 274 913 199 881 225 913 b 447 818 356 913 392 818 b 496 871 475 818 486 833 l 501 903 l 538 903 l 533 874 b 449 781 525 815 499 781 b 274 875 367 781 331 875 b 226 824 247 875 233 860 l 221 790 l 185 790 "},"p":{"ha":736,"x_min":0,"x_max":0,"o":"m 388 -14 b 139 142 274 -14 185 46 l 139 -253 l 92 -253 l 92 656 l 138 656 l 138 510 b 388 669 183 608 272 669 b 693 329 574 669 693 536 l 693 328 b 388 -14 693 122 572 -14 m 385 26 b 643 321 547 26 643 143 l 643 335 b 385 629 643 513 547 629 b 135 333 228 629 135 510 l 135 322 b 385 26 135 149 229 26 "},"¶":{"ha":739,"x_min":0,"x_max":0,"o":"m 425 429 l 415 429 b 46 672 150 429 46 497 b 411 922 46 849 153 922 l 654 922 l 654 0 l 606 0 l 606 882 l 474 882 l 474 0 l 425 0 "},"(":{"ha":400,"x_min":0,"x_max":0,"o":"m 392 -239 b 21 342 149 -149 21 78 l 21 353 b 392 925 21 614 149 835 l 392 879 b 75 353 189 800 75 597 l 75 342 b 392 -194 75 97 189 -115 "},"⁽":{"ha":507,"x_min":0,"x_max":0,"o":"m 374 383 b 142 731 218 429 142 572 l 142 739 b 374 1083 142 896 218 1036 l 374 1042 b 188 739 256 1000 188 886 l 188 731 b 374 424 188 583 256 465 "},")":{"ha":400,"x_min":0,"x_max":0,"o":"m 8 -194 b 325 342 211 -115 325 97 l 325 353 b 8 879 325 597 211 800 l 8 925 b 379 353 251 835 379 614 l 379 342 b 8 -239 379 78 251 -149 "},"⁾":{"ha":507,"x_min":0,"x_max":0,"o":"m 133 424 b 318 731 250 465 318 583 l 318 739 b 133 1042 318 886 250 1000 l 133 1083 b 365 739 288 1036 365 896 l 365 731 b 133 383 365 572 288 429 "},"%":{"ha":896,"x_min":0,"x_max":0,"o":"m 224 567 b 381 731 319 567 381 635 l 381 736 b 229 899 381 831 321 899 b 71 736 133 899 71 829 l 71 731 b 224 567 71 636 131 567 m 668 24 b 825 188 764 24 825 92 l 825 193 b 674 356 825 288 765 356 b 515 193 578 356 515 286 l 515 188 b 668 24 515 93 575 24 m 224 529 b 24 733 103 529 24 615 b 229 936 24 850 106 936 b 428 733 349 936 428 850 b 224 529 428 615 344 529 m 154 0 l 100 0 l 735 922 l 789 922 m 668 -14 b 468 190 547 -14 468 72 b 674 393 468 307 550 393 b 872 190 793 393 872 307 b 668 -14 872 72 789 -14 "},".":{"ha":263,"x_min":0,"x_max":0,"o":"m 178 0 l 85 0 l 85 99 l 178 99 "},"·":{"ha":263,"x_min":0,"x_max":0,"o":"m 178 317 l 85 317 l 85 415 l 178 415 "},"‰":{"ha":1368,"x_min":0,"x_max":0,"o":"m 224 567 b 381 731 319 567 381 635 l 381 736 b 229 899 381 831 321 899 b 71 736 133 899 71 829 l 71 731 b 224 567 71 636 131 567 m 668 24 b 825 188 764 24 825 92 l 825 193 b 674 356 825 288 765 356 b 515 193 578 356 515 286 l 515 188 b 668 24 515 93 575 24 m 1140 24 b 1297 188 1236 24 1297 92 l 1297 193 b 1146 356 1297 288 1238 356 b 988 193 1050 356 988 286 l 988 188 b 1140 24 988 93 1047 24 m 224 529 b 24 733 103 529 24 615 b 229 936 24 850 106 936 b 428 733 349 936 428 850 b 224 529 428 615 344 529 m 154 0 l 100 0 l 735 922 l 789 922 m 668 -14 b 468 190 547 -14 468 72 b 674 393 468 307 550 393 b 872 190 793 393 872 307 b 668 -14 872 72 789 -14 m 1140 -14 b 940 190 1019 -14 940 72 b 1146 393 940 307 1022 393 b 1344 190 1265 393 1344 307 b 1140 -14 1344 72 1261 -14 "},"π":{"ha":771,"x_min":0,"x_max":0,"o":"m 628 -7 b 544 119 568 -7 544 42 l 533 613 l 219 613 l 194 0 l 146 0 l 176 613 l 36 613 l 36 656 l 726 656 l 726 610 l 575 610 l 592 113 b 639 36 596 64 606 36 l 686 36 l 686 4 b 628 -7 676 -3 657 -7 "},"+":{"ha":631,"x_min":0,"x_max":0,"o":"m 338 343 l 338 111 l 293 111 l 293 343 l 61 343 l 61 386 l 293 386 l 293 619 l 338 619 l 338 386 l 569 386 l 569 343 "},"⁺":{"ha":451,"x_min":0,"x_max":0,"o":"m 69 738 l 206 738 l 206 875 l 246 875 l 246 738 l 382 738 l 382 699 l 246 699 l 246 563 l 206 563 l 206 699 l 69 699 "},"±":{"ha":631,"x_min":0,"x_max":0,"o":"m 569 343 l 338 343 l 338 111 l 293 111 l 293 343 l 61 343 l 61 386 l 293 386 l 293 619 l 338 619 l 338 386 l 569 386 m 568 0 l 63 0 l 63 42 l 568 42 "},"q":{"ha":742,"x_min":0,"x_max":0,"o":"m 349 -14 b 43 324 165 -14 44 121 l 43 328 b 349 669 43 535 163 669 b 603 500 467 669 557 604 l 603 656 l 650 656 l 650 -253 l 603 -253 l 603 154 b 349 -14 557 51 467 -14 m 351 26 b 603 322 507 26 603 149 l 603 333 b 351 629 603 510 508 629 b 93 335 190 629 93 513 l 93 321 b 351 26 93 143 190 26 "},"?":{"ha":686,"x_min":0,"x_max":0,"o":"m 281 275 b 586 763 313 565 586 556 b 385 939 586 876 501 939 b 94 706 233 939 151 835 l 53 721 b 386 982 117 864 210 982 b 639 763 538 982 639 897 b 317 250 639 532 344 549 l 279 250 m 249 99 l 342 99 l 342 0 l 249 0 "},"¿":{"ha":686,"x_min":0,"x_max":0,"o":"m 411 381 b 106 -107 379 90 106 100 b 307 -283 106 -221 190 -283 b 597 -50 458 -283 540 -179 l 639 -65 b 306 -326 575 -208 482 -326 b 53 -107 154 -326 53 -242 b 376 406 53 124 349 107 l 413 406 m 350 656 l 443 656 l 443 557 l 350 557 "},"\"":{"ha":350,"x_min":0,"x_max":0,"o":"m 71 581 b 56 857 65 633 56 808 l 56 922 l 106 922 l 106 857 b 90 581 106 808 96 633 l 71 581 m 260 581 b 244 857 254 633 244 808 l 244 922 l 294 922 l 294 857 b 279 581 294 808 285 633 l 260 581 "},"„":{"ha":439,"x_min":0,"x_max":0,"o":"m 47 -146 b 133 3 115 -112 133 -82 l 89 3 l 89 99 l 174 99 l 174 10 b 51 -165 174 -94 131 -144 m 228 -146 b 314 3 296 -112 314 -82 l 269 3 l 269 99 l 354 99 l 354 10 b 232 -165 354 -94 311 -144 "},"“":{"ha":439,"x_min":0,"x_max":0,"o":"m 211 935 b 125 786 143 901 125 871 l 169 786 l 169 690 l 85 690 l 85 779 b 207 954 85 883 128 933 m 392 935 b 306 786 324 901 306 871 l 350 786 l 350 690 l 265 690 l 265 779 b 388 954 265 883 308 933 "},"”":{"ha":439,"x_min":0,"x_max":0,"o":"m 47 678 b 133 826 115 711 133 742 l 89 826 l 89 922 l 174 922 l 174 833 b 51 658 174 729 131 679 m 228 678 b 314 826 296 711 314 742 l 269 826 l 269 922 l 354 922 l 354 833 b 232 658 354 729 311 679 "},"‘":{"ha":258,"x_min":0,"x_max":0,"o":"m 211 935 b 125 786 143 901 125 871 l 169 786 l 169 690 l 85 690 l 85 779 b 207 954 85 883 128 933 "},"‛":{"ha":258,"x_min":0,"x_max":0,"o":"m 207 658 b 85 833 128 679 85 729 l 85 922 l 169 922 l 169 826 l 125 826 b 211 678 125 742 143 711 "},"’":{"ha":258,"x_min":0,"x_max":0,"o":"m 47 678 b 133 826 115 711 133 742 l 89 826 l 89 922 l 174 922 l 174 833 b 51 658 174 729 131 679 "},"‚":{"ha":258,"x_min":0,"x_max":0,"o":"m 47 -146 b 133 3 115 -112 133 -82 l 89 3 l 89 99 l 174 99 l 174 10 b 51 -165 174 -94 131 -144 "},"'":{"ha":161,"x_min":0,"x_max":0,"o":"m 71 581 b 56 857 65 633 56 808 l 56 922 l 106 922 l 106 857 b 90 581 106 808 96 633 l 71 581 "},"r":{"ha":421,"x_min":0,"x_max":0,"o":"m 136 508 b 342 656 163 606 224 656 l 386 656 l 386 613 l 336 613 b 140 322 181 613 140 511 l 140 0 l 92 0 l 92 656 l 136 656 "},"ŕ":{"ha":421,"x_min":0,"x_max":0,"o":"m 136 508 b 342 656 163 606 224 656 l 386 656 l 386 613 l 336 613 b 140 322 181 613 140 511 l 140 0 l 92 0 l 92 656 l 136 656 m 460 972 l 267 781 l 218 781 l 403 974 l 460 974 "},"ř":{"ha":421,"x_min":0,"x_max":0,"o":"m 136 508 b 342 656 163 606 224 656 l 386 656 l 386 613 l 336 613 b 140 322 181 613 140 511 l 140 0 l 92 0 l 92 656 l 136 656 m 239 833 l 339 968 l 385 968 l 249 781 l 229 781 l 93 968 l 139 968 "},"ŗ":{"ha":421,"x_min":0,"x_max":0,"o":"m 136 508 b 342 656 163 606 224 656 l 386 656 l 386 613 l 336 613 b 140 322 181 613 140 511 l 140 0 l 92 0 l 92 656 l 136 656 m 60 -319 b 119 -231 108 -296 118 -279 l 85 -231 l 85 -121 l 153 -121 l 153 -224 b 67 -337 153 -287 122 -322 "},"®":{"ha":910,"x_min":0,"x_max":0,"o":"m 453 172 b 60 554 221 172 60 328 b 453 943 60 786 219 943 b 850 554 688 943 850 785 b 453 172 850 328 689 172 m 453 211 b 806 554 664 211 806 350 b 453 904 806 763 663 904 b 104 554 246 904 104 764 b 453 211 104 350 247 211 m 611 343 b 558 407 578 343 558 354 b 386 524 558 514 510 524 l 369 524 l 369 350 l 324 350 l 324 760 l 458 760 b 614 657 572 760 614 715 b 510 539 614 600 596 553 b 603 419 572 524 603 488 b 615 376 603 381 608 379 l 640 364 l 640 363 b 611 343 638 353 632 343 m 369 558 l 451 558 b 568 653 553 558 568 596 b 451 722 568 704 533 722 l 369 722 "},"˚":{"ha":351,"x_min":0,"x_max":0,"o":"m 175 813 b 247 885 218 813 247 846 b 175 958 247 924 218 958 b 104 885 132 958 104 924 b 175 813 104 846 132 813 m 175 781 b 69 885 110 781 69 826 b 175 990 69 943 110 990 b 282 885 240 990 282 943 b 175 781 282 826 240 781 "},"s":{"ha":588,"x_min":0,"x_max":0,"o":"m 314 -14 b 35 106 210 -14 97 21 l 67 133 b 314 24 135 50 233 24 b 494 168 425 24 494 79 b 286 317 494 260 406 288 b 67 496 149 350 67 379 b 276 669 67 597 156 669 b 524 564 374 669 456 632 l 496 531 b 276 632 438 594 357 632 b 111 497 175 632 111 578 b 307 358 111 407 186 388 b 539 174 421 331 539 292 b 314 -14 539 58 451 -14 "},"ś":{"ha":588,"x_min":0,"x_max":0,"o":"m 314 -14 b 35 106 210 -14 97 21 l 67 133 b 314 24 135 50 233 24 b 494 168 425 24 494 79 b 286 317 494 260 406 288 b 67 496 149 350 67 379 b 276 669 67 597 156 669 b 524 564 374 669 456 632 l 496 531 b 276 632 438 594 357 632 b 111 497 175 632 111 578 b 307 358 111 407 186 388 b 539 174 421 331 539 292 b 314 -14 539 58 451 -14 m 507 972 l 314 781 l 265 781 l 450 974 l 507 974 "},"š":{"ha":588,"x_min":0,"x_max":0,"o":"m 314 -14 b 35 106 210 -14 97 21 l 67 133 b 314 24 135 50 233 24 b 494 168 425 24 494 79 b 286 317 494 260 406 288 b 67 496 149 350 67 379 b 276 669 67 597 156 669 b 524 564 374 669 456 632 l 496 531 b 276 632 438 594 357 632 b 111 497 175 632 111 578 b 307 358 111 407 186 388 b 539 174 421 331 539 292 b 314 -14 539 58 451 -14 m 286 833 l 386 968 l 432 968 l 296 781 l 276 781 l 140 968 l 186 968 "},"ş":{"ha":588,"x_min":0,"x_max":0,"o":"m 268 -256 b 190 -239 232 -256 206 -247 l 193 -200 b 268 -217 204 -206 229 -217 b 338 -144 304 -217 338 -190 b 219 -4 338 -90 301 -51 b 35 106 146 11 78 46 l 67 133 b 314 24 135 50 233 24 b 494 168 425 24 494 79 b 286 317 494 260 406 288 b 67 496 149 350 67 379 b 276 669 67 597 156 669 b 524 564 374 669 456 632 l 496 531 b 276 632 438 594 357 632 b 111 497 175 632 111 578 b 307 358 111 407 186 388 b 539 174 421 331 539 292 b 314 -14 539 58 451 -14 l 299 -14 b 383 -147 365 -60 383 -104 b 268 -256 383 -212 332 -256 "},"ŝ":{"ha":588,"x_min":0,"x_max":0,"o":"m 314 -14 b 35 106 210 -14 97 21 l 67 133 b 314 24 135 50 233 24 b 494 168 425 24 494 79 b 286 317 494 260 406 288 b 67 496 149 350 67 379 b 276 669 67 597 156 669 b 524 564 374 669 456 632 l 496 531 b 276 632 438 594 357 632 b 111 497 175 632 111 578 b 307 358 111 407 186 388 b 539 174 421 331 539 292 b 314 -14 539 58 451 -14 m 432 781 l 386 781 l 286 914 l 186 781 l 140 781 l 276 968 l 296 968 "},"ș":{"ha":588,"x_min":0,"x_max":0,"o":"m 314 -14 b 35 106 210 -14 97 21 l 67 133 b 314 24 135 50 233 24 b 494 168 425 24 494 79 b 286 317 494 260 406 288 b 67 496 149 350 67 379 b 276 669 67 597 156 669 b 524 564 374 669 456 632 l 496 531 b 276 632 438 594 357 632 b 111 497 175 632 111 578 b 307 358 111 407 186 388 b 539 174 421 331 539 292 b 314 -14 539 58 451 -14 m 229 -319 b 289 -231 278 -296 288 -279 l 254 -231 l 254 -121 l 322 -121 l 322 -224 b 236 -337 322 -287 292 -322 "},"§":{"ha":793,"x_min":0,"x_max":0,"o":"m 390 -242 b 146 -135 288 -242 214 -203 l 174 -101 b 390 -204 232 -165 310 -204 b 564 -57 496 -204 564 -139 b 326 129 564 54 474 86 b 47 372 188 169 47 221 b 285 576 47 474 128 564 b 186 736 228 608 186 658 b 406 922 186 833 278 922 b 650 815 508 922 582 883 l 622 782 b 406 885 564 846 486 885 b 232 738 300 885 232 819 b 469 551 232 626 322 594 b 749 308 608 511 749 460 b 510 104 749 206 668 117 b 610 -56 568 71 610 21 b 390 -242 610 -153 518 -242 m 351 168 b 450 136 386 158 419 147 l 472 136 b 703 306 618 136 703 211 b 444 513 703 428 588 469 b 346 544 410 522 375 533 l 324 544 b 93 375 178 544 93 469 b 351 168 93 253 208 211 "},";":{"ha":265,"x_min":0,"x_max":0,"o":"m 54 -132 b 140 3 122 -99 140 -68 l 88 3 l 88 99 l 181 99 l 181 10 b 58 -151 181 -81 138 -131 m 179 490 l 179 392 l 86 392 l 86 490 "},"⁷":{"ha":451,"x_min":0,"x_max":0,"o":"m 382 968 l 28 968 l 28 1010 l 426 1010 l 426 963 l 153 457 l 101 457 "},"⁶":{"ha":525,"x_min":0,"x_max":0,"o":"m 278 449 b 54 729 132 449 54 546 b 285 1018 54 922 135 1018 b 471 857 403 1018 469 950 l 426 857 b 285 978 425 947 357 978 b 100 738 160 978 100 901 b 101 667 100 722 100 692 b 283 794 118 746 189 794 b 478 622 403 794 478 728 b 278 449 478 518 399 449 m 276 488 b 433 621 375 488 433 539 l 433 622 b 279 756 433 706 375 756 b 122 622 189 756 122 700 l 122 621 b 276 488 122 543 186 488 "},"/":{"ha":492,"x_min":0,"x_max":0,"o":"m 64 0 l 14 0 l 428 922 l 478 922 "}," ":{"ha":271,"x_min":0,"x_max":0,"o":""},"£":{"ha":842,"x_min":0,"x_max":0,"o":"m 588 356 l 360 356 b 394 213 381 315 394 269 b 383 142 394 188 390 164 b 632 28 471 90 553 28 b 735 135 707 28 735 56 l 735 176 l 774 176 l 774 128 b 633 -14 774 33 728 -14 b 368 101 539 -14 453 49 b 193 -14 333 33 268 -14 b 64 94 119 -14 64 31 b 197 208 64 163 118 208 b 343 164 247 208 296 189 b 349 210 347 178 349 193 b 307 356 349 267 332 313 l 93 356 l 93 396 l 282 396 b 143 675 222 482 143 556 b 421 936 143 825 246 936 b 758 674 597 936 699 815 l 718 653 b 421 894 665 781 572 894 b 193 675 276 894 193 800 b 336 396 193 553 276 486 l 588 396 m 196 25 b 331 124 254 25 304 65 b 194 168 285 149 239 168 b 106 94 142 168 106 139 b 196 25 106 51 144 25 "},"t":{"ha":407,"x_min":0,"x_max":0,"o":"m 293 0 b 149 144 186 0 149 44 l 149 615 l 14 615 l 14 656 l 150 656 l 150 804 l 196 846 l 196 656 l 369 656 l 369 615 l 194 615 l 194 150 b 294 40 194 71 218 40 l 369 40 l 369 0 "},"ŧ":{"ha":407,"x_min":0,"x_max":0,"o":"m 293 0 b 149 144 186 0 149 44 l 149 368 l 14 368 l 14 408 l 149 408 l 149 615 l 14 615 l 14 656 l 150 656 l 150 804 l 196 846 l 196 656 l 369 656 l 369 615 l 194 615 l 194 408 l 369 408 l 369 368 l 194 368 l 194 150 b 294 40 194 71 218 40 l 369 40 l 369 0 "},"ť":{"ha":407,"x_min":0,"x_max":0,"o":"m 293 0 b 149 144 186 0 149 44 l 149 615 l 14 615 l 14 656 l 150 656 l 150 804 l 196 846 l 196 656 l 369 656 l 369 615 l 194 615 l 194 150 b 294 40 194 71 218 40 l 369 40 l 369 0 m 336 936 l 385 936 l 385 928 l 350 718 l 311 718 "},"ţ":{"ha":407,"x_min":0,"x_max":0,"o":"m 293 0 l 279 0 b 364 -142 342 -47 364 -99 b 244 -256 364 -212 314 -256 b 172 -239 214 -256 188 -247 l 175 -199 b 240 -217 186 -206 211 -217 b 319 -137 286 -217 319 -190 b 204 17 319 -79 279 -37 b 149 144 164 38 149 79 l 149 615 l 14 615 l 14 656 l 150 656 l 150 804 l 196 846 l 196 656 l 369 656 l 369 615 l 194 615 l 194 150 b 294 40 194 71 218 40 l 369 40 l 369 0 "},"þ":{"ha":739,"x_min":0,"x_max":0,"o":"m 393 -14 b 138 147 272 -14 182 46 l 140 -253 l 92 -253 l 92 936 l 138 936 l 138 506 b 393 669 182 608 272 669 b 694 328 579 669 694 531 b 393 -14 694 122 572 -14 m 390 26 b 644 321 546 26 644 143 l 644 335 b 390 629 644 507 551 629 b 136 342 231 629 140 515 l 136 278 b 390 26 153 131 243 26 "},"³":{"ha":525,"x_min":0,"x_max":0,"o":"m 267 449 b 50 611 138 449 58 507 l 96 611 b 267 490 106 536 160 490 b 425 613 369 490 425 532 l 425 615 b 269 724 425 694 378 717 b 219 724 254 725 238 725 l 219 764 b 269 763 219 764 260 763 b 411 865 356 763 411 800 l 411 868 b 264 978 410 939 360 978 b 108 849 165 978 115 929 l 64 849 b 265 1018 72 954 146 1018 b 460 867 390 1018 460 961 b 346 749 460 811 422 767 b 472 614 429 732 472 685 b 267 449 472 511 396 449 "},"¾":{"ha":1153,"x_min":0,"x_max":0,"o":"m 257 361 b 50 524 133 361 58 419 l 96 524 b 257 403 104 449 156 403 b 407 525 354 403 407 444 l 407 528 b 253 638 407 604 332 635 b 213 636 239 638 226 638 l 213 676 b 251 675 226 675 240 675 b 394 778 346 678 394 711 b 254 890 394 850 347 890 b 107 761 161 890 114 842 l 63 761 b 256 931 71 867 142 931 b 442 779 375 931 442 874 b 332 661 442 724 407 679 b 454 526 413 643 454 597 b 257 361 454 424 381 361 m 892 922 l 946 922 l 339 0 l 285 0 m 967 144 l 688 144 l 688 181 l 963 553 l 1014 553 l 738 182 l 967 182 l 967 321 l 1010 349 l 1010 182 l 1111 182 l 1111 144 l 1010 144 l 1010 0 l 967 0 "},"˜":{"ha":492,"x_min":0,"x_max":0,"o":"m 69 790 l 74 819 b 158 913 83 881 110 913 b 332 818 240 913 276 818 b 381 871 360 818 371 833 l 386 903 l 422 903 l 418 874 b 333 781 410 815 383 781 b 158 875 251 781 215 875 b 111 824 132 875 118 860 l 106 790 "},"™":{"ha":839,"x_min":0,"x_max":0,"o":"m 560 590 l 685 922 l 750 922 l 750 539 l 711 539 l 711 897 l 574 539 l 544 539 l 414 894 l 414 539 l 375 539 l 375 922 l 443 922 m 315 888 l 189 888 l 189 539 l 146 539 l 146 888 l 19 888 l 19 922 l 315 922 "},"²":{"ha":525,"x_min":0,"x_max":0,"o":"m 60 467 b 417 851 60 733 417 683 b 276 975 417 929 356 975 b 103 844 197 975 136 933 l 58 864 b 276 1018 99 965 179 1018 b 468 854 381 1018 468 956 b 108 500 468 651 129 700 l 471 500 l 471 457 l 60 457 "},"u":{"ha":693,"x_min":0,"x_max":0,"o":"m 296 -14 b 83 232 156 -14 83 71 l 83 656 l 132 656 l 132 236 b 297 28 132 94 185 28 b 553 406 460 28 553 171 l 553 656 l 601 656 l 601 0 l 556 0 l 556 210 b 296 -14 521 64 438 -14 "},"ú":{"ha":693,"x_min":0,"x_max":0,"o":"m 296 -14 b 83 232 156 -14 83 71 l 83 656 l 132 656 l 132 236 b 297 28 132 94 185 28 b 553 406 460 28 553 171 l 553 656 l 601 656 l 601 0 l 556 0 l 556 210 b 296 -14 521 64 438 -14 m 543 972 l 350 781 l 301 781 l 486 974 l 543 974 "},"ŭ":{"ha":693,"x_min":0,"x_max":0,"o":"m 296 -14 b 83 232 156 -14 83 71 l 83 656 l 132 656 l 132 236 b 297 28 132 94 185 28 b 553 406 460 28 553 171 l 553 656 l 601 656 l 601 0 l 556 0 l 556 210 b 296 -14 521 64 438 -14 m 322 781 b 161 947 219 781 161 840 l 201 947 b 322 818 201 864 244 818 b 443 947 400 818 443 864 l 483 947 b 322 781 483 840 425 781 "},"û":{"ha":693,"x_min":0,"x_max":0,"o":"m 296 -14 b 83 232 156 -14 83 71 l 83 656 l 132 656 l 132 236 b 297 28 132 94 185 28 b 553 406 460 28 553 171 l 553 656 l 601 656 l 601 0 l 556 0 l 556 210 b 296 -14 521 64 438 -14 m 489 781 l 443 781 l 343 914 l 243 781 l 197 781 l 333 968 l 353 968 "},"ü":{"ha":693,"x_min":0,"x_max":0,"o":"m 296 -14 b 83 232 156 -14 83 71 l 83 656 l 132 656 l 132 236 b 297 28 132 94 185 28 b 553 406 460 28 553 171 l 553 656 l 601 656 l 601 0 l 556 0 l 556 210 b 296 -14 521 64 438 -14 m 285 785 l 221 785 l 221 853 l 285 853 m 465 785 l 401 785 l 401 853 l 465 853 "},"ù":{"ha":693,"x_min":0,"x_max":0,"o":"m 296 -14 b 83 232 156 -14 83 71 l 83 656 l 132 656 l 132 236 b 297 28 132 94 185 28 b 553 406 460 28 553 171 l 553 656 l 601 656 l 601 0 l 556 0 l 556 210 b 296 -14 521 64 438 -14 m 171 974 l 356 781 l 307 781 l 114 972 l 114 974 "},"ư":{"ha":797,"x_min":0,"x_max":0,"o":"m 700 881 b 789 733 764 847 789 790 b 601 536 789 594 640 538 l 601 0 l 556 0 l 556 210 b 299 -14 521 64 438 -14 b 83 232 154 -14 83 71 l 83 656 l 132 656 l 132 236 b 297 28 132 94 185 28 b 553 406 460 28 553 171 l 553 656 l 601 656 l 601 568 b 746 732 629 572 746 614 b 676 849 746 786 719 824 "},"ű":{"ha":693,"x_min":0,"x_max":0,"o":"m 296 -14 b 83 232 156 -14 83 71 l 83 656 l 132 656 l 132 236 b 297 28 132 94 185 28 b 553 406 460 28 553 171 l 553 656 l 601 656 l 601 0 l 556 0 l 556 210 b 296 -14 521 64 438 -14 m 431 972 l 265 781 l 222 781 l 379 974 l 431 974 m 628 972 l 446 781 l 403 781 l 574 974 l 628 974 "},"ū":{"ha":693,"x_min":0,"x_max":0,"o":"m 296 -14 b 83 232 156 -14 83 71 l 83 656 l 132 656 l 132 236 b 297 28 132 94 185 28 b 553 406 460 28 553 171 l 553 656 l 601 656 l 601 0 l 556 0 l 556 210 b 296 -14 521 64 438 -14 m 526 789 l 160 789 l 160 829 l 526 829 "},"_":{"ha":889,"x_min":0,"x_max":0,"o":"m 903 -260 l -14 -260 l -14 -219 l 903 -219 "}," ":{"ha":333,"x_min":0,"x_max":0,"o":""},"­":{"ha":339,"x_min":0,"x_max":0,"o":"m 311 342 l 28 342 l 28 388 l 311 388 "},"µ":{"ha":703,"x_min":0,"x_max":0,"o":"m 338 -14 b 138 121 263 -14 169 21 l 139 -253 l 92 -253 l 92 656 l 140 656 l 140 254 b 339 28 140 96 238 28 b 561 406 514 28 561 232 l 561 656 l 611 656 l 611 0 l 564 0 l 564 182 b 338 -14 538 60 446 -14 "},"Ţ":{"ha":746,"x_min":0,"x_max":0,"o":"m 376 -240 b 300 -224 340 -240 315 -232 l 303 -183 b 372 -201 317 -190 339 -201 b 439 -140 413 -201 439 -179 b 358 0 439 -87 403 -35 l 347 0 l 347 879 l 21 879 l 21 922 l 725 922 l 725 879 l 399 879 l 399 10 b 483 -146 467 -50 483 -104 b 376 -240 483 -204 436 -240 "},"Ə":{"ha":874,"x_min":0,"x_max":0,"o":"m 50 436 l 774 436 l 774 460 l 774 467 b 435 894 774 733 657 894 b 97 626 263 894 131 817 l 47 629 b 431 936 85 835 228 936 b 826 458 686 936 826 753 b 436 -14 826 167 689 -14 b 50 408 217 -14 43 114 m 435 29 b 771 396 638 29 753 165 l 104 396 l 104 368 b 435 29 104 172 219 29 "},"Ț":{"ha":746,"x_min":0,"x_max":0,"o":"m 725 879 l 399 879 l 399 0 l 347 0 l 347 879 l 21 879 l 21 922 l 725 922 m 315 -258 b 375 -169 364 -235 374 -218 l 340 -169 l 340 -60 l 408 -60 l 408 -162 b 322 -276 408 -226 378 -261 "},"ȷ":{"ha":232,"x_min":0,"x_max":0,"o":"m -11 -212 b 92 -82 72 -212 92 -192 l 92 656 l 140 656 l 140 -83 b -11 -253 140 -217 104 -253 l -31 -253 l -31 -212 "},"ə":{"ha":708,"x_min":0,"x_max":0,"o":"m 342 669 b 658 329 540 669 658 526 b 343 -14 658 126 529 -14 b 51 322 165 -14 51 113 l 51 339 l 610 339 b 342 629 607 504 508 629 b 83 463 190 629 117 551 l 43 476 b 342 669 78 578 168 669 m 343 26 b 608 300 494 26 599 135 l 103 300 b 343 26 104 129 197 26 "},"ʻ":{"ha":286,"x_min":0,"x_max":0,"o":"m 108 864 b 194 978 108 928 139 963 l 201 960 b 142 871 153 936 142 919 l 176 871 l 176 761 l 108 761 "},"ʼ":{"ha":286,"x_min":0,"x_max":0,"o":"m 108 779 b 168 868 156 801 167 818 l 133 868 l 133 978 l 201 978 l 201 875 b 115 761 201 811 171 776 "},"ˊ":{"ha":381,"x_min":0,"x_max":0,"o":"m 311 972 l 118 781 l 69 781 l 254 974 l 311 974 "},"ˋ":{"ha":381,"x_min":0,"x_max":0,"o":"m 126 974 l 311 781 l 263 781 l 69 972 l 69 974 "},"̀":{"ha":0,"x_min":0,"x_max":0,"o":"m -151 974 l 33 781 l -15 781 l -208 972 l -208 974 "},"́":{"ha":0,"x_min":0,"x_max":0,"o":"m 221 972 l 28 781 l -21 781 l 164 974 l 221 974 "},"̂":{"ha":0,"x_min":0,"x_max":0,"o":"m 146 781 l 100 781 l 0 914 l -100 781 l -146 781 l -10 968 l 10 968 "},"̃":{"ha":0,"x_min":0,"x_max":0,"o":"m -172 819 b -87 913 -162 881 -136 913 b 86 818 -6 913 31 818 b 135 871 114 818 125 833 l 140 903 l 176 903 l 172 874 b 88 781 164 815 138 781 b -87 875 6 781 -31 875 b -135 824 -114 875 -128 860 l -140 790 l -176 790 "},"̄":{"ha":0,"x_min":0,"x_max":0,"o":"m 183 789 l -183 789 l -183 829 l 183 829 "},"̆":{"ha":0,"x_min":0,"x_max":0,"o":"m 0 781 b -161 947 -103 781 -161 840 l -121 947 b 0 818 -121 864 -78 818 b 121 947 78 818 121 864 l 161 947 b 0 781 161 840 103 781 "},"̇":{"ha":0,"x_min":0,"x_max":0,"o":"m 32 785 l -32 785 l -32 853 l 32 853 "},"̈":{"ha":0,"x_min":0,"x_max":0,"o":"m -58 785 l -122 785 l -122 853 l -58 853 m 122 785 l 58 785 l 58 853 l 122 853 "},"̉":{"ha":0,"x_min":0,"x_max":0,"o":"m -22 799 b -3 856 -22 832 -12 844 b 104 953 36 896 104 906 b 15 1007 104 989 65 1007 b -97 964 -44 1007 -82 981 l -122 989 b 18 1044 -103 1014 -47 1044 b 147 956 81 1044 147 1015 b 40 847 147 890 71 871 b 15 793 15 829 15 806 l 15 782 l -22 782 "},"̊":{"ha":0,"x_min":0,"x_max":0,"o":"m 0 813 b 72 885 43 813 72 846 b 0 958 72 924 43 958 b -71 885 -43 958 -71 924 b 0 813 -71 846 -43 813 m 0 781 b -106 885 -65 781 -106 826 b 0 990 -106 943 -65 990 b 107 885 65 990 107 943 b 0 781 107 826 65 781 "},"̋":{"ha":0,"x_min":0,"x_max":0,"o":"m 90 972 l -75 781 l -118 781 l 39 974 l 90 974 m 288 972 l 106 781 l 63 781 l 233 974 l 288 974 "},"̌":{"ha":0,"x_min":0,"x_max":0,"o":"m 0 833 l 100 968 l 146 968 l 10 781 l -10 781 l -146 968 l -100 968 "},"̒":{"ha":0,"x_min":0,"x_max":0,"o":"m -33 892 b 53 1006 -33 956 -3 990 l 60 988 b 0 899 11 964 0 947 l 35 899 l 35 789 l -33 789 "},"̕":{"ha":0,"x_min":0,"x_max":0,"o":"m 0 936 l 49 936 l 49 928 l 14 718 l -25 718 "},"̛":{"ha":0,"x_min":0,"x_max":0,"o":"m 32 881 b 121 733 96 847 121 790 b -69 536 121 592 -35 535 l -72 568 b 78 732 -67 564 78 601 b 8 849 78 786 51 824 "},"̣":{"ha":0,"x_min":0,"x_max":0,"o":"m 32 -185 l -32 -185 l -32 -121 l 32 -121 "},"̦":{"ha":0,"x_min":0,"x_max":0,"o":"m -57 -319 b 3 -231 -8 -296 1 -279 l -32 -231 l -32 -121 l 36 -121 l 36 -224 b -50 -337 36 -287 6 -322 "},"̧":{"ha":0,"x_min":0,"x_max":0,"o":"m -19 -256 b -97 -239 -56 -256 -82 -247 l -94 -200 b -19 -217 -83 -206 -58 -217 b 50 -144 17 -217 50 -190 b -68 -4 50 -90 14 -51 l -47 21 b 96 -147 68 -39 96 -94 b -19 -256 96 -212 44 -256 "},"̨":{"ha":0,"x_min":0,"x_max":0,"o":"m -56 -256 b -172 -151 -124 -256 -172 -214 b -21 29 -172 -86 -126 -32 l 0 0 b -126 -149 -72 -39 -126 -87 b -53 -215 -126 -192 -97 -215 b 11 -200 -26 -215 0 -204 l 14 -239 b -56 -256 -1 -247 -29 -256 "},"ẞ":{"ha":825,"x_min":0,"x_max":0,"o":"m 443 -14 b 279 6 365 -14 303 -1 l 279 53 b 439 29 318 39 376 29 b 714 261 599 29 714 82 b 444 481 714 442 585 475 l 443 481 l 443 508 l 676 879 l 475 879 b 146 531 247 879 146 794 l 146 0 l 94 0 l 94 522 b 475 922 94 821 224 922 l 728 922 l 728 872 l 497 514 b 768 258 649 500 768 444 b 443 -14 768 75 650 -14 "},"Ạ":{"ha":808,"x_min":0,"x_max":0,"o":"m 371 925 l 439 925 l 774 0 l 719 0 l 600 336 l 206 336 l 86 0 l 35 0 m 221 379 l 585 379 l 401 882 m 431 -185 l 367 -185 l 367 -121 l 431 -121 "},"ạ":{"ha":640,"x_min":0,"x_max":0,"o":"m 263 -14 b 46 169 125 -14 46 63 b 286 371 46 306 165 343 b 510 458 381 393 476 407 l 510 464 b 324 631 510 576 453 631 b 115 467 208 631 117 592 l 115 463 l 65 463 b 324 669 65 608 178 669 b 558 457 482 669 558 597 l 558 49 l 561 0 l 508 0 l 508 138 b 263 -14 450 17 349 -14 m 263 28 b 510 214 393 28 471 96 l 510 413 b 292 333 474 367 381 353 b 97 171 192 311 97 279 b 263 28 97 86 154 28 m 340 -185 l 276 -185 l 276 -121 l 340 -121 "},"Ả":{"ha":808,"x_min":0,"x_max":0,"o":"m 371 925 l 439 925 l 774 0 l 719 0 l 600 336 l 206 336 l 86 0 l 35 0 m 221 379 l 585 379 l 401 882 m 392 1017 b 413 1072 392 1049 401 1061 b 522 1164 451 1110 522 1119 b 431 1215 522 1197 482 1215 b 315 1174 369 1215 331 1190 l 289 1200 b 433 1253 308 1224 367 1253 b 567 1167 497 1253 567 1225 b 457 1063 567 1104 489 1083 b 431 1011 431 1046 431 1024 l 431 1001 l 392 1001 "},"ả":{"ha":640,"x_min":0,"x_max":0,"o":"m 263 -14 b 46 169 125 -14 46 63 b 286 371 46 306 165 343 b 510 458 381 393 476 407 l 510 464 b 324 631 510 576 453 631 b 115 467 208 631 117 592 l 115 463 l 65 463 b 324 669 65 608 178 669 b 558 457 482 669 558 597 l 558 49 l 561 0 l 508 0 l 508 138 b 263 -14 450 17 349 -14 m 263 28 b 510 214 393 28 471 96 l 510 413 b 292 333 474 367 381 353 b 97 171 192 311 97 279 b 263 28 97 86 154 28 m 313 799 b 332 856 313 832 322 844 b 439 953 371 896 439 906 b 350 1007 439 989 400 1007 b 238 964 290 1007 253 981 l 213 989 b 353 1044 232 1014 288 1044 b 482 956 415 1044 482 1015 b 375 847 482 890 406 871 b 350 793 350 829 350 806 l 350 782 l 313 782 "},"Ấ":{"ha":808,"x_min":0,"x_max":0,"o":"m 371 925 l 439 925 l 774 0 l 719 0 l 600 336 l 206 336 l 86 0 l 35 0 m 221 379 l 585 379 l 401 882 m 414 1193 l 551 1018 l 506 1018 l 403 1144 l 300 1018 l 254 1018 l 392 1193 m 744 1301 l 744 1300 l 582 1129 l 540 1129 l 694 1301 "},"ấ":{"ha":640,"x_min":0,"x_max":0,"o":"m 263 -14 b 46 169 125 -14 46 63 b 286 371 46 306 165 343 b 510 458 381 393 476 407 l 510 464 b 324 631 510 576 453 631 b 115 467 208 631 117 592 l 115 463 l 65 463 b 324 669 65 608 178 669 b 558 457 482 669 558 597 l 558 49 l 561 0 l 508 0 l 508 138 b 263 -14 450 17 349 -14 m 263 28 b 510 214 393 28 471 96 l 510 413 b 292 333 474 367 381 353 b 97 171 192 311 97 279 b 263 28 97 86 154 28 m 176 781 l 311 964 l 333 964 l 468 781 l 422 781 l 322 914 l 222 781 m 657 1075 l 499 897 l 457 897 l 607 1076 l 657 1076 "},"Ầ":{"ha":808,"x_min":0,"x_max":0,"o":"m 371 925 l 439 925 l 774 0 l 719 0 l 600 336 l 206 336 l 86 0 l 35 0 m 221 379 l 585 379 l 401 882 m 414 1193 l 553 1018 l 506 1018 l 403 1144 l 300 1018 l 254 1018 l 393 1193 m 464 1301 l 514 1301 l 668 1129 l 626 1129 l 464 1300 "},"ầ":{"ha":640,"x_min":0,"x_max":0,"o":"m 263 -14 b 46 169 125 -14 46 63 b 286 371 46 306 165 343 b 510 458 381 393 476 407 l 510 464 b 324 631 510 576 453 631 b 115 467 208 631 117 592 l 115 463 l 65 463 b 324 669 65 608 178 669 b 558 457 482 669 558 597 l 558 49 l 561 0 l 508 0 l 508 138 b 263 -14 450 17 349 -14 m 263 28 b 510 214 393 28 471 96 l 510 413 b 292 333 474 367 381 353 b 97 171 192 311 97 279 b 263 28 97 86 154 28 m 333 964 l 468 781 l 422 781 l 322 914 l 222 781 l 176 781 l 311 964 m 539 897 l 381 1075 l 381 1076 l 431 1076 l 581 897 "},"Ẩ":{"ha":808,"x_min":0,"x_max":0,"o":"m 371 925 l 439 925 l 774 0 l 719 0 l 600 336 l 206 336 l 86 0 l 35 0 m 221 379 l 585 379 l 401 882 m 557 1150 b 575 1204 557 1182 567 1193 b 674 1292 608 1246 674 1253 b 592 1338 674 1321 638 1338 b 486 1297 536 1338 501 1313 l 461 1321 b 593 1375 481 1346 532 1375 b 715 1294 651 1375 715 1349 b 615 1196 715 1239 643 1217 b 593 1144 593 1178 593 1156 l 593 1133 l 557 1133 m 414 1196 l 551 1019 l 506 1019 l 403 1147 l 300 1019 l 254 1019 l 392 1196 "},"ẩ":{"ha":640,"x_min":0,"x_max":0,"o":"m 263 -14 b 46 169 125 -14 46 63 b 286 371 46 306 165 343 b 510 458 381 393 476 407 l 510 464 b 324 631 510 576 453 631 b 115 467 208 631 117 592 l 115 463 l 65 463 b 324 669 65 608 178 669 b 558 457 482 669 558 597 l 558 49 l 561 0 l 508 0 l 508 138 b 263 -14 450 17 349 -14 m 263 28 b 510 214 393 28 471 96 l 510 413 b 292 333 474 367 381 353 b 97 171 192 311 97 279 b 263 28 97 86 154 28 m 472 915 b 490 972 472 949 482 961 b 586 1064 522 1015 586 1024 b 507 1113 586 1094 551 1113 b 404 1069 453 1113 418 1086 l 379 1094 b 508 1150 397 1119 449 1150 b 628 1067 565 1150 628 1122 b 531 964 628 1008 557 986 b 508 910 508 946 508 922 l 508 899 l 472 899 m 333 964 l 468 781 l 422 781 l 322 914 l 222 781 l 176 781 l 311 964 "},"Ẫ":{"ha":808,"x_min":0,"x_max":0,"o":"m 371 925 l 439 925 l 774 0 l 719 0 l 600 336 l 206 336 l 86 0 l 35 0 m 221 379 l 585 379 l 401 882 m 482 1242 b 333 1322 408 1242 383 1322 b 288 1281 306 1322 292 1297 l 282 1250 l 246 1250 l 250 1279 b 332 1360 258 1338 293 1360 b 481 1279 406 1360 431 1279 b 526 1321 508 1279 522 1304 l 532 1351 l 568 1351 l 564 1322 b 482 1242 556 1264 521 1242 m 415 1194 l 554 1018 l 508 1018 l 404 1146 l 301 1018 l 256 1018 l 394 1194 "},"ẫ":{"ha":640,"x_min":0,"x_max":0,"o":"m 263 -14 b 46 169 125 -14 46 63 b 286 371 46 306 165 343 b 510 458 381 393 476 407 l 510 464 b 324 631 510 576 453 631 b 115 467 208 631 117 592 l 115 463 l 65 463 b 324 669 65 608 178 669 b 558 457 482 669 558 597 l 558 49 l 561 0 l 508 0 l 508 138 b 263 -14 450 17 349 -14 m 263 28 b 510 214 393 28 471 96 l 510 413 b 292 333 474 367 381 353 b 97 171 192 311 97 279 b 263 28 97 86 154 28 m 397 1017 b 249 1097 324 1017 299 1097 b 203 1056 221 1097 206 1072 l 197 1025 l 161 1025 l 165 1054 b 247 1135 174 1113 208 1135 b 396 1054 321 1135 346 1054 b 442 1096 424 1054 439 1079 l 447 1126 l 483 1126 l 479 1097 b 397 1017 471 1039 436 1017 m 331 964 l 465 781 l 419 781 l 319 914 l 219 781 l 174 781 l 308 964 "},"Ậ":{"ha":808,"x_min":0,"x_max":0,"o":"m 371 925 l 439 925 l 774 0 l 719 0 l 600 336 l 206 336 l 86 0 l 35 0 m 221 379 l 585 379 l 401 882 m 431 -185 l 367 -185 l 367 -121 l 431 -121 m 550 1018 l 504 1018 l 400 1157 l 296 1018 l 250 1018 l 389 1206 l 411 1206 "},"ậ":{"ha":640,"x_min":0,"x_max":0,"o":"m 263 -14 b 46 169 125 -14 46 63 b 286 371 46 306 165 343 b 510 458 381 393 476 407 l 510 464 b 324 631 510 576 453 631 b 115 467 208 631 117 592 l 115 463 l 65 463 b 324 669 65 608 178 669 b 558 457 482 669 558 597 l 558 49 l 561 0 l 508 0 l 508 138 b 263 -14 450 17 349 -14 m 263 28 b 510 214 393 28 471 96 l 510 413 b 292 333 474 367 381 353 b 97 171 192 311 97 279 b 263 28 97 86 154 28 m 468 781 l 422 781 l 322 914 l 222 781 l 176 781 l 313 968 l 332 968 m 340 -185 l 276 -185 l 276 -121 l 340 -121 "},"Ắ":{"ha":808,"x_min":0,"x_max":0,"o":"m 371 925 l 439 925 l 774 0 l 719 0 l 600 336 l 206 336 l 86 0 l 35 0 m 221 379 l 585 379 l 401 882 m 400 1018 b 239 1175 297 1018 236 1075 l 279 1175 b 400 1057 276 1097 322 1057 b 521 1175 478 1057 524 1097 l 563 1175 b 400 1018 565 1075 503 1018 m 578 1376 l 578 1375 l 414 1204 l 371 1204 l 526 1376 "},"ắ":{"ha":640,"x_min":0,"x_max":0,"o":"m 263 -14 b 46 169 125 -14 46 63 b 286 371 46 306 165 343 b 510 458 381 393 476 407 l 510 464 b 324 631 510 576 453 631 b 115 467 208 631 117 592 l 115 463 l 65 463 b 324 669 65 608 178 669 b 558 457 482 669 558 597 l 558 49 l 561 0 l 508 0 l 508 138 b 263 -14 450 17 349 -14 m 263 28 b 510 214 393 28 471 96 l 510 413 b 292 333 474 367 381 353 b 97 171 192 311 97 279 b 263 28 97 86 154 28 m 494 1151 l 336 974 l 293 974 l 443 1153 l 494 1153 m 322 781 b 165 943 222 781 163 839 l 206 943 b 322 818 203 861 247 818 b 439 943 397 818 442 861 l 479 943 b 322 781 482 839 422 781 "},"Ằ":{"ha":808,"x_min":0,"x_max":0,"o":"m 371 925 l 439 925 l 774 0 l 719 0 l 600 336 l 206 336 l 86 0 l 35 0 m 221 379 l 585 379 l 401 882 m 400 1018 b 238 1175 297 1018 235 1075 l 279 1175 b 400 1056 275 1097 322 1056 b 521 1175 478 1056 524 1097 l 561 1175 b 400 1018 564 1075 503 1018 m 386 1204 l 222 1375 l 222 1376 l 274 1376 l 429 1204 "},"ằ":{"ha":640,"x_min":0,"x_max":0,"o":"m 263 -14 b 46 169 125 -14 46 63 b 286 371 46 306 165 343 b 510 458 381 393 476 407 l 510 464 b 324 631 510 576 453 631 b 115 467 208 631 117 592 l 115 463 l 65 463 b 324 669 65 608 178 669 b 558 457 482 669 558 597 l 558 49 l 561 0 l 508 0 l 508 138 b 263 -14 450 17 349 -14 m 263 28 b 510 214 393 28 471 96 l 510 413 b 292 333 474 367 381 353 b 97 171 192 311 97 279 b 263 28 97 86 154 28 m 322 781 b 165 943 222 781 163 839 l 206 943 b 322 818 203 861 247 818 b 439 943 397 818 442 861 l 479 943 b 322 781 482 839 422 781 m 150 1153 l 201 1153 l 351 974 l 308 974 l 150 1151 "},"Ẳ":{"ha":808,"x_min":0,"x_max":0,"o":"m 371 925 l 439 925 l 774 0 l 719 0 l 600 336 l 206 336 l 86 0 l 35 0 m 221 379 l 585 379 l 401 882 m 381 1203 b 400 1257 381 1235 390 1246 b 500 1344 435 1297 500 1307 b 417 1392 500 1374 463 1392 b 311 1350 361 1392 325 1365 l 285 1374 b 418 1428 304 1399 357 1428 b 542 1347 476 1428 542 1401 b 442 1249 542 1292 468 1269 b 418 1197 418 1231 418 1210 l 418 1186 l 381 1186 m 400 1018 b 239 1175 297 1018 236 1075 l 279 1175 b 400 1057 276 1097 322 1057 b 521 1175 478 1057 524 1097 l 563 1175 b 400 1018 565 1075 503 1018 "},"ẳ":{"ha":640,"x_min":0,"x_max":0,"o":"m 263 -14 b 46 169 125 -14 46 63 b 286 371 46 306 165 343 b 510 458 381 393 476 407 l 510 464 b 324 631 510 576 453 631 b 115 467 208 631 117 592 l 115 463 l 65 463 b 324 669 65 608 178 669 b 558 457 482 669 558 597 l 558 49 l 561 0 l 508 0 l 508 138 b 263 -14 450 17 349 -14 m 263 28 b 510 214 393 28 471 96 l 510 413 b 292 333 474 367 381 353 b 97 171 192 311 97 279 b 263 28 97 86 154 28 m 303 969 b 321 1026 303 1003 313 1015 b 417 1118 353 1069 417 1078 b 338 1167 417 1149 382 1167 b 235 1124 283 1167 249 1140 l 210 1149 b 339 1204 228 1174 279 1204 b 458 1121 396 1204 458 1176 b 361 1018 458 1063 388 1040 b 339 964 339 1000 339 976 l 339 953 l 303 953 m 322 781 b 165 943 222 781 163 839 l 206 943 b 322 818 203 861 247 818 b 439 943 397 818 442 861 l 479 943 b 322 781 482 839 422 781 "},"Ẵ":{"ha":808,"x_min":0,"x_max":0,"o":"m 371 925 l 439 925 l 774 0 l 719 0 l 600 336 l 206 336 l 86 0 l 35 0 m 221 379 l 585 379 l 401 882 m 400 1018 b 239 1175 297 1018 236 1075 l 279 1175 b 400 1057 276 1097 322 1057 b 521 1175 478 1057 524 1097 l 563 1175 b 400 1018 565 1075 503 1018 m 478 1242 b 329 1322 404 1242 379 1322 b 283 1281 301 1322 288 1297 l 278 1250 l 242 1250 l 246 1279 b 328 1360 254 1338 289 1360 b 476 1279 401 1360 426 1279 b 522 1321 504 1279 518 1304 l 528 1351 l 564 1351 l 560 1322 b 478 1242 551 1264 517 1242 "},"ẵ":{"ha":640,"x_min":0,"x_max":0,"o":"m 263 -14 b 46 169 125 -14 46 63 b 286 371 46 306 165 343 b 510 458 381 393 476 407 l 510 464 b 324 631 510 576 453 631 b 115 467 208 631 117 592 l 115 463 l 65 463 b 324 669 65 608 178 669 b 558 457 482 669 558 597 l 558 49 l 561 0 l 508 0 l 508 138 b 263 -14 450 17 349 -14 m 263 28 b 510 214 393 28 471 96 l 510 413 b 292 333 474 367 381 353 b 97 171 192 311 97 279 b 263 28 97 86 154 28 m 322 781 b 165 943 222 781 163 839 l 206 943 b 322 818 203 861 247 818 b 439 943 397 818 442 861 l 479 943 b 322 781 482 839 422 781 m 400 1017 b 251 1097 326 1017 301 1097 b 206 1056 224 1097 208 1072 l 200 1025 l 164 1025 l 168 1054 b 250 1135 176 1113 211 1135 b 399 1054 324 1135 349 1054 b 444 1096 426 1054 442 1079 l 450 1126 l 486 1126 l 482 1097 b 400 1017 474 1039 439 1017 "},"Ặ":{"ha":808,"x_min":0,"x_max":0,"o":"m 371 925 l 439 925 l 774 0 l 719 0 l 600 336 l 206 336 l 86 0 l 35 0 m 221 379 l 585 379 l 401 882 m 400 1018 b 236 1178 301 1018 236 1076 l 278 1178 b 400 1056 278 1099 328 1056 b 524 1178 471 1056 524 1099 l 565 1178 b 400 1018 565 1076 499 1018 m 431 -185 l 367 -185 l 367 -121 l 431 -121 "},"ặ":{"ha":640,"x_min":0,"x_max":0,"o":"m 263 -14 b 46 169 125 -14 46 63 b 286 371 46 306 165 343 b 510 458 381 393 476 407 l 510 464 b 324 631 510 576 453 631 b 115 467 208 631 117 592 l 115 463 l 65 463 b 324 669 65 608 178 669 b 558 457 482 669 558 597 l 558 49 l 561 0 l 508 0 l 508 138 b 263 -14 450 17 349 -14 m 263 28 b 510 214 393 28 471 96 l 510 413 b 292 333 474 367 381 353 b 97 171 192 311 97 279 b 263 28 97 86 154 28 m 322 781 b 161 947 219 781 161 840 l 201 947 b 322 818 201 864 244 818 b 443 947 400 818 443 864 l 483 947 b 322 781 483 840 425 781 m 340 -185 l 276 -185 l 276 -121 l 340 -121 "},"Ẹ":{"ha":742,"x_min":0,"x_max":0,"o":"m 489 475 l 147 475 l 147 43 l 714 43 l 714 0 l 96 0 l 96 922 l 672 922 l 672 879 l 147 879 l 147 517 l 489 517 m 436 -185 l 372 -185 l 372 -121 l 436 -121 "},"ẹ":{"ha":708,"x_min":0,"x_max":0,"o":"m 360 -14 b 43 326 161 -14 43 129 b 358 669 43 529 172 669 b 650 333 536 669 650 543 l 650 317 l 92 317 b 360 26 94 150 192 26 b 619 193 511 26 586 104 l 658 179 b 360 -14 624 78 533 -14 m 358 629 b 92 356 206 629 101 519 l 599 356 b 358 629 597 526 504 629 m 394 -185 l 331 -185 l 331 -121 l 394 -121 "},"Ẻ":{"ha":742,"x_min":0,"x_max":0,"o":"m 489 475 l 147 475 l 147 43 l 714 43 l 714 0 l 96 0 l 96 922 l 672 922 l 672 879 l 147 879 l 147 517 l 489 517 m 396 1017 b 417 1072 396 1049 406 1061 b 526 1164 456 1110 526 1119 b 435 1215 526 1197 486 1215 b 319 1174 374 1215 335 1190 l 293 1200 b 438 1253 313 1224 371 1253 b 571 1167 501 1253 571 1225 b 461 1063 571 1104 493 1083 b 435 1011 435 1046 435 1024 l 435 1001 l 396 1001 "},"ẻ":{"ha":708,"x_min":0,"x_max":0,"o":"m 360 -14 b 43 326 161 -14 43 129 b 358 669 43 529 172 669 b 650 333 536 669 650 543 l 650 317 l 92 317 b 360 26 94 150 192 26 b 619 193 511 26 586 104 l 658 179 b 360 -14 624 78 533 -14 m 358 629 b 92 356 206 629 101 519 l 599 356 b 358 629 597 526 504 629 m 351 799 b 371 856 351 832 361 844 b 478 953 410 896 478 906 b 389 1007 478 989 439 1007 b 276 964 329 1007 292 981 l 251 989 b 392 1044 271 1014 326 1044 b 521 956 454 1044 521 1015 b 414 847 521 890 444 871 b 389 793 389 829 389 806 l 389 782 l 351 782 "},"Ẽ":{"ha":742,"x_min":0,"x_max":0,"o":"m 489 475 l 147 475 l 147 43 l 714 43 l 714 0 l 96 0 l 96 922 l 672 922 l 672 879 l 147 879 l 147 517 l 489 517 m 228 1028 l 232 1056 b 318 1144 240 1114 269 1144 b 493 1056 399 1144 432 1056 b 538 1104 515 1056 532 1076 l 543 1135 l 581 1135 l 576 1107 b 490 1018 568 1049 539 1018 b 315 1107 410 1018 376 1107 b 271 1058 293 1107 276 1086 l 265 1028 "},"ẽ":{"ha":708,"x_min":0,"x_max":0,"o":"m 360 -14 b 43 326 161 -14 43 129 b 358 669 43 529 172 669 b 650 333 536 669 650 543 l 650 317 l 92 317 b 360 26 94 150 192 26 b 619 193 511 26 586 104 l 658 179 b 360 -14 624 78 533 -14 m 358 629 b 92 356 206 629 101 519 l 599 356 b 358 629 597 526 504 629 m 189 819 b 274 913 199 881 225 913 b 447 818 356 913 392 818 b 496 871 475 818 486 833 l 501 903 l 538 903 l 533 874 b 449 781 525 815 499 781 b 274 875 367 781 331 875 b 226 824 247 875 233 860 l 221 790 l 185 790 "},"Ế":{"ha":742,"x_min":0,"x_max":0,"o":"m 489 475 l 147 475 l 147 43 l 714 43 l 714 0 l 96 0 l 96 922 l 672 922 l 672 879 l 147 879 l 147 517 l 489 517 m 418 1193 l 556 1018 l 510 1018 l 407 1144 l 304 1018 l 258 1018 l 396 1193 m 749 1301 l 749 1300 l 586 1129 l 544 1129 l 699 1301 "},"ế":{"ha":708,"x_min":0,"x_max":0,"o":"m 360 -14 b 43 326 161 -14 43 129 b 358 669 43 529 172 669 b 650 333 536 669 650 543 l 650 317 l 92 317 b 360 26 94 150 192 26 b 619 193 511 26 586 104 l 658 179 b 360 -14 624 78 533 -14 m 358 629 b 92 356 206 629 101 519 l 599 356 b 358 629 597 526 504 629 m 215 781 l 350 964 l 372 964 l 507 781 l 461 781 l 361 914 l 261 781 m 696 1075 l 538 897 l 496 897 l 646 1076 l 696 1076 "},"Ề":{"ha":742,"x_min":0,"x_max":0,"o":"m 489 475 l 147 475 l 147 43 l 714 43 l 714 0 l 96 0 l 96 922 l 672 922 l 672 879 l 147 879 l 147 517 l 489 517 m 418 1193 l 557 1018 l 510 1018 l 407 1144 l 304 1018 l 258 1018 l 397 1193 m 468 1301 l 518 1301 l 672 1129 l 631 1129 l 468 1300 "},"ề":{"ha":708,"x_min":0,"x_max":0,"o":"m 360 -14 b 43 326 161 -14 43 129 b 358 669 43 529 172 669 b 650 333 536 669 650 543 l 650 317 l 92 317 b 360 26 94 150 192 26 b 619 193 511 26 586 104 l 658 179 b 360 -14 624 78 533 -14 m 358 629 b 92 356 206 629 101 519 l 599 356 b 358 629 597 526 504 629 m 372 964 l 507 781 l 461 781 l 361 914 l 261 781 l 215 781 l 350 964 m 578 897 l 419 1075 l 419 1076 l 469 1076 l 619 897 "},"Ể":{"ha":742,"x_min":0,"x_max":0,"o":"m 489 475 l 147 475 l 147 43 l 714 43 l 714 0 l 96 0 l 96 922 l 672 922 l 672 879 l 147 879 l 147 517 l 489 517 m 561 1150 b 579 1204 561 1182 571 1193 b 678 1292 613 1246 678 1253 b 596 1338 678 1321 642 1338 b 490 1297 540 1338 506 1313 l 465 1321 b 597 1375 485 1346 536 1375 b 719 1294 656 1375 719 1349 b 619 1196 719 1239 647 1217 b 597 1144 597 1178 597 1156 l 597 1133 l 561 1133 m 418 1196 l 556 1019 l 510 1019 l 407 1147 l 304 1019 l 258 1019 l 396 1196 "},"ể":{"ha":708,"x_min":0,"x_max":0,"o":"m 360 -14 b 43 326 161 -14 43 129 b 358 669 43 529 172 669 b 650 333 536 669 650 543 l 650 317 l 92 317 b 360 26 94 150 192 26 b 619 193 511 26 586 104 l 658 179 b 360 -14 624 78 533 -14 m 358 629 b 92 356 206 629 101 519 l 599 356 b 358 629 597 526 504 629 m 511 915 b 529 972 511 949 521 961 b 625 1064 561 1015 625 1024 b 546 1113 625 1094 590 1113 b 443 1069 492 1113 457 1086 l 418 1094 b 547 1150 436 1119 488 1150 b 667 1067 604 1150 667 1122 b 569 964 667 1008 596 986 b 547 910 547 946 547 922 l 547 899 l 511 899 m 372 964 l 507 781 l 461 781 l 361 914 l 261 781 l 215 781 l 350 964 "},"Ễ":{"ha":742,"x_min":0,"x_max":0,"o":"m 489 475 l 147 475 l 147 43 l 714 43 l 714 0 l 96 0 l 96 922 l 672 922 l 672 879 l 147 879 l 147 517 l 489 517 m 486 1242 b 338 1322 413 1242 388 1322 b 292 1281 310 1322 296 1297 l 286 1250 l 250 1250 l 254 1279 b 336 1360 263 1338 297 1360 b 485 1279 410 1360 435 1279 b 531 1321 513 1279 526 1304 l 536 1351 l 572 1351 l 568 1322 b 486 1242 560 1264 525 1242 m 419 1194 l 558 1018 l 513 1018 l 408 1146 l 306 1018 l 260 1018 l 399 1194 "},"ễ":{"ha":708,"x_min":0,"x_max":0,"o":"m 360 -14 b 43 326 161 -14 43 129 b 358 669 43 529 172 669 b 650 333 536 669 650 543 l 650 317 l 92 317 b 360 26 94 150 192 26 b 619 193 511 26 586 104 l 658 179 b 360 -14 624 78 533 -14 m 358 629 b 92 356 206 629 101 519 l 599 356 b 358 629 597 526 504 629 m 436 1017 b 288 1097 363 1017 338 1097 b 242 1056 260 1097 244 1072 l 236 1025 l 200 1025 l 204 1054 b 286 1135 213 1113 247 1135 b 435 1054 360 1135 385 1054 b 481 1096 463 1054 478 1079 l 486 1126 l 522 1126 l 518 1097 b 436 1017 510 1039 475 1017 m 369 964 l 504 781 l 458 781 l 358 914 l 258 781 l 213 781 l 347 964 "},"Ệ":{"ha":742,"x_min":0,"x_max":0,"o":"m 489 475 l 147 475 l 147 43 l 714 43 l 714 0 l 96 0 l 96 922 l 672 922 l 672 879 l 147 879 l 147 517 l 489 517 m 436 -185 l 372 -185 l 372 -121 l 436 -121 m 554 1018 l 508 1018 l 404 1157 l 300 1018 l 254 1018 l 393 1206 l 415 1206 "},"ệ":{"ha":708,"x_min":0,"x_max":0,"o":"m 360 -14 b 43 326 161 -14 43 129 b 358 669 43 529 172 669 b 650 333 536 669 650 543 l 650 317 l 92 317 b 360 26 94 150 192 26 b 619 193 511 26 586 104 l 658 179 b 360 -14 624 78 533 -14 m 358 629 b 92 356 206 629 101 519 l 599 356 b 358 629 597 526 504 629 m 507 781 l 461 781 l 361 914 l 261 781 l 215 781 l 351 968 l 371 968 m 394 -185 l 331 -185 l 331 -121 l 394 -121 "},"Ỉ":{"ha":243,"x_min":0,"x_max":0,"o":"m 147 0 l 96 0 l 96 922 l 147 922 m 113 1017 b 133 1072 113 1049 122 1061 b 243 1164 172 1110 243 1119 b 151 1215 243 1197 203 1215 b 36 1174 90 1215 51 1190 l 10 1200 b 154 1253 29 1224 88 1253 b 288 1167 218 1253 288 1225 b 178 1063 288 1104 210 1083 b 151 1011 151 1046 151 1024 l 151 1001 l 113 1001 "},"ỉ":{"ha":232,"x_min":0,"x_max":0,"o":"m 140 0 l 92 0 l 92 656 l 140 656 m 106 799 b 125 856 106 832 115 844 b 232 953 164 896 232 906 b 150 1007 232 989 193 1007 b 44 964 97 1007 60 981 l 19 989 b 153 1044 39 1014 94 1044 b 275 956 210 1044 275 1015 b 168 847 275 890 199 871 b 143 793 143 829 143 806 l 143 782 l 106 782 "},"Ị":{"ha":243,"x_min":0,"x_max":0,"o":"m 147 0 l 96 0 l 96 922 l 147 922 m 153 -185 l 89 -185 l 89 -121 l 153 -121 "},"ị":{"ha":232,"x_min":0,"x_max":0,"o":"m 140 0 l 92 0 l 92 656 l 140 656 m 147 789 l 83 789 l 83 853 l 147 853 m 147 -185 l 83 -185 l 83 -121 l 147 -121 "},"Ọ":{"ha":975,"x_min":0,"x_max":0,"o":"m 485 31 b 875 451 726 31 875 193 l 875 468 b 490 892 875 726 726 892 b 100 471 249 892 100 729 l 100 454 b 485 31 100 196 247 31 m 485 -14 b 47 463 218 -14 47 172 b 490 936 47 753 219 936 b 928 460 756 936 928 750 b 485 -14 928 169 756 -14 m 519 -185 l 456 -185 l 456 -121 l 519 -121 "},"ọ":{"ha":724,"x_min":0,"x_max":0,"o":"m 361 26 b 632 325 528 26 632 144 l 632 331 b 364 629 632 511 529 629 b 92 331 196 629 92 511 l 92 325 b 361 26 92 144 194 26 m 361 -14 b 43 328 168 -14 43 124 b 364 669 43 532 171 669 b 681 328 556 669 681 532 b 361 -14 681 125 554 -14 m 393 -185 l 329 -185 l 329 -121 l 393 -121 "},"Ỏ":{"ha":975,"x_min":0,"x_max":0,"o":"m 485 31 b 875 451 726 31 875 193 l 875 468 b 490 892 875 726 726 892 b 100 471 249 892 100 729 l 100 454 b 485 31 100 196 247 31 m 485 -14 b 47 463 218 -14 47 172 b 490 936 47 753 219 936 b 928 460 756 936 928 750 b 485 -14 928 169 756 -14 m 479 1017 b 500 1072 479 1049 489 1061 b 610 1164 539 1110 610 1119 b 518 1215 610 1197 569 1215 b 403 1174 457 1215 418 1190 l 376 1200 b 521 1253 396 1224 454 1253 b 654 1167 585 1253 654 1225 b 544 1063 654 1104 576 1083 b 518 1011 518 1046 518 1024 l 518 1001 l 479 1001 "},"ỏ":{"ha":724,"x_min":0,"x_max":0,"o":"m 361 26 b 632 325 528 26 632 144 l 632 331 b 364 629 632 511 529 629 b 92 331 196 629 92 511 l 92 325 b 361 26 92 144 194 26 m 361 -14 b 43 328 168 -14 43 124 b 364 669 43 532 171 669 b 681 328 556 669 681 532 b 361 -14 681 125 554 -14 m 351 799 b 371 856 351 832 361 844 b 478 953 410 896 478 906 b 389 1007 478 989 439 1007 b 276 964 329 1007 292 981 l 251 989 b 392 1044 271 1014 326 1044 b 521 956 454 1044 521 1015 b 414 847 521 890 444 871 b 389 793 389 829 389 806 l 389 782 l 351 782 "},"Ố":{"ha":975,"x_min":0,"x_max":0,"o":"m 485 31 b 875 451 726 31 875 193 l 875 468 b 490 892 875 726 726 892 b 100 471 249 892 100 729 l 100 454 b 485 31 100 196 247 31 m 485 -14 b 47 463 218 -14 47 172 b 490 936 47 753 219 936 b 928 460 756 936 928 750 b 485 -14 928 169 756 -14 m 501 1193 l 639 1018 l 593 1018 l 490 1144 l 388 1018 l 342 1018 l 479 1193 m 832 1301 l 832 1300 l 669 1129 l 628 1129 l 782 1301 "},"ố":{"ha":724,"x_min":0,"x_max":0,"o":"m 361 26 b 632 325 528 26 632 144 l 632 331 b 364 629 632 511 529 629 b 92 331 196 629 92 511 l 92 325 b 361 26 92 144 194 26 m 361 -14 b 43 328 168 -14 43 124 b 364 669 43 532 171 669 b 681 328 556 669 681 532 b 361 -14 681 125 554 -14 m 215 781 l 350 964 l 372 964 l 507 781 l 461 781 l 361 914 l 261 781 m 696 1075 l 538 897 l 496 897 l 646 1076 l 696 1076 "},"Ồ":{"ha":975,"x_min":0,"x_max":0,"o":"m 485 31 b 875 451 726 31 875 193 l 875 468 b 490 892 875 726 726 892 b 100 471 249 892 100 729 l 100 454 b 485 31 100 196 247 31 m 485 -14 b 47 463 218 -14 47 172 b 490 936 47 753 219 936 b 928 460 756 936 928 750 b 485 -14 928 169 756 -14 m 501 1193 l 640 1018 l 593 1018 l 490 1144 l 388 1018 l 342 1018 l 481 1193 m 551 1301 l 601 1301 l 756 1129 l 714 1129 l 551 1300 "},"ồ":{"ha":724,"x_min":0,"x_max":0,"o":"m 361 26 b 632 325 528 26 632 144 l 632 331 b 364 629 632 511 529 629 b 92 331 196 629 92 511 l 92 325 b 361 26 92 144 194 26 m 361 -14 b 43 328 168 -14 43 124 b 364 669 43 532 171 669 b 681 328 556 669 681 532 b 361 -14 681 125 554 -14 m 372 964 l 507 781 l 461 781 l 361 914 l 261 781 l 215 781 l 350 964 m 578 897 l 419 1075 l 419 1076 l 469 1076 l 619 897 "},"Ổ":{"ha":975,"x_min":0,"x_max":0,"o":"m 485 31 b 875 451 726 31 875 193 l 875 468 b 490 892 875 726 726 892 b 100 471 249 892 100 729 l 100 454 b 485 31 100 196 247 31 m 485 -14 b 47 463 218 -14 47 172 b 490 936 47 753 219 936 b 928 460 756 936 928 750 b 485 -14 928 169 756 -14 m 644 1150 b 663 1204 644 1182 654 1193 b 761 1292 696 1246 761 1253 b 679 1338 761 1321 725 1338 b 574 1297 624 1338 589 1313 l 549 1321 b 681 1375 568 1346 619 1375 b 803 1294 739 1375 803 1349 b 703 1196 803 1239 731 1217 b 681 1144 681 1178 681 1156 l 681 1133 l 644 1133 m 501 1196 l 639 1019 l 593 1019 l 490 1147 l 388 1019 l 342 1019 l 479 1196 "},"ổ":{"ha":724,"x_min":0,"x_max":0,"o":"m 361 26 b 632 325 528 26 632 144 l 632 331 b 364 629 632 511 529 629 b 92 331 196 629 92 511 l 92 325 b 361 26 92 144 194 26 m 361 -14 b 43 328 168 -14 43 124 b 364 669 43 532 171 669 b 681 328 556 669 681 532 b 361 -14 681 125 554 -14 m 511 915 b 529 972 511 949 521 961 b 625 1064 561 1015 625 1024 b 546 1113 625 1094 590 1113 b 443 1069 492 1113 457 1086 l 418 1094 b 547 1150 436 1119 488 1150 b 667 1067 604 1150 667 1122 b 569 964 667 1008 596 986 b 547 910 547 946 547 922 l 547 899 l 511 899 m 372 964 l 507 781 l 461 781 l 361 914 l 261 781 l 215 781 l 350 964 "},"Ỗ":{"ha":975,"x_min":0,"x_max":0,"o":"m 485 31 b 875 451 726 31 875 193 l 875 468 b 490 892 875 726 726 892 b 100 471 249 892 100 729 l 100 454 b 485 31 100 196 247 31 m 485 -14 b 47 463 218 -14 47 172 b 490 936 47 753 219 936 b 928 460 756 936 928 750 b 485 -14 928 169 756 -14 m 569 1242 b 421 1322 496 1242 471 1322 b 375 1281 393 1322 379 1297 l 369 1250 l 333 1250 l 338 1279 b 419 1360 346 1338 381 1360 b 568 1279 493 1360 518 1279 b 614 1321 596 1279 610 1304 l 619 1351 l 656 1351 l 651 1322 b 569 1242 643 1264 608 1242 m 503 1194 l 642 1018 l 596 1018 l 492 1146 l 389 1018 l 343 1018 l 482 1194 "},"ỗ":{"ha":724,"x_min":0,"x_max":0,"o":"m 361 26 b 632 325 528 26 632 144 l 632 331 b 364 629 632 511 529 629 b 92 331 196 629 92 511 l 92 325 b 361 26 92 144 194 26 m 361 -14 b 43 328 168 -14 43 124 b 364 669 43 532 171 669 b 681 328 556 669 681 532 b 361 -14 681 125 554 -14 m 436 1017 b 288 1097 363 1017 338 1097 b 242 1056 260 1097 244 1072 l 236 1025 l 200 1025 l 204 1054 b 286 1135 213 1113 247 1135 b 435 1054 360 1135 385 1054 b 481 1096 463 1054 478 1079 l 486 1126 l 522 1126 l 518 1097 b 436 1017 510 1039 475 1017 m 369 964 l 504 781 l 458 781 l 358 914 l 258 781 l 213 781 l 347 964 "},"Ộ":{"ha":975,"x_min":0,"x_max":0,"o":"m 485 31 b 875 451 726 31 875 193 l 875 468 b 490 892 875 726 726 892 b 100 471 249 892 100 729 l 100 454 b 485 31 100 196 247 31 m 485 -14 b 47 463 218 -14 47 172 b 490 936 47 753 219 936 b 928 460 756 936 928 750 b 485 -14 928 169 756 -14 m 638 1018 l 592 1018 l 488 1157 l 383 1018 l 338 1018 l 476 1206 l 499 1206 m 519 -185 l 456 -185 l 456 -121 l 519 -121 "},"ộ":{"ha":724,"x_min":0,"x_max":0,"o":"m 361 26 b 632 325 528 26 632 144 l 632 331 b 364 629 632 511 529 629 b 92 331 196 629 92 511 l 92 325 b 361 26 92 144 194 26 m 361 -14 b 43 328 168 -14 43 124 b 364 669 43 532 171 669 b 681 328 556 669 681 532 b 361 -14 681 125 554 -14 m 507 781 l 461 781 l 361 914 l 261 781 l 215 781 l 351 968 l 371 968 m 393 -185 l 329 -185 l 329 -121 l 393 -121 "},"Ớ":{"ha":1033,"x_min":0,"x_max":0,"o":"m 485 -14 b 47 463 218 -14 47 172 b 490 936 47 753 219 936 b 846 757 647 936 771 871 b 974 924 892 774 974 822 b 901 1047 974 982 946 1021 l 919 1082 b 1019 925 992 1047 1019 986 b 865 726 1019 814 928 749 b 928 460 906 653 928 563 b 485 -14 928 169 756 -14 m 485 31 b 875 451 726 31 875 193 l 875 468 b 490 892 875 726 726 892 b 100 471 249 892 100 729 l 100 454 b 485 31 100 196 247 31 m 708 1210 l 515 1018 l 465 1018 l 650 1211 l 708 1211 "},"ớ":{"ha":783,"x_min":0,"x_max":0,"o":"m 688 881 b 776 733 751 847 776 790 b 619 542 776 619 678 561 b 681 328 658 485 681 413 b 361 -14 681 125 554 -14 b 43 328 168 -14 43 124 b 364 669 43 532 171 669 b 599 569 463 669 543 633 b 733 732 636 581 733 624 b 664 849 733 786 707 824 m 361 26 b 631 325 528 26 631 144 l 631 331 b 364 629 631 511 529 629 b 93 331 196 629 93 511 l 93 325 b 361 26 93 144 194 26 m 582 972 l 389 781 l 340 781 l 525 974 l 582 974 "},"Ờ":{"ha":1033,"x_min":0,"x_max":0,"o":"m 485 -14 b 47 463 218 -14 47 172 b 490 936 47 753 219 936 b 846 757 647 936 771 871 b 974 924 892 774 974 822 b 901 1047 974 982 946 1021 l 919 1082 b 1019 925 992 1047 1019 986 b 865 726 1019 814 928 749 b 928 460 906 653 928 563 b 485 -14 928 169 756 -14 m 485 31 b 875 451 726 31 875 193 l 875 468 b 490 892 875 726 726 892 b 100 471 249 892 100 729 l 100 454 b 485 31 100 196 247 31 m 324 1211 l 508 1018 l 460 1018 l 267 1210 l 267 1211 "},"ờ":{"ha":783,"x_min":0,"x_max":0,"o":"m 688 881 b 776 733 751 847 776 790 b 619 542 776 619 678 561 b 681 328 658 485 681 413 b 361 -14 681 125 554 -14 b 43 328 168 -14 43 124 b 364 669 43 532 171 669 b 599 569 463 669 543 633 b 733 732 636 581 733 624 b 664 849 733 786 707 824 m 361 26 b 631 325 528 26 631 144 l 631 331 b 364 629 631 511 529 629 b 93 331 196 629 93 511 l 93 325 b 361 26 93 144 194 26 m 210 974 l 394 781 l 346 781 l 153 972 l 153 974 "},"Ở":{"ha":1033,"x_min":0,"x_max":0,"o":"m 485 -14 b 47 463 218 -14 47 172 b 490 936 47 753 219 936 b 846 757 647 936 771 871 b 974 924 892 774 974 822 b 901 1047 974 982 946 1021 l 919 1082 b 1019 925 992 1047 1019 986 b 865 726 1019 814 928 749 b 928 460 906 653 928 563 b 485 -14 928 169 756 -14 m 485 31 b 875 451 726 31 875 193 l 875 468 b 490 892 875 726 726 892 b 100 471 249 892 100 729 l 100 454 b 485 31 100 196 247 31 m 479 1017 b 500 1072 479 1049 489 1061 b 610 1164 539 1110 610 1119 b 518 1215 610 1197 569 1215 b 403 1174 457 1215 418 1190 l 376 1200 b 521 1253 396 1224 454 1253 b 654 1167 585 1253 654 1225 b 544 1063 654 1104 576 1083 b 518 1011 518 1046 518 1024 l 518 1001 l 479 1001 "},"ở":{"ha":783,"x_min":0,"x_max":0,"o":"m 688 881 b 776 733 751 847 776 790 b 619 542 776 619 678 561 b 681 328 658 485 681 413 b 361 -14 681 125 554 -14 b 43 328 168 -14 43 124 b 364 669 43 532 171 669 b 599 569 463 669 543 633 b 733 732 636 581 733 624 b 664 849 733 786 707 824 m 361 26 b 631 325 528 26 631 144 l 631 331 b 364 629 631 511 529 629 b 93 331 196 629 93 511 l 93 325 b 361 26 93 144 194 26 m 351 799 b 371 856 351 832 361 844 b 478 953 410 896 478 906 b 389 1007 478 989 439 1007 b 276 964 329 1007 292 981 l 251 989 b 392 1044 271 1014 326 1044 b 521 956 454 1044 521 1015 b 414 847 521 890 444 871 b 389 793 389 829 389 806 l 389 782 l 351 782 "},"Ỡ":{"ha":1033,"x_min":0,"x_max":0,"o":"m 485 -14 b 47 463 218 -14 47 172 b 490 936 47 753 219 936 b 846 757 647 936 771 871 b 974 924 892 774 974 822 b 901 1047 974 982 946 1021 l 919 1082 b 1019 925 992 1047 1019 986 b 865 726 1019 814 928 749 b 928 460 906 653 928 563 b 485 -14 928 169 756 -14 m 485 31 b 875 451 726 31 875 193 l 875 468 b 490 892 875 726 726 892 b 100 471 249 892 100 729 l 100 454 b 485 31 100 196 247 31 m 311 1028 l 315 1056 b 401 1144 324 1114 353 1144 b 576 1056 482 1144 515 1056 b 621 1104 599 1056 615 1076 l 626 1135 l 664 1135 l 660 1107 b 574 1018 651 1049 622 1018 b 399 1107 493 1018 460 1107 b 354 1058 376 1107 360 1086 l 349 1028 "},"ỡ":{"ha":783,"x_min":0,"x_max":0,"o":"m 688 881 b 776 733 751 847 776 790 b 619 542 776 619 678 561 b 681 328 658 485 681 413 b 361 -14 681 125 554 -14 b 43 328 168 -14 43 124 b 364 669 43 532 171 669 b 599 569 463 669 543 633 b 733 732 636 581 733 624 b 664 849 733 786 707 824 m 361 26 b 631 325 528 26 631 144 l 631 331 b 364 629 631 511 529 629 b 93 331 196 629 93 511 l 93 325 b 361 26 93 144 194 26 m 189 819 b 274 913 199 881 225 913 b 447 818 356 913 392 818 b 496 871 475 818 486 833 l 501 903 l 538 903 l 533 874 b 449 781 525 815 499 781 b 274 875 367 781 331 875 b 226 824 247 875 233 860 l 221 790 l 185 790 "},"Ợ":{"ha":1033,"x_min":0,"x_max":0,"o":"m 485 -14 b 47 463 218 -14 47 172 b 490 936 47 753 219 936 b 846 757 647 936 771 871 b 974 924 892 774 974 822 b 901 1047 974 982 946 1021 l 919 1082 b 1019 925 992 1047 1019 986 b 865 726 1019 814 928 749 b 928 460 906 653 928 563 b 485 -14 928 169 756 -14 m 485 31 b 875 451 726 31 875 193 l 875 468 b 490 892 875 726 726 892 b 100 471 249 892 100 729 l 100 454 b 485 31 100 196 247 31 m 519 -185 l 456 -185 l 456 -121 l 519 -121 "},"ợ":{"ha":783,"x_min":0,"x_max":0,"o":"m 688 881 b 776 733 751 847 776 790 b 619 542 776 619 678 561 b 681 328 658 485 681 413 b 361 -14 681 125 554 -14 b 43 328 168 -14 43 124 b 364 669 43 532 171 669 b 599 569 463 669 543 633 b 733 732 636 581 733 624 b 664 849 733 786 707 824 m 361 26 b 631 325 528 26 631 144 l 631 331 b 364 629 631 511 529 629 b 93 331 196 629 93 511 l 93 325 b 361 26 93 144 194 26 m 393 -185 l 329 -185 l 329 -121 l 393 -121 "},"Ụ":{"ha":857,"x_min":0,"x_max":0,"o":"m 433 -14 b 86 326 190 -14 86 93 l 86 922 l 138 922 l 138 333 b 435 28 138 121 221 28 b 722 328 643 28 722 119 l 722 922 l 771 922 l 771 328 b 433 -14 771 93 671 -14 m 460 -185 l 396 -185 l 396 -121 l 460 -121 "},"ụ":{"ha":693,"x_min":0,"x_max":0,"o":"m 296 -14 b 83 232 156 -14 83 71 l 83 656 l 132 656 l 132 236 b 297 28 132 94 185 28 b 553 406 460 28 553 171 l 553 656 l 601 656 l 601 0 l 556 0 l 556 210 b 296 -14 521 64 438 -14 m 335 -185 l 271 -185 l 271 -121 l 335 -121 "},"Ủ":{"ha":857,"x_min":0,"x_max":0,"o":"m 433 -14 b 86 326 190 -14 86 93 l 86 922 l 138 922 l 138 333 b 435 28 138 121 221 28 b 722 328 643 28 722 119 l 722 922 l 771 922 l 771 328 b 433 -14 771 93 671 -14 m 419 1017 b 440 1072 419 1049 429 1061 b 550 1164 479 1110 550 1119 b 458 1215 550 1197 510 1215 b 343 1174 397 1215 358 1190 l 317 1200 b 461 1253 336 1224 394 1253 b 594 1167 525 1253 594 1225 b 485 1063 594 1104 517 1083 b 458 1011 458 1046 458 1024 l 458 1001 l 419 1001 "},"ủ":{"ha":693,"x_min":0,"x_max":0,"o":"m 296 -14 b 83 232 156 -14 83 71 l 83 656 l 132 656 l 132 236 b 297 28 132 94 185 28 b 553 406 460 28 553 171 l 553 656 l 601 656 l 601 0 l 556 0 l 556 210 b 296 -14 521 64 438 -14 m 313 799 b 332 856 313 832 322 844 b 439 953 371 896 439 906 b 350 1007 439 989 400 1007 b 238 964 290 1007 253 981 l 213 989 b 353 1044 232 1014 288 1044 b 482 956 415 1044 482 1015 b 375 847 482 890 406 871 b 350 793 350 829 350 806 l 350 782 l 313 782 "},"Ứ":{"ha":999,"x_min":0,"x_max":0,"o":"m 433 -14 b 86 326 190 -14 86 93 l 86 922 l 138 922 l 138 333 b 435 28 138 121 221 28 b 722 328 643 28 722 119 l 722 922 l 771 922 l 771 751 b 939 924 815 756 939 793 b 867 1047 939 982 911 1021 l 885 1082 b 985 925 957 1047 985 986 b 771 718 985 778 836 714 l 771 328 b 433 -14 771 93 671 -14 m 649 1210 l 456 1018 l 406 1018 l 590 1211 l 649 1211 "},"ứ":{"ha":797,"x_min":0,"x_max":0,"o":"m 700 881 b 789 733 764 847 789 790 b 601 536 789 594 640 538 l 601 0 l 556 0 l 556 210 b 299 -14 521 64 438 -14 b 83 232 154 -14 83 71 l 83 656 l 132 656 l 132 236 b 297 28 132 94 185 28 b 553 406 460 28 553 171 l 553 656 l 601 656 l 601 568 b 746 732 629 572 746 614 b 676 849 746 786 719 824 m 543 972 l 350 781 l 301 781 l 486 974 l 543 974 "},"Ừ":{"ha":999,"x_min":0,"x_max":0,"o":"m 433 -14 b 86 326 190 -14 86 93 l 86 922 l 138 922 l 138 333 b 435 28 138 121 221 28 b 722 328 643 28 722 119 l 722 922 l 771 922 l 771 751 b 939 924 815 756 939 793 b 867 1047 939 982 911 1021 l 885 1082 b 985 925 957 1047 985 986 b 771 718 985 778 836 714 l 771 328 b 433 -14 771 93 671 -14 m 264 1211 l 449 1018 l 400 1018 l 207 1210 l 207 1211 "},"ừ":{"ha":797,"x_min":0,"x_max":0,"o":"m 700 881 b 789 733 764 847 789 790 b 601 536 789 594 640 538 l 601 0 l 556 0 l 556 210 b 299 -14 521 64 438 -14 b 83 232 154 -14 83 71 l 83 656 l 132 656 l 132 236 b 297 28 132 94 185 28 b 553 406 460 28 553 171 l 553 656 l 601 656 l 601 568 b 746 732 629 572 746 614 b 676 849 746 786 719 824 m 171 974 l 356 781 l 307 781 l 114 972 l 114 974 "},"Ử":{"ha":999,"x_min":0,"x_max":0,"o":"m 433 -14 b 86 326 190 -14 86 93 l 86 922 l 138 922 l 138 333 b 435 28 138 121 221 28 b 722 328 643 28 722 119 l 722 922 l 771 922 l 771 751 b 939 924 815 756 939 793 b 867 1047 939 982 911 1021 l 885 1082 b 985 925 957 1047 985 986 b 771 718 985 778 836 714 l 771 328 b 433 -14 771 93 671 -14 m 419 1017 b 440 1072 419 1049 429 1061 b 550 1164 479 1110 550 1119 b 458 1215 550 1197 510 1215 b 343 1174 397 1215 358 1190 l 317 1200 b 461 1253 336 1224 394 1253 b 594 1167 525 1253 594 1225 b 485 1063 594 1104 517 1083 b 458 1011 458 1046 458 1024 l 458 1001 l 419 1001 "},"ử":{"ha":797,"x_min":0,"x_max":0,"o":"m 700 881 b 789 733 764 847 789 790 b 601 536 789 594 640 538 l 601 0 l 556 0 l 556 210 b 299 -14 521 64 438 -14 b 83 232 154 -14 83 71 l 83 656 l 132 656 l 132 236 b 297 28 132 94 185 28 b 553 406 460 28 553 171 l 553 656 l 601 656 l 601 568 b 746 732 629 572 746 614 b 676 849 746 786 719 824 m 313 799 b 332 856 313 832 322 844 b 439 953 371 896 439 906 b 350 1007 439 989 400 1007 b 238 964 290 1007 253 981 l 213 989 b 353 1044 232 1014 288 1044 b 482 956 415 1044 482 1015 b 375 847 482 890 406 871 b 350 793 350 829 350 806 l 350 782 l 313 782 "},"Ữ":{"ha":999,"x_min":0,"x_max":0,"o":"m 433 -14 b 86 326 190 -14 86 93 l 86 922 l 138 922 l 138 333 b 435 28 138 121 221 28 b 722 328 643 28 722 119 l 722 922 l 771 922 l 771 751 b 939 924 815 756 939 793 b 867 1047 939 982 911 1021 l 885 1082 b 985 925 957 1047 985 986 b 771 718 985 778 836 714 l 771 328 b 433 -14 771 93 671 -14 m 251 1028 l 256 1056 b 342 1144 264 1114 293 1144 b 517 1056 422 1144 456 1056 b 561 1104 539 1056 556 1076 l 567 1135 l 604 1135 l 600 1107 b 514 1018 592 1049 563 1018 b 339 1107 433 1018 400 1107 b 294 1058 317 1107 300 1086 l 289 1028 "},"ữ":{"ha":797,"x_min":0,"x_max":0,"o":"m 700 881 b 789 733 764 847 789 790 b 601 536 789 594 640 538 l 601 0 l 556 0 l 556 210 b 299 -14 521 64 438 -14 b 83 232 154 -14 83 71 l 83 656 l 132 656 l 132 236 b 297 28 132 94 185 28 b 553 406 460 28 553 171 l 553 656 l 601 656 l 601 568 b 746 732 629 572 746 614 b 676 849 746 786 719 824 m 171 819 b 256 913 181 881 207 913 b 429 818 338 913 374 818 b 478 871 457 818 468 833 l 483 903 l 519 903 l 515 874 b 431 781 507 815 481 781 b 256 875 349 781 313 875 b 208 824 229 875 215 860 l 203 790 l 167 790 "},"Ự":{"ha":999,"x_min":0,"x_max":0,"o":"m 433 -14 b 86 326 190 -14 86 93 l 86 922 l 138 922 l 138 333 b 435 28 138 121 221 28 b 722 328 643 28 722 119 l 722 922 l 771 922 l 771 751 b 939 924 815 756 939 793 b 867 1047 939 982 911 1021 l 885 1082 b 985 925 957 1047 985 986 b 771 718 985 778 836 714 l 771 328 b 433 -14 771 93 671 -14 m 460 -185 l 396 -185 l 396 -121 l 460 -121 "},"ự":{"ha":797,"x_min":0,"x_max":0,"o":"m 700 881 b 789 733 764 847 789 790 b 601 536 789 594 640 538 l 601 0 l 556 0 l 556 210 b 299 -14 521 64 438 -14 b 83 232 154 -14 83 71 l 83 656 l 132 656 l 132 236 b 297 28 132 94 185 28 b 553 406 460 28 553 171 l 553 656 l 601 656 l 601 568 b 746 732 629 572 746 614 b 676 849 746 786 719 824 m 335 -185 l 271 -185 l 271 -121 l 335 -121 "},"Ỵ":{"ha":757,"x_min":0,"x_max":0,"o":"m 721 922 l 399 439 l 399 0 l 347 0 l 347 442 l 36 922 l 90 922 l 374 483 l 667 922 m 410 -185 l 346 -185 l 346 -121 l 410 -121 "},"ỵ":{"ha":626,"x_min":0,"x_max":0,"o":"m 94 -211 b 310 36 213 -211 233 -172 l 33 656 l 82 656 l 332 89 l 544 656 l 592 656 l 344 8 b 96 -253 271 -185 244 -253 l 31 -253 l 31 -211 m 508 -185 l 444 -185 l 444 -121 l 508 -121 "},"Ỷ":{"ha":757,"x_min":0,"x_max":0,"o":"m 721 922 l 399 439 l 399 0 l 347 0 l 347 442 l 36 922 l 90 922 l 374 483 l 667 922 m 369 1017 b 390 1072 369 1049 379 1061 b 500 1164 429 1110 500 1119 b 408 1215 500 1197 460 1215 b 293 1174 347 1215 308 1190 l 267 1200 b 411 1253 286 1224 344 1253 b 544 1167 475 1253 544 1225 b 435 1063 544 1104 467 1083 b 408 1011 408 1046 408 1024 l 408 1001 l 369 1001 "},"ỷ":{"ha":626,"x_min":0,"x_max":0,"o":"m 94 -211 b 310 36 213 -211 233 -172 l 33 656 l 82 656 l 332 89 l 544 656 l 592 656 l 344 8 b 96 -253 271 -185 244 -253 l 31 -253 l 31 -211 m 322 799 b 342 856 322 832 332 844 b 449 953 381 896 449 906 b 360 1007 449 989 410 1007 b 247 964 300 1007 263 981 l 222 989 b 363 1044 242 1014 297 1044 b 492 956 425 1044 492 1015 b 385 847 492 890 415 871 b 360 793 360 829 360 806 l 360 782 l 322 782 "},"Ỹ":{"ha":757,"x_min":0,"x_max":0,"o":"m 721 922 l 399 439 l 399 0 l 347 0 l 347 442 l 36 922 l 90 922 l 374 483 l 667 922 m 201 1028 l 206 1056 b 292 1144 214 1114 243 1144 b 467 1056 372 1144 406 1056 b 511 1104 489 1056 506 1076 l 517 1135 l 554 1135 l 550 1107 b 464 1018 542 1049 513 1018 b 289 1107 383 1018 350 1107 b 244 1058 267 1107 250 1086 l 239 1028 "},"ỹ":{"ha":626,"x_min":0,"x_max":0,"o":"m 94 -211 b 310 36 213 -211 233 -172 l 33 656 l 82 656 l 332 89 l 544 656 l 592 656 l 344 8 b 96 -253 271 -185 244 -253 l 31 -253 l 31 -211 m 160 819 b 244 913 169 881 196 913 b 418 818 326 913 363 818 b 467 871 446 818 457 833 l 472 903 l 508 903 l 504 874 b 419 781 496 815 469 781 b 244 875 338 781 301 875 b 197 824 218 875 204 860 l 192 790 l 156 790 "}," ":{"ha":603,"x_min":0,"x_max":0,"o":""}," ":{"ha":100,"x_min":0,"x_max":0,"o":""},"​":{"ha":394,"x_min":0,"x_max":0,"o":""},"℗":{"ha":910,"x_min":0,"x_max":0,"o":"m 453 172 b 60 554 221 172 60 328 b 453 943 60 786 219 943 b 850 554 688 943 850 785 b 453 172 850 328 689 172 m 453 211 b 806 554 664 211 806 350 b 453 904 806 763 663 904 b 104 554 246 904 104 764 b 453 211 104 350 247 211 m 449 760 b 638 628 581 760 638 724 b 447 483 638 526 582 483 l 400 483 l 400 350 l 354 350 l 354 760 m 400 519 l 446 519 b 592 626 554 519 592 549 b 447 722 592 703 554 722 l 400 722 "},"◌":{"ha":1201,"x_min":0,"x_max":0,"o":"m 885 564 b 799 650 824 564 799 599 b 885 733 799 701 824 733 b 971 650 946 733 971 701 b 885 564 971 599 946 564 m 600 76 b 686 -10 661 76 686 42 b 600 -94 686 -61 661 -94 b 514 -10 539 -94 514 -61 b 600 76 514 42 539 76 m 211 472 b 297 386 272 472 297 438 b 211 303 297 335 272 303 b 125 386 150 303 125 335 b 211 472 125 438 150 472 m 317 564 b 231 650 256 564 231 599 b 317 733 231 701 256 733 b 403 650 378 733 403 701 b 317 564 403 599 378 564 m 885 210 b 971 124 946 210 971 175 b 885 40 971 72 946 40 b 799 124 824 40 799 72 b 885 210 799 175 824 210 m 600 697 b 514 783 539 697 514 732 b 600 868 514 835 539 868 b 686 783 661 868 686 835 b 600 697 686 732 661 697 m 990 472 b 1076 386 1051 472 1076 438 b 990 303 1076 335 1051 303 b 904 386 929 303 904 335 b 990 472 904 438 929 472 m 317 210 b 403 124 378 210 403 175 b 317 40 403 72 378 40 b 231 124 256 40 231 72 b 317 210 231 175 256 210 "},"♥":{"ha":997,"x_min":0,"x_max":0,"o":"m 499 61 b 21 582 367 240 21 321 l 21 592 b 253 836 21 735 114 836 l 257 836 b 463 710 375 836 438 761 b 494 553 485 664 490 617 l 503 553 b 536 710 510 617 513 664 b 740 836 563 761 625 836 l 744 836 b 976 592 883 836 976 735 l 976 582 b 499 61 976 321 631 240 "},"✓":{"ha":810,"x_min":0,"x_max":0,"o":"m 217 386 l 368 26 l 379 26 l 506 386 l 794 1174 l 844 1174 l 413 0 l 333 0 l 56 656 l 111 656 "},"✗":{"ha":842,"x_min":0,"x_max":0,"o":"m 474 274 l 438 317 l 406 272 l 169 0 l 132 38 l 375 297 l 419 339 l 375 383 l 128 639 l 164 674 l 404 407 l 442 364 l 474 407 l 706 676 l 743 646 l 503 379 l 460 342 l 503 299 l 743 38 l 708 0 "},"ﬁ":{"ha":571,"x_min":0,"x_max":0,"o":"m 125 615 l 0 615 l 0 656 l 125 656 l 125 778 b 290 936 125 901 161 936 l 332 936 l 332 894 l 288 894 b 172 781 189 894 172 878 l 172 656 l 318 656 l 318 615 l 172 615 l 172 0 l 125 0 m 479 0 l 431 0 l 431 656 l 479 656 m 486 789 l 422 789 l 422 853 l 486 853 "},"ﬂ":{"ha":569,"x_min":0,"x_max":0,"o":"m 125 615 l 0 615 l 0 656 l 125 656 l 125 778 b 290 936 125 901 161 936 l 332 936 l 332 894 l 288 894 b 172 781 189 894 172 878 l 172 656 l 318 656 l 318 615 l 172 615 l 172 0 l 125 0 m 478 0 l 431 0 l 431 936 l 478 936 "},"ų":{"ha":693,"x_min":0,"x_max":0,"o":"m 546 -256 b 429 -151 478 -256 429 -214 b 556 14 429 -92 468 -40 l 556 210 b 296 -14 521 64 438 -14 b 83 232 156 -14 83 71 l 83 656 l 132 656 l 132 236 b 297 28 132 94 185 28 b 553 406 460 28 553 171 l 553 656 l 601 656 l 601 0 b 475 -149 529 -39 475 -87 b 549 -215 475 -192 504 -215 b 613 -200 575 -215 601 -204 l 615 -239 b 546 -256 600 -247 572 -256 "},"ů":{"ha":693,"x_min":0,"x_max":0,"o":"m 296 -14 b 83 232 156 -14 83 71 l 83 656 l 132 656 l 132 236 b 297 28 132 94 185 28 b 553 406 460 28 553 171 l 553 656 l 601 656 l 601 0 l 556 0 l 556 210 b 296 -14 521 64 438 -14 m 322 813 b 394 885 365 813 394 846 b 322 958 394 924 365 958 b 251 885 279 958 251 924 b 322 813 251 846 279 813 m 322 781 b 217 885 257 781 217 826 b 322 990 217 943 257 990 b 429 885 388 990 429 943 b 322 781 429 826 388 781 "},"ũ":{"ha":693,"x_min":0,"x_max":0,"o":"m 296 -14 b 83 232 156 -14 83 71 l 83 656 l 132 656 l 132 236 b 297 28 132 94 185 28 b 553 406 460 28 553 171 l 553 656 l 601 656 l 601 0 l 556 0 l 556 210 b 296 -14 521 64 438 -14 m 171 819 b 256 913 181 881 207 913 b 429 818 338 913 374 818 b 478 871 457 818 468 833 l 483 903 l 519 903 l 515 874 b 431 781 507 815 481 781 b 256 875 349 781 313 875 b 208 824 229 875 215 860 l 203 790 l 167 790 "},"v":{"ha":628,"x_min":0,"x_max":0,"o":"m 318 64 l 549 656 l 596 656 l 333 -8 l 300 -8 l 39 656 l 88 656 "},"w":{"ha":974,"x_min":0,"x_max":0,"o":"m 269 89 l 464 656 l 510 656 l 706 85 l 881 656 l 928 656 l 722 0 l 689 0 l 488 593 l 285 0 l 251 0 l 46 656 l 94 656 "},"ẃ":{"ha":974,"x_min":0,"x_max":0,"o":"m 269 89 l 464 656 l 510 656 l 706 85 l 881 656 l 928 656 l 722 0 l 689 0 l 488 593 l 285 0 l 251 0 l 46 656 l 94 656 m 710 972 l 517 781 l 468 781 l 653 974 l 710 974 "},"ŵ":{"ha":974,"x_min":0,"x_max":0,"o":"m 269 89 l 464 656 l 510 656 l 706 85 l 881 656 l 928 656 l 722 0 l 689 0 l 488 593 l 285 0 l 251 0 l 46 656 l 94 656 m 635 781 l 589 781 l 489 914 l 389 781 l 343 781 l 479 968 l 499 968 "},"ẅ":{"ha":974,"x_min":0,"x_max":0,"o":"m 269 89 l 464 656 l 510 656 l 706 85 l 881 656 l 928 656 l 722 0 l 689 0 l 488 593 l 285 0 l 251 0 l 46 656 l 94 656 m 431 785 l 367 785 l 367 853 l 431 853 m 611 785 l 547 785 l 547 853 l 611 853 "},"ẁ":{"ha":974,"x_min":0,"x_max":0,"o":"m 269 89 l 464 656 l 510 656 l 706 85 l 881 656 l 928 656 l 722 0 l 689 0 l 488 593 l 285 0 l 251 0 l 46 656 l 94 656 m 338 974 l 522 781 l 474 781 l 281 972 l 281 974 "},"x":{"ha":628,"x_min":0,"x_max":0,"o":"m 286 340 l 40 656 l 94 656 l 315 371 l 532 656 l 585 656 l 342 342 l 608 0 l 554 0 l 313 311 l 74 0 l 21 0 "},"y":{"ha":626,"x_min":0,"x_max":0,"o":"m 94 -211 b 310 36 213 -211 233 -172 l 33 656 l 82 656 l 332 89 l 544 656 l 592 656 l 344 8 b 96 -253 271 -185 244 -253 l 31 -253 l 31 -211 "},"ý":{"ha":626,"x_min":0,"x_max":0,"o":"m 94 -211 b 310 36 213 -211 233 -172 l 33 656 l 82 656 l 332 89 l 544 656 l 592 656 l 344 8 b 96 -253 271 -185 244 -253 l 31 -253 l 31 -211 m 553 972 l 360 781 l 311 781 l 496 974 l 553 974 "},"ŷ":{"ha":626,"x_min":0,"x_max":0,"o":"m 94 -211 b 310 36 213 -211 233 -172 l 33 656 l 82 656 l 332 89 l 544 656 l 592 656 l 344 8 b 96 -253 271 -185 244 -253 l 31 -253 l 31 -211 m 478 781 l 432 781 l 332 914 l 232 781 l 186 781 l 322 968 l 342 968 "},"ÿ":{"ha":626,"x_min":0,"x_max":0,"o":"m 94 -211 b 310 36 213 -211 233 -172 l 33 656 l 82 656 l 332 89 l 544 656 l 592 656 l 344 8 b 96 -253 271 -185 244 -253 l 31 -253 l 31 -211 m 274 785 l 210 785 l 210 853 l 274 853 m 454 785 l 390 785 l 390 853 l 454 853 "},"¥":{"ha":753,"x_min":0,"x_max":0,"o":"m 65 308 l 349 308 l 349 460 l 65 460 l 65 504 l 347 504 l 79 922 l 132 922 l 375 539 l 626 922 l 681 922 l 401 504 l 683 504 l 683 460 l 400 460 l 400 308 l 683 308 l 683 264 l 400 264 l 400 0 l 349 0 l 349 264 l 65 264 "},"ỳ":{"ha":626,"x_min":0,"x_max":0,"o":"m 94 -211 b 310 36 213 -211 233 -172 l 33 656 l 82 656 l 332 89 l 544 656 l 592 656 l 344 8 b 96 -253 271 -185 244 -253 l 31 -253 l 31 -211 m 181 974 l 365 781 l 317 781 l 124 972 l 124 974 "},"z":{"ha":590,"x_min":0,"x_max":0,"o":"m 49 615 l 49 656 l 542 656 l 542 639 l 82 40 l 551 40 l 551 0 l 14 0 l 14 17 l 472 615 "},"ź":{"ha":590,"x_min":0,"x_max":0,"o":"m 49 615 l 49 656 l 542 656 l 542 639 l 82 40 l 551 40 l 551 0 l 14 0 l 14 17 l 472 615 m 510 972 l 317 781 l 268 781 l 453 974 l 510 974 "},"ž":{"ha":590,"x_min":0,"x_max":0,"o":"m 49 615 l 49 656 l 542 656 l 542 639 l 82 40 l 551 40 l 551 0 l 14 0 l 14 17 l 472 615 m 289 833 l 389 968 l 435 968 l 299 781 l 279 781 l 143 968 l 189 968 "},"ż":{"ha":590,"x_min":0,"x_max":0,"o":"m 49 615 l 49 656 l 542 656 l 542 639 l 82 40 l 551 40 l 551 0 l 14 0 l 14 17 l 472 615 m 321 785 l 257 785 l 257 853 l 321 853 "},"⁰":{"ha":647,"x_min":0,"x_max":0,"o":"m 319 449 b 75 733 154 449 75 542 b 324 1018 75 922 158 1018 b 572 733 489 1018 572 924 b 319 449 572 544 486 449 m 321 490 b 522 731 460 490 522 567 l 522 738 b 324 978 522 901 461 978 b 125 738 186 978 125 900 l 125 731 b 321 490 125 565 185 490 "},"★":{"ha":1010,"x_min":0,"x_max":0,"o":"m 508 242 l 204 38 l 317 383 l 21 608 l 386 608 l 508 954 l 621 608 l 989 608 l 703 383 l 804 38 l 508 242 "}}}
